<?xml version="1.0" encoding="utf-8"?>
<!-- Generator: Adobe Illustrator 19.0.0, SVG Export Plug-In . SVG Version: 6.00 Build 0)  -->
<svg version="1.1" id="图层_1" xmlns="http://www.w3.org/2000/svg" xmlns:xlink="http://www.w3.org/1999/xlink" x="0px" y="0px"
	 viewBox="0 0 64 64" style="enable-background:new 0 0 64 64;" xml:space="preserve">
<style type="text/css">
	.st0{fill:#936E6E;}
	.st1{fill:#763939;}
</style>
<path id="XMLID_4_" class="st0" d="M32-10C8.8-10-10,8.8-10,32c0,23.2,18.8,42,42,42c23.2,0,42-18.8,42-42C74,8.8,55.2-10,32-10z
	 M32,70C11,70-6,53-6,32S11-6,32-6s38,17,38,38S53,70,32,70z"/>
<path id="XMLID_5_" class="st1" d="M47.6,46.1L33.4,32l14.1-14.1c0.4-0.4,0.4-1,0-1.4c-0.4-0.4-1-0.4-1.4,0L32,30.6L17.9,16.4
	c-0.4-0.4-1-0.4-1.4,0c-0.4,0.4-0.4,1,0,1.4L30.6,32L16.4,46.1c-0.4,0.4-0.4,1,0,1.4c0.4,0.4,1,0.4,1.4,0L32,33.4l14.1,14.1
	c0.4,0.4,1,0.4,1.4,0C47.9,47.2,47.9,46.5,47.6,46.1z"/>
</svg>
