<?xml version="1.0" encoding="utf-8"?>
<!-- Generator: Adobe Illustrator 19.0.0, SVG Export Plug-In . SVG Version: 6.00 Build 0)  -->
<svg version="1.1" id="图层_1" xmlns="http://www.w3.org/2000/svg" xmlns:xlink="http://www.w3.org/1999/xlink" x="0px" y="0px"
	 viewBox="0 0 64 64" style="enable-background:new 0 0 64 64;" xml:space="preserve">
<style type="text/css">
	.st0{fill:#040000;}
</style>
<path id="Fill-1" class="st0" d="M56.1,39.8c-0.4-1.7-1.2-3.7-1.9-5.8l-2.9-6.8c0.1-0.2,0.1-1.6,0-1.9C51.4,13.2,45.8,1.2,32,1.2
	c-13.8,0-19.4,11.9-19.3,24.1c-0.1,0.4-0.1,1.7,0,1.9L9.8,34c-0.8,2-1.5,4.1-1.9,5.8c-2.8,8.5-1.9,12-1,12.5
	c1.1-0.3,5.1-6.8,4.8-6.8c0.3,3.7,2.3,8.7,6.8,12.5c-1.8,0.2-3.8,0.9-4.8,1.9c-1.3,0.7-1.2,1.6-1,1.9c0.9,1.5,15.2,0.9,19.3,0
	c4.1,0.9,18.4,1.5,19.3,0c0.2-0.3,0.4-1.2-1-1.9c-1-1-3-1.7-4.8-1.9c4.5-3.9,6.4-8.8,6.8-12.5c-0.3,0,3.7,6.5,4.8,6.8
	C58,51.9,58.9,48.4,56.1,39.8L56.1,39.8z"/>
</svg>
