<?xml version="1.0" encoding="utf-8"?>
<!-- Generator: Adobe Illustrator 19.0.0, SVG Export Plug-In . SVG Version: 6.00 Build 0)  -->
<svg version="1.1" id="图层_1" xmlns="http://www.w3.org/2000/svg" xmlns:xlink="http://www.w3.org/1999/xlink" x="0px" y="0px"
	 viewBox="0 0 64 64" style="enable-background:new 0 0 64 64;" xml:space="preserve">
<style type="text/css">
	.st0{fill:#040000;}
</style>
<g id="XMLID_1_">
	<path id="XMLID_2_" class="st0" d="M32,57C18.2,57,7,45.8,7,32c0-2.7,0.4-5.2,1.2-7.6l5.3,3c1,0.6,1.6,0.1,1.5-1l-1.7-13.2
		c-0.1-1.1-1.1-1.6-2.1-1.2l-12.2,5.1c-1,0.4-1.1,1.2-0.1,1.8l5,2.9C2.6,25,2,28.4,2,32c0,16.6,13.4,30,30,30
		c5.1,0,9.9-1.3,14.1-3.5l-3.7-3.7C39.2,56.2,35.7,57,32,57z"/>
	<path id="XMLID_3_" class="st0" d="M65.2,45.3l-5-2.9C61.3,39.1,62,35.7,62,32C62,15.4,48.6,2,32,2c-5.3,0-10.2,1.4-14.5,3.8
		l3.7,3.7C24.4,7.9,28.1,7,32,7c13.8,0,25,11.2,25,25c0,2.7-0.4,5.4-1.3,7.8l-5.2-3c-1-0.6-1.6-0.1-1.5,1L50.7,51
		c0.1,1.1,1.1,1.6,2.1,1.2l12.2-5.1C66.1,46.6,66.1,45.8,65.2,45.3z"/>
</g>
</svg>
