<?xml version="1.0" encoding="utf-8"?>
<!-- Generator: Adobe Illustrator 19.0.0, SVG Export Plug-In . SVG Version: 6.00 Build 0)  -->
<svg version="1.1" id="图层_1" xmlns="http://www.w3.org/2000/svg" xmlns:xlink="http://www.w3.org/1999/xlink" x="0px" y="0px"
	 viewBox="0 0 64 64" style="enable-background:new 0 0 64 64;" xml:space="preserve">
<style type="text/css">
	.st0{fill:#040000;}
</style>
<path id="XMLID_6_" class="st0" d="M60.1,54.4L48.2,42.8c6.4-8.8,5.6-21.2-2.4-29.2C41.4,9.2,35.6,7,29.8,7c-5.8,0-11.6,2.2-16,6.6
	c-8.8,8.8-8.8,23.2,0,32c4.4,4.4,10.2,6.6,16,6.6c4.5,0,9-1.4,12.9-4.1l11.6,11.9c1.1,1.2,3,1.2,4.2,0l1.5-1.5
	C61.3,57.5,61.3,55.6,60.1,54.4z M17.4,42.1c-6.9-6.9-6.9-18.1,0-24.9c3.3-3.3,7.8-5.2,12.5-5.2c4.7,0,9.1,1.8,12.5,5.2
	c6.9,6.9,6.9,18.1,0,24.9c-3.3,3.3-7.8,5.2-12.5,5.2C25.1,47.3,20.7,45.4,17.4,42.1z"/>
</svg>
