<?xml version="1.0" encoding="utf-8"?>
<!-- Generator: Adobe Illustrator 19.0.0, SVG Export Plug-In . SVG Version: 6.00 Build 0)  -->
<svg version="1.1" id="图层_1" xmlns="http://www.w3.org/2000/svg" xmlns:xlink="http://www.w3.org/1999/xlink" x="0px" y="0px"
	 viewBox="0 0 64 64" style="enable-background:new 0 0 64 64;" xml:space="preserve">
<path id="XMLID_7_" d="M32,12c-11,0-20,9-20,20c0,11,9,20,20,20s20-9,20-20C52,21,43,12,32,12z M31.8,20h0.5c1.6,0,2.7,1.3,2.6,2.8
	L33.7,35c-0.1,0.9-0.8,1.7-1.7,1.9c0.2,0,0.3,0.1,0.5,0.1h-0.9c0.2,0,0.3,0,0.5-0.1c-0.9-0.2-1.6-1-1.7-1.9l-1.1-12.2
	C29,21.3,30.2,20,31.8,20z M32,46c-1.7,0-3-1.3-3-3s1.3-3,3-3s3,1.3,3,3S33.7,46,32,46z"/>
</svg>
