<?xml version="1.0" encoding="utf-8"?>
<!-- Generator: Adobe Illustrator 19.0.0, SVG Export Plug-In . SVG Version: 6.00 Build 0)  -->
<svg version="1.1" id="图层_1" xmlns="http://www.w3.org/2000/svg" xmlns:xlink="http://www.w3.org/1999/xlink" x="0px" y="0px"
	 viewBox="0 0 64 64" style="enable-background:new 0 0 64 64;" xml:space="preserve">
<style type="text/css">
	.st0{fill:#2AACE3;}
</style>
<path id="XMLID_5_" class="st0" d="M32,12c-11,0-20,9-20,20c0,11,9,20,20,20s20-9,20-20C52,21,43,12,32,12z M32,21c1.7,0,3,1.3,3,3
	s-1.3,3-3,3s-3-1.3-3-3S30.3,21,32,21z M35.5,42H35h-4h-1.5c-0.8,0-1.5-0.7-1.5-1.5s0.7-1.5,1.5-1.5H31v-7h-3v-3h7v1v2v7h0.5
	c0.8,0,1.5,0.7,1.5,1.5S36.3,42,35.5,42z"/>
</svg>
