<?xml version="1.0" encoding="utf-8"?>
<!-- Generator: Adobe Illustrator 19.0.0, SVG Export Plug-In . SVG Version: 6.00 Build 0)  -->
<svg version="1.1" id="图层_1" xmlns="http://www.w3.org/2000/svg" xmlns:xlink="http://www.w3.org/1999/xlink" x="0px" y="0px"
	 viewBox="0 0 64 64" style="enable-background:new 0 0 64 64;" xml:space="preserve">
<path id="XMLID_5_" d="M32,12c-11,0-20,9-20,20c0,11,9,20,20,20s20-9,20-20C52,21,43,12,32,12z M41.1,29.2l-9.9,9.9
	c-0.4,0.4-0.9,0.6-1.4,0.6c-0.5,0-1-0.2-1.4-0.6l-5-5c-0.8-0.8-0.8-2,0-2.8c0.8-0.8,2.1-0.8,2.8,0l3.5,3.5l8.5-8.5
	c0.8-0.8,2-0.8,2.8,0C41.9,27.1,41.9,28.4,41.1,29.2z"/>
</svg>
