<?xml version="1.0" encoding="utf-8"?>
<!-- Generator: Adobe Illustrator 15.0.0, SVG Export Plug-In . SVG Version: 6.00 Build 0)  -->
<!DOCTYPE svg PUBLIC "-//W3C//DTD SVG 1.1//EN" "http://www.w3.org/Graphics/SVG/1.1/DTD/svg11.dtd">
<svg version="1.1" id="图形" xmlns="http://www.w3.org/2000/svg" xmlns:xlink="http://www.w3.org/1999/xlink" x="0px" y="0px"
	 width="1000.637px" height="1000.678px" viewBox="15.167 -16.333 1000.637 1000.678"
	 enable-background="new 15.167 -16.333 1000.637 1000.678" xml:space="preserve">
<g>
	<path fill="none" d="M514.078,106.521c-198.828,0-360,161.191-360,360c0,198.828,161.172,360,360,360
		c198.809,0,360-161.172,360-360C874.078,267.712,712.886,106.521,514.078,106.521z M514.078,687.282
		c-27.891,0-50.488-22.598-50.488-50.488c0-27.871,22.598-50.469,50.488-50.469c27.871,0,50.488,22.598,50.488,50.469
		C564.566,664.685,541.949,687.282,514.078,687.282z M541.89,523.415c-4.375,13.73-15.391,22.5-27.813,22.5
		c-12.441,0-24.063-10.625-27.813-22.5c-3.75-11.895-32.188-137.266-32.188-216.016c0-20,20-61.25,59.375-61.25
		s60.625,40.625,60.625,61.25C574.078,386.775,546.265,509.646,541.89,523.415z"/>
</g>
</svg>
