<?xml version="1.0" encoding="utf-8"?>
<!-- Generator: Adobe Illustrator 15.0.0, SVG Export Plug-In . SVG Version: 6.00 Build 0)  -->
<!DOCTYPE svg PUBLIC "-//W3C//DTD SVG 1.1//EN" "http://www.w3.org/Graphics/SVG/1.1/DTD/svg11.dtd">
<svg version="1.1" id="图形" xmlns="http://www.w3.org/2000/svg" xmlns:xlink="http://www.w3.org/1999/xlink" x="0px" y="0px"
	 width="1000.637px" height="1000.678px" viewBox="15.167 -16.333 1000.637 1000.678"
	 enable-background="new 15.167 -16.333 1000.637 1000.678" xml:space="preserve">
<g>
	<polygon fill="#231815" points="718.78,312.735 687.081,286.329 513.604,459.825 337.022,283.243 308.858,311.407 485.44,487.99 
		307.53,665.9 339.229,692.286 514.483,517.032 688.409,690.958 716.573,662.794 542.647,488.868 	"/>
</g>
<g>
	<path fill="#231815" d="M514.495,45.505c59.475,0,117.147,11.639,171.419,34.595c52.438,22.18,99.542,53.942,140.001,94.402
		s72.219,87.563,94.398,140.003c22.953,54.27,34.592,111.94,34.592,171.411c0,59.479-11.639,117.158-34.593,171.432
		c-22.179,52.441-53.938,99.546-94.397,140.006c-40.458,40.46-87.562,72.221-140.001,94.399
		c-54.27,22.954-111.943,34.593-171.419,34.593s-117.15-11.639-171.422-34.593c-52.442-22.18-99.547-53.94-140.008-94.4
		c-40.462-40.46-72.224-87.564-94.405-140.006c-22.955-54.274-34.595-111.951-34.595-171.431c0-59.47,11.639-117.141,34.595-171.41
		c22.181-52.439,53.943-99.543,94.405-140.003c40.461-40.46,87.567-72.222,140.008-94.403
		C397.346,57.144,455.02,45.505,514.495,45.505 M514.495,5.505c-265.332,0-480.43,215.098-480.43,480.411
		c0,265.352,215.098,480.43,480.43,480.43s480.41-215.078,480.41-480.43C994.905,220.602,779.827,5.505,514.495,5.505L514.495,5.505
		z"/>
</g>
</svg>
