<?xml version="1.0" encoding="utf-8"?>
<!-- Generator: Adobe Illustrator 15.0.0, SVG Export Plug-In . SVG Version: 6.00 Build 0)  -->
<!DOCTYPE svg PUBLIC "-//W3C//DTD SVG 1.1//EN" "http://www.w3.org/Graphics/SVG/1.1/DTD/svg11.dtd">
<svg version="1.1" id="图形" xmlns="http://www.w3.org/2000/svg" xmlns:xlink="http://www.w3.org/1999/xlink" x="0px" y="0px"
	 width="1000.637px" height="1000.678px" viewBox="15.167 -16.333 1000.637 1000.678"
	 enable-background="new 15.167 -16.333 1000.637 1000.678" xml:space="preserve">
<path fill-rule="evenodd" clip-rule="evenodd" fill="none" d="M515.485,766.523c-156.367,0-283.125-126.758-283.125-283.125
	s126.758-283.125,283.125-283.125S798.61,327.031,798.61,483.398S671.852,766.523,515.485,766.523z M648.258,386.132
	c7.695-7.695,5.43-22.5-5.078-32.969l-1.191-1.211c-10.508-10.508-25.273-12.793-32.969-5.078l-94.199,94.219L413.805,340.038
	c-7.832-7.793-22.793-5.508-33.438,5.156l-1.211,1.191c-10.664,10.664-12.949,25.605-5.137,33.438l101.016,101.016l-98.574,98.574
	c-7.715,7.734-5.43,22.5,5.078,32.988l1.172,1.191c10.527,10.527,25.293,12.773,32.988,5.078l98.594-98.574l95.391,95.391
	c7.813,7.813,22.773,5.527,33.418-5.137l1.211-1.211c10.664-10.625,12.949-25.625,5.137-33.438l-95.391-95.371L648.258,386.132z"/>
</svg>
