<?xml version="1.0" encoding="utf-8"?>
<!-- Generator: Adobe Illustrator 15.0.0, SVG Export Plug-In . SVG Version: 6.00 Build 0)  -->
<!DOCTYPE svg PUBLIC "-//W3C//DTD SVG 1.1//EN" "http://www.w3.org/Graphics/SVG/1.1/DTD/svg11.dtd">
<svg version="1.1" id="图形" xmlns="http://www.w3.org/2000/svg" xmlns:xlink="http://www.w3.org/1999/xlink" x="0px" y="0px"
	 width="1000.637px" height="1000.678px" viewBox="15.167 -16.333 1000.637 1000.678"
	 enable-background="new 15.167 -16.333 1000.637 1000.678" xml:space="preserve">
<g>
	<path fill="none" d="M514.318,106.52c-198.809,0-360,161.172-360,360c0,198.809,161.191,360,360,360s360-161.191,360-360
		C874.318,267.692,713.126,106.52,514.318,106.52z M513.322,226.52c27.617,0,50,22.383,50,50s-22.383,50-50,50s-50-22.383-50-50
		S485.705,226.52,513.322,226.52z M594.767,666.618H433.869v-20.117h40.215v-240.45h-40.215v-20.117h120.684v260.567h40.215V666.618
		z"/>
</g>
</svg>
