<?xml version="1.0" encoding="utf-8"?>
<!-- Generator: Adobe Illustrator 15.0.0, SVG Export Plug-In . SVG Version: 6.00 Build 0)  -->
<!DOCTYPE svg PUBLIC "-//W3C//DTD SVG 1.1//EN" "http://www.w3.org/Graphics/SVG/1.1/DTD/svg11.dtd">
<svg version="1.1" id="图形" xmlns="http://www.w3.org/2000/svg" xmlns:xlink="http://www.w3.org/1999/xlink" x="0px" y="0px"
	 width="1000.637px" height="1000.678px" viewBox="15.167 -16.333 1000.637 1000.678"
	 enable-background="new 15.167 -16.333 1000.637 1000.678" xml:space="preserve">
<path fill="#CCCCCC" d="M514.3,894.661c-55.882,0-110.102-10.948-161.154-32.541c-49.301-20.852-93.574-50.699-131.589-88.714
	c-38.015-38.014-67.863-82.285-88.716-131.584C111.249,590.774,100.3,536.557,100.3,480.678c0-55.882,10.948-110.103,32.541-161.154
	c20.853-49.301,50.701-93.574,88.716-131.589s82.288-67.863,131.589-88.716C404.198,77.627,458.418,66.678,514.3,66.678
	c55.883,0,110.103,10.949,161.154,32.541c49.301,20.853,93.573,50.701,131.589,88.716c38.015,38.015,67.863,82.288,88.716,131.589
	c21.593,51.051,32.541,105.271,32.541,161.154c0,55.878-10.948,110.095-32.541,161.144c-20.853,49.299-50.701,93.57-88.716,131.584
	c-38.016,38.015-82.288,67.862-131.589,88.714C624.402,883.713,570.182,894.661,514.3,894.661z M514.3,102.678
	c-208.43,0-378,169.57-378,378c0,208.42,169.57,377.983,378,377.983s378-169.563,378-377.983
	C892.3,272.249,722.73,102.678,514.3,102.678z"/>
<path fill-rule="evenodd" clip-rule="evenodd" fill="none" d="M550.318,714.679H478.3h-36v-18h36v-270h-36v-18.018h36h72.018v18.018
	v270H586.3v18H550.318z M514.3,358.053c-27.334,0-49.5-22.166-49.5-49.5c0-27.352,22.166-49.5,49.5-49.5s49.5,22.148,49.5,49.5
	C563.8,335.887,541.634,358.053,514.3,358.053z"/>
</svg>
