<?xml version="1.0" encoding="utf-8"?>
<!-- Generator: Adobe Illustrator 15.0.0, SVG Export Plug-In . SVG Version: 6.00 Build 0)  -->
<!DOCTYPE svg PUBLIC "-//W3C//DTD SVG 1.1//EN" "http://www.w3.org/Graphics/SVG/1.1/DTD/svg11.dtd">
<svg version="1.1" id="图形" xmlns="http://www.w3.org/2000/svg" xmlns:xlink="http://www.w3.org/1999/xlink" x="0px" y="0px"
	 width="1000.637px" height="1000.678px" viewBox="15.167 -16.333 1000.637 1000.678"
	 enable-background="new 15.167 -16.333 1000.637 1000.678" xml:space="preserve">
<path d="M670.182,923.268c-6.229,0-12.622-0.16-19-0.477c-54.596-2.696-102.548-15.372-128.267-33.908l-0.741-0.563
	c-2.326-1.866-5.199-2.94-7.159-3.378c-1.967,0.438-4.848,1.512-7.174,3.378l-0.734,0.561
	c-25.702,18.536-73.649,31.213-128.259,33.911c-6.375,0.316-12.767,0.477-18.997,0.477c-36.25,0-68.048-5.251-91.958-15.187
	c-39.591-16.45-46.578-41.614-47.219-55.15c-1.224-25.74,16.719-49.853,49.019-67.21c-18.123-21.399-32.797-45.168-43.9-71.093
	c-4.526,6.92-9.146,13.242-13.785,18.841c-14.825,17.895-28.35,26.594-41.347,26.594c-10.569,0-19.584-5.728-24.734-15.715
	l-0.236-0.476c-22.512-47.013-25.613-100.253-9.216-158.24c14.158-50.07,39.645-91.317,55.645-113.927
	c0.074-1.406,0.177-2.92,0.295-4.568c0.386-5.398,1.237-14.013,3.096-24.404c2.995-16.733,9.144-40.747,21.588-63.047
	c-0.231-5.295-0.223-10.599-0.215-15.774c0.006-4.204,0.014-8.552-0.107-12.846c-2.245-78.412,29.496-157.574,87.082-217.183
	c27.677-28.648,59.651-51.317,95.036-67.376c37.148-16.86,76.182-25.528,116.018-25.763l0.106-0.001l0.106,0.001
	c39.493,0.233,78.096,8.766,114.735,25.362c34.875,15.797,66.404,38.139,93.711,66.405c57.603,59.625,89.338,139.288,87.068,218.562
	c-0.121,4.304-0.116,8.666-0.111,12.883c0.005,5.153,0.011,10.434-0.216,15.703c12.422,22.095,19.214,45.884,22.776,62.464
	c2.222,10.341,3.425,18.885,4.042,24.231c0.211,1.822,0.404,3.492,0.553,5.042c23.324,33.169,42.524,74.764,53.009,115.018
	c14.665,56.302,12.63,110.385-5.883,156.401l-0.212,0.505c-4.657,10.632-13.939,16.979-24.83,16.979c-0.003,0-0.005,0-0.008,0
	c-20.532-0.006-40.872-23.663-55.44-45.868c-11.108,26.003-25.813,49.838-43.988,71.292c32.295,17.357,50.237,41.47,49.013,67.21
	c-0.641,13.533-7.626,38.698-47.208,55.148C738.23,918.017,706.433,923.268,670.182,923.268z M544.272,859.899
	c19.84,14.09,62.422,24.651,108.689,26.937c5.79,0.287,11.583,0.433,17.221,0.433c65.923,0,102.374-18.568,103.201-36.04
	c0.682-14.333-19.213-31.365-49.505-42.386l-26.786-9.745l20.313-19.997c31.62-31.129,53.706-69.125,65.645-112.932l12.729-46.712
	l20.877,43.684c14.126,29.556,29.181,48.613,38.224,56.839c29.772-88.481-16.373-186.58-49.479-231.824l-7.481-10.224l3.696-5.462
	c-1.409-13.919-7.492-50.422-24.969-79.066l-3.053-5.004l0.479-5.843c0.467-5.691,0.46-11.942,0.453-18.559
	c-0.005-4.477-0.01-9.107,0.126-13.945c1.994-69.656-26.063-139.827-76.974-192.526c-49.91-51.663-114.78-80.348-182.662-80.78
	c-67.719,0.432-135.244,30.371-185.268,82.152c-50.896,52.683-78.957,122.354-76.988,191.147c0.137,4.837,0.129,9.458,0.122,13.926
	c-0.011,6.62-0.021,12.872,0.456,18.555l0.49,5.859l-3.062,5.019c-18.139,29.73-21.82,66.167-22.551,78.565l4.058,5.749
	l-7.644,10.442c-22.308,30.474-90.283,135.436-49.917,232.462c8.711-7.544,23.84-26.499,38.646-57.479l20.866-43.66l12.74,46.683
	c11.955,43.81,34.042,81.809,65.649,112.941l20.301,19.996l-26.779,9.742c-30.292,11.021-50.186,28.053-49.504,42.383
	c0.828,17.475,37.284,36.043,103.218,36.043c5.638,0,11.431-0.146,17.218-0.432c46.28-2.287,88.856-12.849,108.675-26.938
	c7.93-6.214,18.318-10.342,27.907-11.072l1.366-0.104l1.366,0.104C525.959,849.556,536.341,853.684,544.272,859.899z"/>
</svg>
