<?xml version="1.0" encoding="utf-8"?>
<!-- Generator: Adobe Illustrator 15.0.0, SVG Export Plug-In . SVG Version: 6.00 Build 0)  -->
<!DOCTYPE svg PUBLIC "-//W3C//DTD SVG 1.1//EN" "http://www.w3.org/Graphics/SVG/1.1/DTD/svg11.dtd">
<svg version="1.1" id="图形" xmlns="http://www.w3.org/2000/svg" xmlns:xlink="http://www.w3.org/1999/xlink" x="0px" y="0px"
	 width="1000.637px" height="1000.678px" viewBox="15.167 -16.333 1000.637 1000.678"
	 enable-background="new 15.167 -16.333 1000.637 1000.678" xml:space="preserve">
<g>
	<path fill="none" d="M515.466,106.521c-198.809,0-360,161.172-360,360s161.191,360,360,360s360-161.172,360-360
		S714.275,106.521,515.466,106.521z M733.455,369.958l-254.57,254.551c-7.813,7.813-20.469,7.813-28.281,0l-14.141-14.141
		c-0.008-0.008-0.015-0.018-0.023-0.025l-98.961-98.979c-7.813-7.813-7.813-20.469,0-28.281l14.141-14.141
		c7.813-7.813,20.469-7.813,28.281,0l84.846,84.846l226.287-226.252c7.813-7.813,20.469-7.813,28.281,0l14.141,14.141
		C741.267,349.49,741.267,362.146,733.455,369.958z"/>
</g>
</svg>
