<?xml version="1.0" encoding="utf-8"?>
<!-- Generator: Adobe Illustrator 15.0.0, SVG Export Plug-In . SVG Version: 6.00 Build 0)  -->
<!DOCTYPE svg PUBLIC "-//W3C//DTD SVG 1.1//EN" "http://www.w3.org/Graphics/SVG/1.1/DTD/svg11.dtd">
<svg version="1.1" id="图形" xmlns="http://www.w3.org/2000/svg" xmlns:xlink="http://www.w3.org/1999/xlink" x="0px" y="0px"
	 width="1000.637px" height="1000.678px" viewBox="15.167 -16.333 1000.637 1000.678"
	 enable-background="new 15.167 -16.333 1000.637 1000.678" xml:space="preserve">
<path fill="#E84340" d="M515.323,47.118c58.731,0,115.698,11.5,169.317,34.179c51.797,21.909,98.318,53.276,138.272,93.231
	c39.953,39.955,71.32,86.477,93.228,138.274c22.679,53.619,34.178,110.585,34.178,169.316c0,58.731-11.499,115.699-34.178,169.318
	c-21.907,51.798-53.274,98.319-93.228,138.274c-39.954,39.954-86.476,71.321-138.272,93.229
	c-53.619,22.679-110.586,34.178-169.317,34.178c-58.732,0-115.699-11.499-169.319-34.178
	c-51.798-21.909-98.321-53.275-138.276-93.23c-39.955-39.954-71.323-86.477-93.231-138.273
	c-22.679-53.62-34.179-110.587-34.179-169.318c0-58.73,11.5-115.697,34.179-169.316c21.909-51.797,53.276-98.32,93.231-138.274
	s86.478-71.322,138.276-93.231C399.624,58.618,456.591,47.118,515.323,47.118 M515.323,32.118
	c-248.53,0-450.005,201.475-450.005,450c0,248.53,201.475,450,450.005,450s449.995-201.47,449.995-450
	C965.318,233.593,763.853,32.118,515.323,32.118L515.323,32.118z"/>
<g>
	<path fill="#E84340" d="M515.328,757.128c-32.917,0-59.697-26.65-59.697-59.409c0-32.748,26.78-59.39,59.697-59.39
		c32.914,0,59.692,26.642,59.692,59.39C575.02,730.478,548.242,757.128,515.328,757.128z M515.328,648.329
		c-27.403,0-49.697,22.156-49.697,49.39c0,27.244,22.294,49.409,49.697,49.409c27.4,0,49.692-22.165,49.692-49.409
		C565.02,670.486,542.728,648.329,515.328,648.329z M515.323,604.78c-14.875,0-29.878-11.924-34.897-27.735
		c-3.814-12.016-35.103-212.063-35.103-298.92c0-13.386,6.759-30.717,17.219-44.152c9.535-12.246,26.313-26.844,52.102-26.844
		c20.18,0,38.904,9.419,52.725,26.522c10.906,13.498,17.954,30.955,17.954,44.474c0,86.429-30.141,283.399-35.105,298.93
		C544.829,593.897,531.131,604.78,515.323,604.78z M514.644,217.128c-38.383,0-59.321,40.294-59.321,60.996
		c0,86.142,30.87,284.039,34.634,295.895c3.239,10.205,13.613,20.761,25.366,20.761c11.374,0,21.333-8.153,25.37-20.771
		c4.826-15.098,34.63-212.939,34.63-295.884c0-9.318-4.864-24.739-15.732-38.188C551.183,229.531,536.56,217.128,514.644,217.128z"
		/>
</g>
</svg>
