<?xml version="1.0" encoding="utf-8"?>
<!-- Generator: Adobe Illustrator 15.0.0, SVG Export Plug-In . SVG Version: 6.00 Build 0)  -->
<!DOCTYPE svg PUBLIC "-//W3C//DTD SVG 1.1//EN" "http://www.w3.org/Graphics/SVG/1.1/DTD/svg11.dtd">
<svg version="1.1" id="图形" xmlns="http://www.w3.org/2000/svg" xmlns:xlink="http://www.w3.org/1999/xlink" x="0px" y="0px"
	 width="1000.637px" height="1000.678px" viewBox="15.167 -16.333 1000.637 1000.678"
	 enable-background="new 15.167 -16.333 1000.637 1000.678" xml:space="preserve">
<path fill="none" d="M514.486,87.006c53.476,0,105.333,10.465,154.131,31.104c47.15,19.943,89.504,48.501,125.884,84.881
	s64.938,78.733,84.881,125.884c20.64,48.798,31.104,100.655,31.104,154.13s-10.465,105.333-31.104,154.131
	c-19.943,47.15-48.501,89.504-84.881,125.884s-78.733,64.938-125.884,84.881c-48.798,20.64-100.655,31.104-154.131,31.104
	s-105.333-10.465-154.131-31.104c-47.151-19.943-89.505-48.501-125.884-84.881s-64.938-78.733-84.881-125.884
	c-20.639-48.798-31.104-100.655-31.104-154.131s10.465-105.333,31.104-154.13c19.943-47.151,48.501-89.505,84.881-125.884
	s78.733-64.938,125.884-84.881C409.153,97.471,461.01,87.006,514.486,87.006 M514.486,51.006c-238.588,0-432,193.412-432,432
	s193.412,432,432,432c238.588,0,432-193.412,432-432S753.074,51.006,514.486,51.006L514.486,51.006z"/>
</svg>
