<?xml version="1.0" encoding="utf-8"?>
<!-- Generator: Adobe Illustrator 15.0.0, SVG Export Plug-In . SVG Version: 6.00 Build 0)  -->
<!DOCTYPE svg PUBLIC "-//W3C//DTD SVG 1.1//EN" "http://www.w3.org/Graphics/SVG/1.1/DTD/svg11.dtd">
<svg version="1.1" id="图形" xmlns="http://www.w3.org/2000/svg" xmlns:xlink="http://www.w3.org/1999/xlink" x="0px" y="0px"
	 width="1000.637px" height="1000.678px" viewBox="15.167 -16.333 1000.637 1000.678"
	 enable-background="new 15.167 -16.333 1000.637 1000.678" xml:space="preserve">
<g>
	<path fill="none" d="M893.485,178.006h-756c-19.881,0-36,16.119-36,36v540c0,19.881,16.119,36,36,36h756c19.881,0,36-16.119,36-36
		v-540C929.485,194.125,913.366,178.006,893.485,178.006z M893.485,736.005c0,9.949-8.068,18-18,18h-720c-9.949,0-18-8.051-18-18
		v-43.074c13.748-16.398,56.851-63.432,99-63.432c38.355,0,125.648,32.994,169.506,32.994c77.449,0,188.279-180,262.494-180
		c88.407,0,201.271,153.324,225,187.007V736.005z M893.485,620.779c-21.514-33.574-117.723-172.773-234-172.773
		c-73.898,0-197.648,180-266.994,180c-43.33,0-116.578-36-154.512-36c-45.256,0-87.049,43.586-100.494,59.102V232.006
		c0-9.949,8.051-18,18-18h720c9.932,0,18,8.051,18,18V620.779z M299.344,303.443c-39.797,0-72.07,32.256-72.07,72.07
		c0,39.797,32.273,72.053,72.07,72.053s72.053-32.256,72.053-72.053C371.397,335.699,339.141,303.443,299.344,303.443z
		 M299.52,429.25c-29.619,0-53.631-24.012-53.631-53.631c0-29.602,24.012-53.613,53.631-53.613
		c29.602,0,53.613,24.012,53.613,53.613C353.133,405.238,329.122,429.25,299.52,429.25z"/>
</g>
</svg>
