<?xml version="1.0" encoding="utf-8"?>
<!-- Generator: Adobe Illustrator 15.0.0, SVG Export Plug-In . SVG Version: 6.00 Build 0)  -->
<!DOCTYPE svg PUBLIC "-//W3C//DTD SVG 1.1//EN" "http://www.w3.org/Graphics/SVG/1.1/DTD/svg11.dtd">
<svg version="1.1" id="图形" xmlns="http://www.w3.org/2000/svg" xmlns:xlink="http://www.w3.org/1999/xlink" x="0px" y="0px"
	 width="1000.637px" height="1000.678px" viewBox="15.167 -16.333 1000.637 1000.678"
	 enable-background="new 15.167 -16.333 1000.637 1000.678" xml:space="preserve">
<g>
	<path fill="none" d="M766.233,357.757c-35.912,0-65.037,29.109-65.037,65.037c0,35.912,29.125,65.038,65.037,65.038
		s65.037-29.125,65.037-65.038C831.27,386.866,802.145,357.757,766.233,357.757z M766.169,455.906
		c-18.367,0-33.254-14.871-33.254-33.238c0-18.352,14.887-33.238,33.254-33.238c18.352,0,33.238,14.887,33.238,33.238
		C799.408,441.035,784.521,455.906,766.169,455.906z M280.233,357.757c-35.912,0-65.021,29.109-65.021,65.037
		c0,35.912,29.109,65.038,65.021,65.038s65.038-29.125,65.038-65.038C345.271,386.866,316.145,357.757,280.233,357.757z
		 M280.17,455.906c-18.352,0-33.254-14.871-33.254-33.238c0-18.352,14.903-33.238,33.254-33.238s33.238,14.887,33.238,33.238
		C313.408,441.035,298.521,455.906,280.17,455.906z M922.632,82.215H107.681c-29.821,0-53.979,24.173-53.979,53.979v588.421
		c0,29.82,24.157,53.979,53.979,53.979h108.037v141.48l130.549-141.48h576.365c29.821,0,53.979-24.158,53.979-53.979V136.194
		C976.612,106.388,952.454,82.215,922.632,82.215z M944.971,719.046c0,15.219-12.34,27.543-27.56,27.543H336.458l-88.546,94.684
		v-94.684H113.598c-15.219,0-27.543-12.324-27.543-27.543V141.383c0-15.204,12.324-27.543,27.543-27.543h803.814
		c15.22,0,27.56,12.34,27.56,27.543V719.046z M523.233,357.757c-35.912,0-65.037,29.109-65.037,65.037
		c0,35.912,29.125,65.038,65.037,65.038s65.037-29.125,65.037-65.038C588.27,386.866,559.145,357.757,523.233,357.757z
		 M523.169,455.906c-18.352,0-33.254-14.871-33.254-33.238c0-18.352,14.902-33.238,33.254-33.238s33.238,14.887,33.238,33.238
		C556.408,441.035,541.521,455.906,523.169,455.906z"/>
</g>
</svg>
