<?xml version="1.0" encoding="utf-8"?>
<!-- Generator: Adobe Illustrator 15.0.0, SVG Export Plug-In . SVG Version: 6.00 Build 0)  -->
<!DOCTYPE svg PUBLIC "-//W3C//DTD SVG 1.1//EN" "http://www.w3.org/Graphics/SVG/1.1/DTD/svg11.dtd">
<svg version="1.1" id="图形" xmlns="http://www.w3.org/2000/svg" xmlns:xlink="http://www.w3.org/1999/xlink" x="0px" y="0px"
	 width="1000.637px" height="1000.678px" viewBox="0 0 1000.637 1000.678" enable-background="new 0 0 1000.637 1000.678"
	 xml:space="preserve">
<g>
	<g>
		<path fill="#231815" d="M801.369,880.82H27.757l-1.324-16.565c-0.18-2.255-3.77-55.519,52.16-82.352
			c34.378-16.489,76.545-30.614,121.187-45.568c36.761-12.313,74.772-25.047,109.034-39.452
			c29.119-12.251,40.885-53.318,40.885-68.38V597.27c-22.873-20.577-41.299-44.599-53.022-69.067
			c-26.82-5.124-71.501-26.838-71.501-90.246v-0.9l0.09-0.896c1.698-16.925,8.939-27.042,17.776-32.251
			c0.021-5.31,0.052-10.951,0.083-16.761c0.068-12.784,0.139-26.002,0.139-38.665c0-5.477,0.185-11.056,0.549-16.604
			c-7.14-87.689,13.942-145.748,59.545-164.858C320.311,136.379,353.445,106,399.996,106c3.376,0,6.833,0.159,10.274,0.472
			c18.458,1.678,26.193,4.551,34.382,7.593c5.831,2.166,11.861,4.405,24.772,6.804c20.556,3.816,44.709,5.385,56.317,6.139
			c8.629,0.561,10.424,0.677,13.836,2.3l18.672,8.884l-10.974,16.646c-2.881,5.239-1.693,8.315-0.123,10.101
			c18.08,4.931,40.033,19.26,51.041,58.015c8.4,29.574,7.555,62.859,5.222,86.252c0.938,8.399,1.413,17.06,1.413,25.777
			c0,13.081-0.692,29.913-1.362,46.189c-0.325,7.896-0.64,15.54-0.849,22.192c10.097,6.638,17.158,19.141,18.717,34.774l0.089,0.891
			v0.895c0,41.734-21.134,63.962-38.862,75.259c-10.47,6.673-20.99,10.366-28.917,12.322c-16.008,32.91-43.898,60.655-58.643,73.905
			v29.236c0,10.589,14.489,37.737,53.369,65.509c20.797,14.854,73.635,32.899,120.253,48.82
			c37.499,12.807,72.917,24.902,98.399,36.86l0.937,0.473c52.884,28.688,51.482,79.102,51.396,81.233l-0.693,17.278H801.369z
			 M65.161,844.82H779.57c-3.95-9.719-11.989-21.624-28.332-30.624c-23.699-11.059-59.562-23.306-94.25-35.152
			c-53.715-18.345-104.451-35.672-129.542-53.594C485.227,695.294,459,658.968,459,630.646v-45.802l6.41-5.394
			c21.146-17.797,47.74-46.757,58.961-74.665l4.537-11.284h11.253c2.287-0.328,13.73-2.277,24.465-9.611
			c13.765-9.403,20.571-23.471,20.79-42.988c-0.399-2.977-1.294-5.325-2.023-6.636l-17.026,1.031v-19.123
			c0-9.055,0.548-22.378,1.129-36.484c0.654-15.913,1.332-32.368,1.332-44.709c0-7.983-0.468-15.886-1.39-23.488l-0.246-2.029
			l0.215-2.033c4.879-46.097-0.538-102.11-31.86-108.261l-3.646-0.716l-3.063-2.101c-13.948-9.563-18.997-22.365-19.232-34.388
			c-13.222-1.024-30.722-2.727-46.754-5.703c-15.964-2.966-24.154-6.008-30.734-8.452c-6.881-2.556-11.427-4.245-25.108-5.488
			c-2.363-0.215-4.722-0.324-7.013-0.324c-41.81,0-62.326,36.175-67.619,47.263l-3.39,7.103l-7.516,2.334
			c-46.425,14.416-44.608,96.788-41.672,131.534l0.118,1.397l-0.1,1.398c-0.369,5.164-0.555,10.363-0.555,15.454
			c0,12.759-0.071,26.027-0.14,38.858c-0.059,11.048-0.115,21.483-0.115,30.119v19.126l-17.14-1.041
			c-0.245,0.808-0.502,1.924-0.688,3.378c0.206,21.185,7.214,36.064,21.407,45.465c11.128,7.371,23.684,9.064,26.438,9.115h12.166
			l4.49,11.289c9.943,24.745,28.982,49.787,53.608,70.511l6.41,5.395v47.806c0,11.826-3.558,31.696-13.544,52
			c-11.68,23.747-28.757,40.886-49.384,49.564c-35.506,14.929-74.168,27.879-111.556,40.403
			c-43.552,14.589-84.689,28.369-117.051,43.891C76.65,822.764,68.726,834.956,65.161,844.82z"/>
	</g>
</g>
<g>
	<g>
		<path fill="#231815" d="M941.895,754.909l-0.921-0.465c-20.806-9.774-49.58-19.605-80.043-30.015
			c-37.472-12.805-79.944-27.316-96.362-39.044c-31.542-22.512-41.746-43.551-41.746-50.212v-22.138
			c12.15-11.06,33.528-32.718,46.411-58.44c6.536-1.75,14.743-4.805,22.852-9.969c15.074-9.602,33.043-28.465,33.043-63.806v-0.906
			l-0.091-0.902c-1.302-12.898-6.925-23.391-15.067-29.522c0.164-4.915,0.388-10.416,0.618-16.078
			c0.537-13.204,1.093-26.857,1.093-37.513c0-7.013-0.374-13.987-1.112-20.763c6.455-65.037-10.927-109.188-46.826-119.815
			c-0.037-0.755,0.338-2.34,0.92-3.504l11.012-16.28l-18.561-9.099c-3.438-1.686-5.414-1.814-12.765-2.292
			c-9.307-0.605-28.673-1.864-45.019-4.901c-10.157-1.892-1.512-6.032-48.196-11.709c-2.872-0.349-16.213-0.395-19.043-0.395
			c0,0,0.776,7.362,0,37.054c1.748,0,13.982-0.971,15.781-0.808c10.61,0.967,14.121,2.271,19.434,4.246
			c5.449,2.024,12.231,4.544,25.44,7.005c11.933,2.217,24.849,3.566,35.19,4.418c0.949,9.744,5.68,19.785,16.886,27.477l3.065,2.104
			l3.648,0.718c21.611,4.249,27.138,45.245,23.027,83.99l-0.216,2.028l0.244,2.025c0.723,5.991,1.089,12.215,1.089,18.501
			c0,9.924-0.54,23.206-1.063,36.05c-0.465,11.448-0.905,22.261-0.905,29.658v19.111l14.96-0.896
			c0.173,0.583,0.333,1.264,0.448,2.022c-0.224,14.372-5.184,24.716-15.143,31.599c-7.821,5.406-16.306,6.987-18.3,7.297h-11.191
			l-4.532,11.299c-8.822,21.994-29.919,44.937-46.721,59.073l-6.411,5.395v38.666c0,24.026,21.777,54.494,56.827,79.511
			c20.706,14.789,61.962,28.886,105.641,43.811c27.934,9.545,56.809,19.411,75.831,28.277c13.809,7.971,15.777,36.52,14.271,57.723
			h-73.573l-2,36h107.5l3.152-24.729C977.211,831.974,979.399,775.228,941.895,754.909z"/>
	</g>
</g>
</svg>
