<?xml version="1.0" encoding="utf-8"?>
<!-- Generator: Adobe Illustrator 15.0.0, SVG Export Plug-In . SVG Version: 6.00 Build 0)  -->
<!DOCTYPE svg PUBLIC "-//W3C//DTD SVG 1.1//EN" "http://www.w3.org/Graphics/SVG/1.1/DTD/svg11.dtd">
<svg version="1.1" id="图形" xmlns="http://www.w3.org/2000/svg" xmlns:xlink="http://www.w3.org/1999/xlink" x="0px" y="0px"
	 width="1000.637px" height="1000.678px" viewBox="15.167 -16.333 1000.637 1000.678"
	 enable-background="new 15.167 -16.333 1000.637 1000.678" xml:space="preserve">
<g>
	<path fill="none" d="M657.621,463.822c29.697,25.926,47.448,64.476,47.448,64.476s28.18-0.106,63.197-41.301
		C887.569,346.609,1021.78,150.055,964.579,101.42c-49.25-41.841-231.061,115.335-346.636,251.335
		c-44.802,52.708-29.532,73.719-29.532,73.719S629.004,438.858,657.621,463.822z M647.566,366.116
		c113.651-133.73,267.416-247.999,288.082-230.444c24.393,20.726-41.617,153.75-180.638,320.725
		c-9.122,10.972-27.264,25.715-36.131,30.675c-7.874-11.302-30.493-37.964-42.473-48.424c-11.091-9.665-40.849-26.497-52.571-32.539
		C628.825,397.663,625.683,391.877,647.566,366.116z M881.842,593.104H752.395l-10.986,30.78h125.029
		c8.506,0,15.404,6.898,15.404,15.391v185.011c0,8.491-6.898,15.389-15.404,15.389H96.953c-8.492,0-15.39-6.897-15.39-15.389
		V575.158c0,0,26.407,27.429,68.609,39.092c14.067,3.877,25.114,6.793,33.846,9.002h189.955v-30.148H199.106
		c-16.262-1.729-44.997-8.747-78.753-34.643c-33.846-25.97-69.57-71.794-69.57-71.794v353.007c0,16.999,13.782,30.78,30.78,30.78
		h800.28c16.998,0,30.78-13.781,30.78-30.78v-215.79C912.623,606.886,898.84,593.104,881.842,593.104z M393.045,776.341l4.719-1.938
		l1.218,2.75h322.228l-14.429-29.817H463.848l164.135-67.241l60.688-103.236c0,0,1.744-42.938-55.037-91.198
		c-51.385-43.675-94.534-38.716-94.534-38.716l-100.23,78.213l-48.95,222.179h-4.088l4.343,9.858L393.045,776.341z M469.124,546.108
		l79.806-65.934c0,0,29.607,1.082,60.327,27.188c35.229,29.938,41.12,59.848,41.12,59.848L597.579,655.1l-152.487,65.001
		l75.643-89.003c15.57,8.191,35.273,4.689,46.951-9.408c13.392-16.172,11.138-40.144-5.035-53.52
		c-16.156-13.392-40.128-11.151-53.519,5.02c-11.573,13.978-11.408,33.756-0.737,47.523l-79.384,93.422L469.124,546.108z
		 M520.192,583.004c8.297-10.009,23.116-11.407,33.125-3.126c10.01,8.297,11.407,23.13,3.127,33.125
		c-8.297,10.009-23.131,11.407-33.125,3.126C513.309,607.832,511.896,592.999,520.192,583.004z"/>
</g>
</svg>
