<?xml version="1.0" encoding="utf-8"?>
<!-- Generator: Adobe Illustrator 15.0.0, SVG Export Plug-In . SVG Version: 6.00 Build 0)  -->
<!DOCTYPE svg PUBLIC "-//W3C//DTD SVG 1.1//EN" "http://www.w3.org/Graphics/SVG/1.1/DTD/svg11.dtd">
<svg version="1.1" id="图形" xmlns="http://www.w3.org/2000/svg" xmlns:xlink="http://www.w3.org/1999/xlink" x="0px" y="0px"
	 width="1000.637px" height="1000.678px" viewBox="15.167 -16.333 1000.637 1000.678"
	 enable-background="new 15.167 -16.333 1000.637 1000.678" xml:space="preserve">
<g>
	<path fill="none" d="M425.854,132.665h-253.09v251.789h253.09V132.665z M388.764,348.454H209.098V168.613h179.666V348.454z
		 M586.624,727.298h270.141v-35.842H586.624V727.298z M353.274,204.7H245.327v109.23h107.947V204.7z M604.764,132.665v252.914
		h253.107V132.665H604.764z M820.764,349.017H641.098V168.613h179.666V349.017z M857.327,619.456H731.204v35.824h126.123V619.456z
		 M677.344,438.859H515.397v72.404h161.947V438.859z M425.292,421.421H173.327v35.824h251.965V421.421z M569.186,133.316h-35.842
		v161.947h35.842V133.316z M857.327,547.404H515.151v35.262h342.176V547.404z M461.362,402.718h35.824V133.333h-35.824V402.718z
		 M533.186,654.929h-35.824v126.404h-0.158v36.387h0.158v0.158h35.824v-0.158h125.842v-36.387H533.186V654.929z M786.399,204.138
		H677.327v109.23h109.072V204.138z M857.327,402.296H749.204v36.949h71.209v71.227h36.949V402.331h-0.035V402.296z M784.729,816.753
		h72.633V744.63h-72.633V816.753z M245.327,745.368h107.947V637.263H245.327V745.368z M335.502,528.876h125.402v-35.842H335.502
		V528.876z M172.764,817.579h252.527V564.665H172.764V817.579z M209.098,600.613h179.666v180.404H209.098V600.613z M280.905,528.876
		v-35.842H173.502v35.842H280.905z"/>
</g>
</svg>
