<?xml version="1.0" encoding="utf-8"?>
<!-- Generator: Adobe Illustrator 15.0.0, SVG Export Plug-In . SVG Version: 6.00 Build 0)  -->
<!DOCTYPE svg PUBLIC "-//W3C//DTD SVG 1.1//EN" "http://www.w3.org/Graphics/SVG/1.1/DTD/svg11.dtd">
<svg version="1.1" id="图形" xmlns="http://www.w3.org/2000/svg" xmlns:xlink="http://www.w3.org/1999/xlink" x="0px" y="0px"
	 width="1000.637px" height="1000.678px" viewBox="0 0 1000.637 1000.678" enable-background="new 0 0 1000.637 1000.678"
	 xml:space="preserve">
<g>
	<path fill="none" d="M515.397,266.954c-44.771,0-81.088,36.316-81.088,81.105c0,44.771,36.315,81.07,81.088,81.07
		c44.789,0,81.105-36.299,81.105-81.07C596.502,303.27,560.186,266.954,515.397,266.954z M515.608,408.001
		c-32.994,0-59.748-26.754-59.748-59.766c0-32.994,26.754-59.73,59.748-59.73s59.748,26.736,59.748,59.73
		C575.356,381.247,548.602,408.001,515.608,408.001z M828.99,371.404c0.054-2.04,0.229-4.044,0.229-6.083
		c0-173.268-140.467-313.734-313.734-313.734c-173.267,0-313.734,140.466-313.734,313.734c0,29.426,4.342,57.797,11.936,84.797
		c0.387,1.195,0.722,2.391,1.144,3.567c9.491,26.931,20.987,51.171,29.354,67.483c9.422,16.471,19.758,32.361,31.976,46.758
		l238.323,366.101l233.262-358.33c14.748-16.26,27.65-34.138,38.777-53.191c4.219-7.383,8.596-15.662,12.867-24.434
		c0.967-2.021,2.057-3.974,2.953-6.029c2.479-5.272,4.887-10.705,7.172-16.295c3.428-8.438,6.17-17.051,8.401-25.594l0,0
		c2.408-8.597,3.727-17.367,5.449-26.209C828.163,393.447,828.99,371.404,828.99,371.404 M778.225,459.997L778.225,459.997
		l-10.424,25.066c-11.304,23.801-25.806,45.703-43.066,65.215L515.045,867.74L301.436,544.355
		c-13.061-15.628-24.293-32.783-33.715-51.048l-14.396-33.311l0,0c-10.636-29.531-16.734-61.225-16.734-94.43
		c0-154.195,124.998-279.176,279.176-279.176c154.195,0,279.193,124.98,279.193,279.176
		C794.959,398.772,788.86,430.466,778.225,459.997z"/>
</g>
</svg>
