<?xml version="1.0" encoding="utf-8"?>
<!-- Generator: Adobe Illustrator 15.0.0, SVG Export Plug-In . SVG Version: 6.00 Build 0)  -->
<!DOCTYPE svg PUBLIC "-//W3C//DTD SVG 1.1//EN" "http://www.w3.org/Graphics/SVG/1.1/DTD/svg11.dtd">
<svg version="1.1" id="图形" xmlns="http://www.w3.org/2000/svg" xmlns:xlink="http://www.w3.org/1999/xlink" x="0px" y="0px"
	 width="1000.637px" height="1000.678px" viewBox="15.167 -16.333 1000.637 1000.678"
	 enable-background="new 15.167 -16.333 1000.637 1000.678" xml:space="preserve">
<g>
	<path fill="none" d="M133.367,307.737c-38.971,0-70.541,31.588-70.541,70.541v200.198c0,38.971,31.57,70.559,70.541,70.559h120.006
		l385.4,255.463V57.003L261.001,307.737H133.367z M273.218,343.807L602.843,127.28v712.407L273.218,615.759v-0.756H214.49v-0.246
		h-79.594c-19.881,0-36-16.119-36-36v-200.25c0-19.881,16.119-36,36-36h107.877v1.371h30.445V343.807z M729.054,296.1l-0.299,45.193
		c41.959,32.221,71.367,82.758,71.367,139.747c0,56.988-29.408,107.525-71.367,139.764l0.299,47.795
		c61.646-39.129,107.209-107.824,107.209-186.258C836.263,403.907,790.701,335.229,729.054,296.1z M800.773,183.6v47.637
		c74.338,57.129,122.467,146.689,122.467,247.711c0,101.004-48.129,190.564-122.467,247.693v48.621
		c97.928-62.139,163.125-171.246,163.125-295.822C963.898,354.864,898.701,245.757,800.773,183.6z"/>
</g>
</svg>
