<?xml version="1.0" encoding="utf-8"?>
<!-- Generator: Adobe Illustrator 15.0.0, SVG Export Plug-In . SVG Version: 6.00 Build 0)  -->
<!DOCTYPE svg PUBLIC "-//W3C//DTD SVG 1.1//EN" "http://www.w3.org/Graphics/SVG/1.1/DTD/svg11.dtd">
<svg version="1.1" id="图形" xmlns="http://www.w3.org/2000/svg" xmlns:xlink="http://www.w3.org/1999/xlink" x="0px" y="0px"
	 width="1000.637px" height="1000.678px" viewBox="15.167 -16.333 1000.637 1000.678"
	 enable-background="new 15.167 -16.333 1000.637 1000.678" xml:space="preserve">
<g>
	<path fill="none" d="M805.845,793.527c0,9.949-8.068,18.018-18,18.018H156.72c-9.949,0-18-8.068-18-18.018V271.544
		c0-9.949,8.051-18,18-18h162.316v-36H139.845c-19.881,0-36,16.102-36,36v558c0,19.881,16.119,35.982,36,35.982H804.72
		c19.881,0,36-16.102,36-35.982v-216h-34.875V793.527z M926.167,228.249l0.176-0.334l-7.857-4.289l-22.395-13.465l-0.58,0.932
		l-174.41-95.203l-17.227,32.256l146.654,79.137c-224.508,26.666-397.951,185.291-397.951,417.885
		c0,10.793,0.879,21.357,1.617,31.975l41.221-0.018c-0.844-10.793-1.652-21.586-1.652-32.607
		c0-213.61,160.629-355.254,367.559-377.965l-87.627,142.172l31.061,19.318l103.447-169.646l0.949,0.51l12.814-23.098l4.5-7.383
		L926.167,228.249z"/>
</g>
</svg>
