<?xml version="1.0" encoding="utf-8"?>
<!-- Generator: Adobe Illustrator 16.0.0, SVG Export Plug-In . SVG Version: 6.00 Build 0)  -->
<!DOCTYPE svg PUBLIC "-//W3C//DTD SVG 1.1//EN" "http://www.w3.org/Graphics/SVG/1.1/DTD/svg11.dtd">
<svg version="1.1" id="图形" xmlns="http://www.w3.org/2000/svg" xmlns:xlink="http://www.w3.org/1999/xlink" x="0px" y="0px"
	 width="1000.637px" height="1000.678px" viewBox="0 0 1000.637 1000.678" enable-background="new 0 0 1000.637 1000.678"
	 xml:space="preserve">
<g>
	<path fill="none" d="M598.485,366.944h-36v342h36V366.944z M670.485,188.455v-90c0-19.881-16.119-36-36-36h-288
		c-19.882,0-36,16.119-36,36v90h-252v34.488h144v630c0,19.897,16.119,36,36,36h504c19.881,0,36-16.103,36-36v-630h144v-34.488
		H670.485L670.485,188.455z M346.485,116.033c0-9.949,8.051-18,18-18h252.86c9.933,0,18,8.051,18,18v72.422h-288.86V116.033z
		 M742.485,834.944c0,9.948-8.068,18-18,18h-468c-9.949,0-18-8.052-18-18v-612h504V834.944z M418.485,366.944h-36v342h36V366.944z"
		/>
</g>
</svg>
