<?xml version="1.0" encoding="utf-8"?>
<!-- Generator: Adobe Illustrator 15.0.0, SVG Export Plug-In . SVG Version: 6.00 Build 0)  -->
<!DOCTYPE svg PUBLIC "-//W3C//DTD SVG 1.1//EN" "http://www.w3.org/Graphics/SVG/1.1/DTD/svg11.dtd">
<svg version="1.1" id="图形" xmlns="http://www.w3.org/2000/svg" xmlns:xlink="http://www.w3.org/1999/xlink" x="0px" y="0px"
	 width="1000.637px" height="1000.678px" viewBox="15.167 -16.333 1000.637 1000.678"
	 enable-background="new 15.167 -16.333 1000.637 1000.678" xml:space="preserve">
<g>
	<path fill="none" d="M156.918,482.553l-0.246,46.653c31.887,24.521,52.559,73.055,52.559,116.385
		c0,43.313-15.785,93.375-52.559,121.623l0.246,41.906c54.053-34.295,89.473-94.518,89.473-163.283
		C246.391,577.089,210.971,516.866,156.918,482.553z M579.55,52.294c-142.401,0-260.966,100.441-289.618,234.299h-0.422
		c0,0-4.5,15.662-4.5,31.5c0,91.02,67.5,111.938,67.5,111.938l0.457-1.248c4.975,1.371,10.459,0.967,15.346-1.705
		c9.967-5.432,13.641-17.93,8.191-27.896c-2.232-4.096-5.801-6.803-9.756-8.596l0.387-1.055c0,0-45-5.73-45-66.938
		c0-10.459,1.951-22.693,3.287-29.865l1.037-0.457C352.211,176.237,455.571,89.401,579.357,89.401
		c143.191,0,259.242,116.051,259.242,259.225c0,48.34-13.412,93.428-36.475,132.117c-7.084,15.24-21.252,46.635-32.818,77.907
		c-12.006,32.414-25.295,75.885-31.061,95.115c-2.232,7.945-4.465,16.102-6.662,24.539c-2.092,8.051-4.201,15.504-6.293,22.957
		c-2.514,11.268-5.889,25.576-9.861,40.43c-7.963,29.777-21.375,59.098-28.195,73.055c-2.092,5.168-3.639,8.789-4.324,10.336
		c-18.545,33.223-54,55.705-94.764,55.705c-34.453,0-65.074-13.324-84.322-36.193h1.688c0,0-4.834-4.201-10.161-12.023
		c-8.789-14.924-13.465-32.783-12.34-52.98c0.826-14.959,6.381-29.83,14.572-43.734c0.018,0,0.018-0.018,0.018-0.018
		c2.708-4.588,5.713-9.07,8.913-13.412l0.369-0.475c12.955-17.385,29.285-32.572,44.227-43.418
		c-0.369,0.088-0.721,0.211-1.107,0.299c14.906-11.813,30.48-22.588,45.51-33.908c1.002-0.053,1.969-0.211,2.971-0.281
		c10.811-9.404,33.557-29.883,45.738-45.299c-0.158,0.035-0.316,0.105-0.475,0.141c4.078-5.273,7.998-10.758,11.479-16.752
		c16.365-28.107,26.438-52.541,32.66-73.248c5.238-14.028,8.279-29.11,8.684-44.86c1.6-22.201-2.057-34.031-2.057-34.031h-1.178
		c-13.869-62.104-69.223-108.563-135.51-108.563c-45,0-84.885,21.48-110.233,54.703l0.668,0.563
		c-2.742,3.393-4.623,7.523-4.623,12.234c0,10.863,8.807,19.688,19.688,19.688c6.047,0,11.268-2.883,14.872-7.172l0.387,0.316
		c17.912-26.473,48.235-43.893,82.618-43.893c45.369,0,83.602,30.34,95.66,71.824l0.861-0.105l-0.369,1.986
		c2.232,8.297,3.533,16.98,3.533,25.98c0,19.283-5.801,37.09-15.293,52.331l1.67-0.018c0,0-5.924,32.484-38.514,71.982
		c-3.146,3.814-6.592,7.611-10.178,11.338c0.088-0.018,0.176-0.035,0.246-0.053c-0.984,1.002-2.074,1.951-3.076,2.936
		c-20.25,20.408-44.613,38.426-55.371,46.02c0.229,0.035,0.439,0.088,0.668,0.123c-27.527,21.621-54.897,44.35-74.004,75.621
		c-16.594,27.176-21.094,52.945-20.672,74.109c-0.035,0.896-0.141,1.775-0.141,2.689c0,13.342,2.637,26.139,7.348,38.145
		c2.496,7.119,4.693,11.215,4.693,11.215h0.439c22.342,42.328,72.388,71.859,130.677,71.859c66.656,0,122.484-38.619,138.445-90.826
		l1.16-0.018c0,0,14.871-41.502,38.9-136.002c25.014-98.402,54.492-165.639,61.875-181.758
		c29.268-45.967,46.441-100.389,46.441-158.907C876.199,185.096,743.378,52.294,579.55,52.294z M210.708,378.315v49.781
		c67.781,52.102,107.068,130.202,107.068,218.409S275.606,815.73,210.69,865.616l0.018,52.102
		c89.262-56.654,143.666-157.254,143.666-270.826S299.969,434.987,210.708,378.315z"/>
</g>
</svg>
