<?xml version="1.0" encoding="utf-8"?>
<!-- Generator: Adobe Illustrator 15.0.0, SVG Export Plug-In . SVG Version: 6.00 Build 0)  -->
<!DOCTYPE svg PUBLIC "-//W3C//DTD SVG 1.1//EN" "http://www.w3.org/Graphics/SVG/1.1/DTD/svg11.dtd">
<svg version="1.1" id="图形" xmlns="http://www.w3.org/2000/svg" xmlns:xlink="http://www.w3.org/1999/xlink" x="0px" y="0px"
	 width="1000.637px" height="1000.678px" viewBox="15.167 -16.333 1000.637 1000.678"
	 enable-background="new 15.167 -16.333 1000.637 1000.678" xml:space="preserve">
<g>
	<path d="M515.167-6.333c66.154,0,130.324,12.954,190.728,38.502c58.348,24.679,110.751,60.011,155.755,105.015
		s80.336,97.408,105.015,155.755c25.549,60.403,38.503,124.573,38.503,190.727s-12.954,130.324-38.503,190.727
		c-24.679,58.348-60.011,110.752-105.015,155.756s-97.407,80.336-155.755,105.015c-60.403,25.549-124.573,38.503-190.728,38.503
		c-66.154,0-130.324-12.954-190.727-38.503c-58.348-24.679-110.751-60.011-155.755-105.015S88.348,732.741,63.669,674.394
		C38.121,613.99,25.167,549.821,25.167,483.667S38.121,353.343,63.669,292.94c24.679-58.348,60.011-110.751,105.015-155.755
		s97.408-80.336,155.755-105.015C384.843,6.621,449.013-6.333,515.167-6.333 M515.167-16.333c-276.143,0-500,223.857-500,500
		c0,276.143,223.857,500,500,500s500-223.857,500-500C1015.167,207.524,791.309-16.333,515.167-16.333L515.167-16.333z"/>
</g>
</svg>
