<?xml version="1.0" encoding="utf-8"?>
<!-- Generator: Adobe Illustrator 15.0.0, SVG Export Plug-In . SVG Version: 6.00 Build 0)  -->
<!DOCTYPE svg PUBLIC "-//W3C//DTD SVG 1.1//EN" "http://www.w3.org/Graphics/SVG/1.1/DTD/svg11.dtd">
<svg version="1.1" id="图形" xmlns="http://www.w3.org/2000/svg" xmlns:xlink="http://www.w3.org/1999/xlink" x="0px" y="0px"
	 width="1000.637px" height="1000.678px" viewBox="15.167 -16.333 1000.637 1000.678"
	 enable-background="new 15.167 -16.333 1000.637 1000.678" xml:space="preserve">
<g>
	<path d="M905.167,3.667c49.626,0,90,40.374,90,90v780c0,49.626-40.374,90-90,90h-780c-49.626,0-90-40.374-90-90v-780
		c0-49.626,40.374-90,90-90H905.167 M905.167-16.333h-780c-60.752,0-110,49.248-110,110v780c0,60.752,49.248,110,110,110h780
		c60.752,0,110-49.248,110-110v-780C1015.167,32.915,965.918-16.333,905.167-16.333L905.167-16.333z"/>
</g>
</svg>
