<?xml version="1.0" encoding="utf-8"?>
<!-- Generator: Adobe Illustrator 15.0.0, SVG Export Plug-In . SVG Version: 6.00 Build 0)  -->
<!DOCTYPE svg PUBLIC "-//W3C//DTD SVG 1.1//EN" "http://www.w3.org/Graphics/SVG/1.1/DTD/svg11.dtd">
<svg version="1.1" id="图形" xmlns="http://www.w3.org/2000/svg" xmlns:xlink="http://www.w3.org/1999/xlink" x="0px" y="0px"
	 width="1000.637px" height="1000.678px" viewBox="15.167 -16.333 1000.637 1000.678"
	 enable-background="new 15.167 -16.333 1000.637 1000.678" xml:space="preserve">
<g>
	<path fill="none" d="M753.803,273.764c-7.499,0-14.887,0.458-22.212,1.123c-40.563-77.646-121.705-130.723-215.378-130.723
		c-130.707,0-237.004,103.275-242.478,232.638c-15.567-4.002-31.799-6.344-48.616-6.344c-107.926,0-195.413,87.486-195.413,195.412
		c0,100.712,76.19,183.547,174.071,194.194v0.205h1.329c6.581,0.665,13.257,1.013,20.013,1.013c6.502,0,12.909-0.396,19.253-1.013
		h126.04V727.87H242.585c-5.854,0.633-11.786,1.013-17.813,1.013s-11.96-0.38-17.813-1.013h-3.18v-0.49
		c-80.272-10.331-142.351-78.77-142.351-161.858c0-90.207,73.137-163.344,163.345-163.344c30.644,0,59.215,8.59,83.721,23.271
		c-2.231-12.229-3.56-24.759-3.56-37.621c0-115.552,93.688-209.24,209.255-209.24c88.594,0,164.151,55.15,194.669,132.907
		c14.175-3.006,28.856-4.667,43.933-4.667c116.137,0,210.268,94.146,210.268,210.268c0,102.847-73.881,188.309-171.444,206.533v4.24
		h-97.2v32.399h64.8v-0.774c131.688-2.911,237.59-110.347,237.59-242.73C996.803,382.561,888.023,273.764,753.803,273.764z
		 M532.145,414.755l-0.253,0.253l-0.237-0.253L348.487,597.938l22.734,22.734l145.135-145.12v348.79h31.53V475.98l144.692,144.692
		l22.75-22.734L532.145,414.755z"/>
</g>
</svg>
