<?xml version="1.0" encoding="utf-8"?>
<!-- Generator: Adobe Illustrator 15.0.0, SVG Export Plug-In . SVG Version: 6.00 Build 0)  -->
<!DOCTYPE svg PUBLIC "-//W3C//DTD SVG 1.1//EN" "http://www.w3.org/Graphics/SVG/1.1/DTD/svg11.dtd">
<svg version="1.1" id="图形" xmlns="http://www.w3.org/2000/svg" xmlns:xlink="http://www.w3.org/1999/xlink" x="0px" y="0px"
	 width="1000.637px" height="1000.678px" viewBox="15.167 -16.333 1000.637 1000.678"
	 enable-background="new 15.167 -16.333 1000.637 1000.678" xml:space="preserve">
<g>
	<path fill="none" d="M911.517,337.667c-0.047-4.544-1.792-9.073-5.252-12.542L780.388,180.747
		c-4.142-4.152-9.802-5.832-15.188-5.08H353.679c-29.83,0-54,24.17-54,54v648c0,29.82,24.17,54,54,54h504c29.813,0,54-24.18,54-54
		v-540H911.517z M767.679,220.764l101.928,116.902h-83.928c-9.949,0-18-8.06-18-18V220.764z M875.679,877.667
		c0,9.939-8.068,18-18,18h-504c-9.949,0-18-8.061-18-18v-648c0-9.94,8.051-18,18-18h378v108c0,29.821,24.17,54,54,54h90V877.667z
		 M155.679,697.667v-612c0-9.94,8.051-18,18-18h414c9.932,0,18,8.06,18,18v54h36v-54c0-29.83-24.188-54-54-54h-414
		c-29.83,0-54,24.17-54,54v612c0,29.82,24.17,54,54,54h90v-36h-90C163.73,715.667,155.679,707.607,155.679,697.667z
		 M623.679,445.667h-36v90h-90v36h90v90h36v-90h90v-36h-90V445.667z"/>
</g>
</svg>
