<?xml version="1.0" encoding="utf-8"?>
<!-- Generator: Adobe Illustrator 15.0.0, SVG Export Plug-In . SVG Version: 6.00 Build 0)  -->
<!DOCTYPE svg PUBLIC "-//W3C//DTD SVG 1.1//EN" "http://www.w3.org/Graphics/SVG/1.1/DTD/svg11.dtd">
<svg version="1.1" id="图形" xmlns="http://www.w3.org/2000/svg" xmlns:xlink="http://www.w3.org/1999/xlink" x="0px" y="0px"
	 width="1000.637px" height="1000.678px" viewBox="15.167 -16.333 1000.637 1000.678"
	 enable-background="new 15.167 -16.333 1000.637 1000.678" xml:space="preserve">
<g>
	<path fill="none" d="M749.171,305.984c-7.332,0-14.557,0.449-21.719,1.099c-39.662-75.92-119-127.818-210.591-127.818
		c-127.803,0-231.738,100.98-237.09,227.468c-15.221-3.914-31.092-6.203-47.535-6.203c-105.528,0-191.07,85.542-191.07,191.07
		c0,98.474,74.498,179.469,170.202,189.879v0.201h1.3c6.435,0.649,12.963,0.99,19.568,0.99c6.357,0,12.622-0.387,18.825-0.99
		h503.401v-0.759c128.76-2.846,232.309-107.895,232.309-237.337C986.771,412.347,880.408,305.984,749.171,305.984z M786.142,745.855
		v4.145H249.314c-5.724,0.619-11.524,0.99-17.418,0.99s-11.694-0.371-17.418-0.99h-3.109v-0.479
		C132.88,739.418,72.181,672.501,72.181,591.259c0-88.203,71.512-159.715,159.715-159.715c29.963,0,57.899,8.399,81.861,22.755
		c-2.181-11.958-3.48-24.208-3.48-36.785c0-112.983,91.605-204.589,204.605-204.589c86.626,0,160.503,53.924,190.343,129.953
		c13.859-2.939,28.215-4.563,42.957-4.563c113.557,0,205.596,92.054,205.596,205.595
		C953.777,644.472,881.537,728.034,786.142,745.855z"/>
</g>
</svg>
