<?xml version="1.0" encoding="utf-8"?>
<!-- Generator: Adobe Illustrator 15.0.0, SVG Export Plug-In . SVG Version: 6.00 Build 0)  -->
<!DOCTYPE svg PUBLIC "-//W3C//DTD SVG 1.1//EN" "http://www.w3.org/Graphics/SVG/1.1/DTD/svg11.dtd">
<svg version="1.1" id="图形" xmlns="http://www.w3.org/2000/svg" xmlns:xlink="http://www.w3.org/1999/xlink" x="0px" y="0px"
	 width="1000.637px" height="1000.678px" viewBox="15.167 -16.333 1000.637 1000.678"
	 enable-background="new 15.167 -16.333 1000.637 1000.678" xml:space="preserve">
<g>
	<path fill="none" d="M836.501,156.23H693.626v34.875h126c9.932,0,18,8.051,18,18V822.23c0,9.949-8.068,18-18,18H206.501
		c-9.949,0-18-8.051-18-18V209.105c0-9.949,8.051-18,18-18h127.125V156.23h-144c-19.881,0-36,16.119-36,36v646.875
		c0,19.881,16.119,36,36,36h646.875c19.881,0,36-16.119,36-36V192.23C872.501,172.349,856.382,156.23,836.501,156.23z
		 M512.783,551.948l0.264-0.281l0.281,0.281l203.537-203.537l-25.277-25.26l-160.77,160.77V83.351h-35.033v401.045L334.523,323.152
		l-25.26,25.26L512.783,551.948z"/>
</g>
</svg>
