<?xml version="1.0" encoding="utf-8"?>
<!-- Generator: Adobe Illustrator 15.0.0, SVG Export Plug-In . SVG Version: 6.00 Build 0)  -->
<!DOCTYPE svg PUBLIC "-//W3C//DTD SVG 1.1//EN" "http://www.w3.org/Graphics/SVG/1.1/DTD/svg11.dtd">
<svg version="1.1" id="图形" xmlns="http://www.w3.org/2000/svg" xmlns:xlink="http://www.w3.org/1999/xlink" x="0px" y="0px"
	 width="1000.637px" height="1000.678px" viewBox="15.167 -16.333 1000.637 1000.678"
	 enable-background="new 15.167 -16.333 1000.637 1000.678" xml:space="preserve">
<g>
	<path fill="none" d="M719.732,65.613h-415.09c-38.953,0-70.541,31.588-70.541,70.559V823.3c0,38.953,31.588,70.559,70.541,70.559
		h415.09c38.953,0,70.541-31.605,70.541-70.559V136.171C790.273,97.2,758.685,65.613,719.732,65.613z M755.996,821.771
		c0,19.881-16.119,36-36,36H304.871c-19.881,0-36-16.119-36-36V136.839c0-19.898,16.119-36,36-36h415.125c19.881,0,36,16.102,36,36
		V821.771z M700.273,137.613H323.767c-9.949,0-18,8.051-18,18v558.369c0,9.949,8.051,18,18,18h376.506c9.932,0,18-8.051,18-18
		V155.613C718.273,145.663,710.205,137.613,700.273,137.613z M701.732,698.073c0,9.053-7.313,16.383-16.365,16.383H338.638
		c-9.035,0-16.365-7.33-16.365-16.383V171.345c0-9.035,7.33-16.365,16.365-16.365h346.729c9.053,0,16.365,7.33,16.365,16.365
		V698.073z M511.853,750.052c-24.891,0-45.053,20.162-45.053,45.053c0,24.873,20.162,45.035,45.053,45.035
		c24.873,0,45.035-20.162,45.035-45.035C556.888,770.214,536.726,750.052,511.853,750.052z M511.783,822.404
		c-15.117,0-27.387-12.252-27.387-27.404c0-15.117,12.27-27.387,27.387-27.387c15.135,0,27.387,12.27,27.387,27.387
		C539.169,810.152,526.917,822.404,511.783,822.404z"/>
</g>
</svg>
