<?xml version="1.0" encoding="utf-8"?>
<!-- Generator: Adobe Illustrator 15.0.0, SVG Export Plug-In . SVG Version: 6.00 Build 0)  -->
<!DOCTYPE svg PUBLIC "-//W3C//DTD SVG 1.1//EN" "http://www.w3.org/Graphics/SVG/1.1/DTD/svg11.dtd">
<svg version="1.1" id="图形" xmlns="http://www.w3.org/2000/svg" xmlns:xlink="http://www.w3.org/1999/xlink" x="0px" y="0px"
	 width="1000.637px" height="1000.678px" viewBox="15.167 -16.333 1000.637 1000.678"
	 enable-background="new 15.167 -16.333 1000.637 1000.678" xml:space="preserve">
<g>
	<g>
		<path fill="#CCCCCC" d="M515.485,44.277c-243.008,0-440,196.992-440,440c0,242.988,196.992,439.98,440,439.98
			s440-196.992,440-439.98C955.485,241.269,758.493,44.277,515.485,44.277z M515.485,218.027c30.371,0,55,24.609,55,55
			c0,30.371-24.629,55-55,55s-55-24.629-55-55C460.485,242.636,485.114,218.027,515.485,218.027z M595.485,724.277h-39.98h-80.02
			h-40v-20h40v-300h-40v-20.02h40h80.02v20.02v300h39.98V724.277z"/>
	</g>
</g>
</svg>
