<?xml version="1.0" encoding="utf-8"?>
<!-- Generator: Adobe Illustrator 15.0.0, SVG Export Plug-In . SVG Version: 6.00 Build 0)  -->
<!DOCTYPE svg PUBLIC "-//W3C//DTD SVG 1.1//EN" "http://www.w3.org/Graphics/SVG/1.1/DTD/svg11.dtd">
<svg version="1.1" id="图形" xmlns="http://www.w3.org/2000/svg" xmlns:xlink="http://www.w3.org/1999/xlink" x="0px" y="0px"
	 width="1000.637px" height="1000.678px" viewBox="15.167 -16.333 1000.637 1000.678"
	 enable-background="new 15.167 -16.333 1000.637 1000.678" xml:space="preserve">
<g>
	<path fill="none" d="M904.247,862.837c-1.494-1.494-3.305-2.355-5.045-3.357L727.147,687.425c1.652-1.617,3.463-2.988,5.098-4.623
		c141.029-141.012,141.029-369.65,0-510.645c-141.012-141.012-369.633-141.012-510.645,0
		c-141.012,140.994-141.012,369.633,0,510.645c128.602,128.602,329.889,139.518,471.305,33.539l176.607,176.607
		c0.668,0.896,1.02,1.951,1.846,2.777s1.881,1.178,2.777,1.846l1.107,1.107l0.211-0.229c9.018,5.783,20.936,5.15,28.793-2.725
		C913.334,886.656,913.334,871.925,904.247,862.837z M248.301,656.329c-126.615-126.615-126.615-331.893,0-458.508
		c126.615-126.598,331.893-126.598,458.508,0c126.615,126.615,126.615,331.893,0,458.508S374.917,782.945,248.301,656.329z"/>
</g>
</svg>
