<?xml version="1.0" encoding="utf-8"?>
<!-- Generator: Adobe Illustrator 15.0.0, SVG Export Plug-In . SVG Version: 6.00 Build 0)  -->
<!DOCTYPE svg PUBLIC "-//W3C//DTD SVG 1.1//EN" "http://www.w3.org/Graphics/SVG/1.1/DTD/svg11.dtd">
<svg version="1.1" id="图形" xmlns="http://www.w3.org/2000/svg" xmlns:xlink="http://www.w3.org/1999/xlink" x="0px" y="0px"
	 width="1000.637px" height="1000.678px" viewBox="15.167 -16.333 1000.637 1000.678"
	 enable-background="new 15.167 -16.333 1000.637 1000.678" xml:space="preserve">
<g>
	<path fill="none" d="M892.185,214.006h-468v-36c0-19.881-16.119-36-36-36h-252c-19.881,0-36,16.119-36,36v612
		c0,19.881,16.119,36,36,36h756c19.881,0,36-16.119,36-36v-540C928.185,230.125,912.066,214.006,892.185,214.006z M163.678,176.617
		h196.805c15.539,0,28.125,12.586,28.125,28.107v45.281h485.578c9.932,0,18,8.051,18,18v18H135.553v-81.281
		C135.553,189.203,148.156,176.617,163.678,176.617z M874.185,790.005h-720c-9.949,0-18-8.051-18-18V337.369
		c-0.404-1.898-0.633-3.85-0.633-5.871v-10.617h756.632v451.125C892.185,781.954,884.117,790.005,874.185,790.005z"/>
</g>
</svg>
