<?xml version="1.0" encoding="utf-8"?>
<!-- Generator: Adobe Illustrator 15.0.0, SVG Export Plug-In . SVG Version: 6.00 Build 0)  -->
<!DOCTYPE svg PUBLIC "-//W3C//DTD SVG 1.1//EN" "http://www.w3.org/Graphics/SVG/1.1/DTD/svg11.dtd">
<svg version="1.1" id="图形" xmlns="http://www.w3.org/2000/svg" xmlns:xlink="http://www.w3.org/1999/xlink" x="0px" y="0px"
	 width="1000.637px" height="1000.678px" viewBox="15.167 -16.333 1000.637 1000.678"
	 enable-background="new 15.167 -16.333 1000.637 1000.678" xml:space="preserve">
<g>
	<path fill="none" d="M514.716,49.753c-238.904,0-432.563,193.658-432.563,432.563c0,238.887,193.658,432.563,432.563,432.563
		s432.563-193.676,432.563-432.563C947.279,243.411,753.621,49.753,514.716,49.753z M514.277,877.437
		c-217.916,0-394.559-176.66-394.559-394.559c0-217.916,176.643-394.576,394.559-394.576s394.559,176.66,394.559,394.576
		C908.835,700.777,732.193,877.437,514.277,877.437z M531.925,249.581h-36v215.367H280.382v35.983h215.543v215.982h36V500.931
		h215.227v-35.983H531.925V249.581z"/>
</g>
</svg>
