<?xml version="1.0" encoding="utf-8"?>
<!-- Generator: Adobe Illustrator 15.0.0, SVG Export Plug-In . SVG Version: 6.00 Build 0)  -->
<!DOCTYPE svg PUBLIC "-//W3C//DTD SVG 1.1//EN" "http://www.w3.org/Graphics/SVG/1.1/DTD/svg11.dtd">
<svg version="1.1" id="图形" xmlns="http://www.w3.org/2000/svg" xmlns:xlink="http://www.w3.org/1999/xlink" x="0px" y="0px"
	 width="1000.637px" height="1000.678px" viewBox="15.167 -16.333 1000.637 1000.678"
	 enable-background="new 15.167 -16.333 1000.637 1000.678" xml:space="preserve">
<g>
	<path fill="none" d="M479.846,317.248c-96.906,0-174.091,75.563-174.091,172.455c0,96.904,77.186,175.998,174.091,175.998
		c96.892,0,174.362-79.094,174.362-175.998C654.208,392.81,576.738,317.248,479.846,317.248z M479.561,634.976
		c-78.481,0-143.151-67.703-143.151-146.129c0-78.41,64.67-140.945,143.151-140.945c78.511,0,143.878,62.535,143.878,140.945
		C623.439,567.273,558.072,634.976,479.561,634.976z M756.054,700.529c-59.672,0-103.27-29.16-103.27-29.16
		c-8.06,0-14.58,6.535-14.58,14.58c0,8.059,6.521,14.58,14.58,14.58c0,0,43.598,29.174,103.27,29.174
		c33.816,0,80.262-58.334,116.641-58.334c58.42,0,100.85,29.16,100.85,29.16c8.045,0,14.566-6.521,14.566-14.58
		c0-8.045-6.521-14.58-14.566-14.58c0,0-43.014-29.16-102.06-29.16C835.875,642.208,790.383,700.529,756.054,700.529z
		 M72.233,777.101V249.972c0-11.22,9.084-20.318,20.318-20.318H287.43v-0.94h47.015v-52.938c0-11.02,8.941-19.962,19.976-19.962
		h251.832c11.049,0,19.991,8.942,19.991,19.962v52.938h82.312v0.94h159.54c11.22,0,20.304,9.098,20.304,20.318v329.061h29.473
		v-339.64c0-22.069-17.883-39.953-39.952-39.953H655.261v-32.648c0-22.055-17.896-39.953-39.952-39.953H345.224
		c-22.055,0-39.938,17.897-39.938,39.953v32.648H82.797c-22.055,0-39.938,17.883-39.938,39.953v547.548
		c0,22.055,17.883,39.953,39.938,39.953h514.087v-29.475H92.551C81.317,797.419,72.233,788.322,72.233,777.101z M973.544,773.429
		c0,0-43.014-29.146-102.06-29.146c-35.61,0-81.102,58.305-115.431,58.305c-59.672,0-103.27-29.158-103.27-29.158
		c-8.06,0-14.58,6.52-14.58,14.578c0,8.061,6.521,14.58,14.58,14.58c0,0,43.598,29.16,103.27,29.16
		c33.816,0,80.262-58.318,116.641-58.318c58.42,0,100.85,29.158,100.85,29.158c8.045,0,14.566-6.52,14.566-14.58
		C988.111,779.948,981.589,773.429,973.544,773.429z"/>
</g>
</svg>
