<?xml version="1.0" encoding="utf-8"?>
<!-- Generator: Adobe Illustrator 15.0.0, SVG Export Plug-In . SVG Version: 6.00 Build 0)  -->
<!DOCTYPE svg PUBLIC "-//W3C//DTD SVG 1.1//EN" "http://www.w3.org/Graphics/SVG/1.1/DTD/svg11.dtd">
<svg version="1.1" id="图形" xmlns="http://www.w3.org/2000/svg" xmlns:xlink="http://www.w3.org/1999/xlink" x="0px" y="0px"
	 width="1000.637px" height="1000.678px" viewBox="15.167 -16.333 1000.637 1000.678"
	 enable-background="new 15.167 -16.333 1000.637 1000.678" xml:space="preserve">
<g>
	<path fill="none" d="M868.058,80.562H162.912c-38.953,0-70.541,31.588-70.541,70.55v469.063c0,38.971,31.588,70.559,70.541,70.559
		h109.441v167.238l146.524-167.238h449.181c38.971,0,70.541-31.588,70.541-70.559V151.112
		C938.599,112.15,907.029,80.562,868.058,80.562z M902.529,619.964c0,19.881-16.119,36-36,36H399.982l-92.614,99.035v-99.035H163.58
		c-19.863,0-36-16.119-36-36V150.839c0-19.881,16.137-36,36-36h702.949c19.881,0,36,16.119,36,36V619.964z"/>
</g>
</svg>
