<?xml version="1.0" encoding="utf-8"?>
<!-- Generator: Adobe Illustrator 15.0.0, SVG Export Plug-In . SVG Version: 6.00 Build 0)  -->
<!DOCTYPE svg PUBLIC "-//W3C//DTD SVG 1.1//EN" "http://www.w3.org/Graphics/SVG/1.1/DTD/svg11.dtd">
<svg version="1.1" id="图形" xmlns="http://www.w3.org/2000/svg" xmlns:xlink="http://www.w3.org/1999/xlink" x="0px" y="0px"
	 width="1000.637px" height="1000.678px" viewBox="15.167 -16.333 1000.637 1000.678"
	 enable-background="new 15.167 -16.333 1000.637 1000.678" xml:space="preserve">
<g opacity="0.5">
	<g>
		<path fill="#231815" d="M644.413,491.525c7.927-1.957,18.445-5.649,28.914-12.32c17.729-11.298,38.861-33.526,38.861-75.26v-0.908
			l-0.092-0.903c-1.578-15.609-8.631-28.095-18.699-34.732c0.206-6.656,0.516-14.307,0.837-22.208
			c0.66-16.278,1.343-33.111,1.343-46.198c0-7.824-0.481-15.839-1.509-25.072c2.396-23.479,3.323-56.897-5.029-86.618
			c-10.95-38.966-32.946-53.376-51.084-58.335c-1.554-1.792-2.784-4.918,0.076-10.134l10.951-16.64l-18.656-8.877
			c-3.407-1.621-5.188-1.736-13.748-2.291c-11.615-0.751-35.783-2.315-56.388-6.14c-12.911-2.398-18.94-4.638-24.771-6.804
			c-8.189-3.042-15.925-5.915-34.381-7.593c-3.441-0.313-6.897-0.472-10.273-0.472c-46.534,0-79.677,30.38-96.646,61.019
			c-45.672,19.127-66.732,77.273-59.491,165.106c-0.408,6.044-0.598,11.272-0.598,16.35c0,12.673-0.073,25.894-0.144,38.679
			c-0.032,5.807-0.063,11.444-0.086,16.751c-8.84,5.208-16.083,15.328-17.769,32.258l-0.089,0.89v0.895
			c0,63.414,44.685,85.13,71.508,90.254c11.716,24.469,30.14,48.488,53.016,69.068v31.233c0,15.066-11.764,56.142-40.884,68.38
			c-34.259,14.401-72.264,27.133-109.017,39.444c-44.649,14.956-86.822,29.083-121.207,45.576
			c-55.914,26.832-52.347,80.089-52.167,82.343l1.317,16.573h584.186l0.25-36H155.927c3.568-9.865,11.494-22.056,29.003-30.458
			c32.367-15.525,73.51-29.308,117.069-43.898c37.381-12.522,76.035-25.471,111.532-40.394c20.63-8.669,37.709-25.808,49.391-49.562
			c9.986-20.305,13.543-40.178,13.543-52.005v-47.806l-6.41-5.395c-24.628-20.726-43.663-45.766-53.598-70.507l-4.49-11.292h-12.169
			c-2.754-0.049-15.312-1.739-26.441-9.107c-14.197-9.401-21.207-24.287-21.411-45.487c0.185-1.446,0.44-2.558,0.684-3.363
			l17.136,1.042V381.48c0-8.633,0.058-19.064,0.119-30.107c0.071-12.834,0.145-26.106,0.145-38.878
			c0-4.592,0.192-9.421,0.604-15.197l0.101-1.409l-0.12-1.407c-2.978-34.808-4.884-117.326,41.613-131.762l7.513-2.332l3.392-7.098
			c5.299-11.089,25.836-47.27,67.632-47.27c2.29,0,4.647,0.109,7.011,0.324c13.681,1.244,18.227,2.932,25.108,5.488
			c6.58,2.444,14.77,5.486,30.734,8.452c16.038,2.977,33.523,4.679,46.748,5.702c0.239,12.026,5.291,24.829,19.238,34.391
			l3.063,2.099l3.644,0.716c31.457,6.183,36.766,62.518,31.754,108.882l-0.219,2.02l0.237,2.018
			c1.02,8.664,1.494,15.936,1.494,22.884c0,12.357-0.668,28.819-1.313,44.739c-0.572,14.098-1.112,27.415-1.112,36.463v19.127
			l16.999-1.033c0.731,1.316,1.627,3.667,2.032,6.647c-0.222,19.509-7.028,33.573-20.789,42.974
			c-10.735,7.334-22.178,9.283-24.465,9.611h-11.259l-4.534,11.292c-11.185,27.852-37.793,56.829-58.965,74.661l-6.404,5.395v45.779
			c0,28.331,26.227,64.665,68.446,94.821l20.924-29.295c-38.881-27.771-53.37-54.931-53.37-65.526v-29.222
			C600.518,552.164,628.43,524.397,644.413,491.525z"/>
	</g>
</g>
<g opacity="0.5">
	<polygon fill="#231815" points="1004.679,705.839 842.679,705.839 842.679,543.839 806.679,543.839 806.679,705.839 
		644.679,705.839 644.679,741.839 806.679,741.839 806.679,903.277 842.679,903.277 842.679,741.839 1004.679,741.839 	"/>
</g>
</svg>
