<?xml version="1.0" encoding="utf-8"?>
<!-- Generator: Adobe Illustrator 15.0.0, SVG Export Plug-In . SVG Version: 6.00 Build 0)  -->
<!DOCTYPE svg PUBLIC "-//W3C//DTD SVG 1.1//EN" "http://www.w3.org/Graphics/SVG/1.1/DTD/svg11.dtd">
<svg version="1.1" id="图形" xmlns="http://www.w3.org/2000/svg" xmlns:xlink="http://www.w3.org/1999/xlink" x="0px" y="0px"
	 width="1000.637px" height="1000.678px" viewBox="15.167 -16.333 1000.637 1000.678"
	 enable-background="new 15.167 -16.333 1000.637 1000.678" xml:space="preserve">
<g>
	<path fill="none" d="M371.666,763.654h288.281v-35.516H371.666V763.654z M389.473,817.488h252.474V781.97H389.473V817.488z
		 M514.769,25.742c-198.931,0-360.193,161.271-360.193,360.202c0,146.17,87.258,271.583,212.396,327.963l17.314-34.461
		C271.541,629.392,192.756,516.849,192.756,385.54c0-177.829,144.158-321.979,321.978-321.979
		c177.838,0,321.979,144.149,321.979,321.979c0,124.805-71.244,232.584-175.096,285.952l17.49,34.84
		c116.244-59.73,195.855-180.693,195.855-320.387C874.962,187.012,713.701,25.742,514.769,25.742z M601.412,836.357
		c0,0.238,0.07,0.449,0.07,0.686c0,34.295-25.418,70.91-85.324,70.91c-45.298,0-88.101-36.615-88.101-70.91
		c0-0.236,0.07-0.447,0.07-0.686l-37.617-0.131c0,0.254-0.088,0.5-0.088,0.756c0,53.182,42.17,107.287,125.507,107.287
		c81.633,0,124.26-54.105,124.26-107.287c0-0.256-0.07-0.502-0.07-0.756L601.412,836.357z"/>
</g>
</svg>
