<?xml version="1.0" encoding="utf-8"?>
<!-- Generator: Adobe Illustrator 15.0.0, SVG Export Plug-In . SVG Version: 6.00 Build 0)  -->
<!DOCTYPE svg PUBLIC "-//W3C//DTD SVG 1.1//EN" "http://www.w3.org/Graphics/SVG/1.1/DTD/svg11.dtd">
<svg version="1.1" id="图形" xmlns="http://www.w3.org/2000/svg" xmlns:xlink="http://www.w3.org/1999/xlink" x="0px" y="0px"
	 width="1000.637px" height="1000.678px" viewBox="15.167 -16.333 1000.637 1000.678"
	 enable-background="new 15.167 -16.333 1000.637 1000.678" xml:space="preserve">
<g>
	<path fill="none" d="M881.6,505.607L493.862,117.886c-2.285-2.285-4.922-3.99-7.664-5.344v-3.023H141.456v326.355
		c-1.02,4.342-1.02,8.824,0,13.166v3.516h1.037c1.406,3.709,3.533,7.189,6.521,10.178l387.738,387.738
		c11.197,11.197,29.355,11.197,40.57,0L881.6,546.195C892.797,534.98,892.797,516.822,881.6,505.607z M840.713,534.822
		L566.952,808.566c-5.396,5.396-14.273,5.291-19.793-0.246l-366.82-366.803c-3.727-3.744-4.781-8.965-3.533-13.658h-0.615V145.8
		h280.969c5.273-2.813,11.971-2.109,16.488,2.408l366.82,366.82C845.987,520.548,846.092,529.425,840.713,534.822z M336.696,831.716
		c-5.695,2.391-12.287-0.404-14.748-6.24L242.6,594.798l-50.59-42.75l104.73,305.139c4.957,11.83,18.563,17.385,30.375,12.428
		l135.65-47.83l-25.049-27.563L336.696,831.716z M258.333,183.048c-24.855,0-45,20.145-45,45s20.145,45,45,45
		c24.838,0,45-20.145,45-45S283.17,183.048,258.333,183.048z M258.614,255.611c-15.064,0-27.281-12.217-27.281-27.281
		s12.217-27.281,27.281-27.281s27.281,12.217,27.281,27.281S273.678,255.611,258.614,255.611z M181.903,812.398
		c-4.377-0.018-7.893-3.656-7.875-8.139l11.988-172.107l-27.053-41.783l-16.945,240.82c-0.053,9.598,7.699,17.402,17.279,17.438
		l100.67-0.105l-15.434-34.893L181.903,812.398z"/>
</g>
</svg>
