<?xml version="1.0" encoding="utf-8"?>
<!-- Generator: Adobe Illustrator 15.0.0, SVG Export Plug-In . SVG Version: 6.00 Build 0)  -->
<!DOCTYPE svg PUBLIC "-//W3C//DTD SVG 1.1//EN" "http://www.w3.org/Graphics/SVG/1.1/DTD/svg11.dtd">
<svg version="1.1" id="图形" xmlns="http://www.w3.org/2000/svg" xmlns:xlink="http://www.w3.org/1999/xlink" x="0px" y="0px"
	 width="1000.637px" height="1000.678px" viewBox="0 0 1000.637 1000.678" enable-background="new 0 0 1000.637 1000.678"
	 xml:space="preserve">
<path d="M668.197,927.293l-13.219-2.41c-74.48-13.578-150.182-48.587-218.918-101.242
	c-64.979-49.777-122.879-114.394-167.44-186.862c-46.752-76.039-78.683-144.017-97.617-207.818
	c-22.667-76.38-26.59-145.441-11.989-211.116c2.943-17.613,8.169-34.922,15.544-51.477c0.176-0.543,0.432-1.295,0.78-2.143
	l4.589-11.149h1.097c15.281-28.758,36.9-53.327,63.037-71.52c33.777-23.511,74.335-36.406,120.548-38.328l13.233-0.55l118.516,331.2
	L367.87,421.827c39.115,108.814,88.708,181.295,162.509,237.412l93.061-103.067l262.43,218.438l-3.693,11.555
	c-9.674,30.259-20.424,46.908-46.009,71.26c-46.391,44.242-100.244,67.635-155.727,67.638c-3.638,0-7.299-0.102-10.962-0.302
	L668.197,927.293z M648.533,886.431l12.494,1.48c6.443,0.764,12.974,1.15,19.412,1.15c46.71-0.002,90.75-19.416,130.896-57.702
	c18.601-17.704,26.396-28.883,32.593-44.822L626.987,605.962L535.48,707.308l-13.05-9.253
	c-46.97-33.3-85.332-72.391-117.278-119.508c-30.072-44.353-55.301-97.228-77.129-161.648l-5.603-16.536l128.076-47.795
	L352.994,80.092c-89.677,8.601-128.865,64.771-144.48,98.538l-0.736,1.637c-6.373,14.132-10.856,28.913-13.327,43.932l-0.196,1.01
	c-24.838,110.985,8.537,235.772,105.031,392.713c86.29,140.331,215.955,239.955,349.038,268.923L648.533,886.431z"/>
</svg>
