<?xml version="1.0" encoding="utf-8"?>
<!-- Generator: Adobe Illustrator 15.0.0, SVG Export Plug-In . SVG Version: 6.00 Build 0)  -->
<!DOCTYPE svg PUBLIC "-//W3C//DTD SVG 1.1//EN" "http://www.w3.org/Graphics/SVG/1.1/DTD/svg11.dtd">
<svg version="1.1" id="图形" xmlns="http://www.w3.org/2000/svg" xmlns:xlink="http://www.w3.org/1999/xlink" x="0px" y="0px"
	 width="1000.637px" height="1000.678px" viewBox="15.167 -16.333 1000.637 1000.678"
	 enable-background="new 15.167 -16.333 1000.637 1000.678" xml:space="preserve">
<g>
	<path fill="none" d="M859.058,121.839H171.912c-38.953,0-70.541,31.57-70.541,70.559v469.055c0,38.971,31.588,70.559,70.541,70.559
		h253.459v72.703h-54v37.125h286.875v-37.125h-54v-72.703h254.813c38.971,0,70.541-31.588,70.541-70.559V192.398
		C929.599,153.409,898.029,121.839,859.058,121.839z M569.371,804.714H460.246v-72.703h109.125V804.714z M893.529,661.241
		c0,19.881-16.119,36-36,36H172.58c-19.863,0-36-16.119-36-36V192.116c0-19.881,16.137-36,36-36h684.949c19.881,0,36,16.119,36,36
		V661.241z M838.246,193.839H191.371c-9.932,0-18,8.051-18,18v378c0,9.949,8.068,18,18,18h646.875c9.932,0,18-8.051,18-18v-378
		C856.246,201.89,848.177,193.839,838.246,193.839z M839.845,571.98c0,9.035-7.348,16.365-16.383,16.365H207.103
		c-9.035,0-16.365-7.33-16.365-16.365V228.24c0-9.053,7.33-16.365,16.365-16.365h616.359c9.035,0,16.383,7.313,16.383,16.365V571.98
		z"/>
</g>
</svg>
