<?xml version="1.0" encoding="utf-8"?>
<!-- Generator: Adobe Illustrator 15.0.0, SVG Export Plug-In . SVG Version: 6.00 Build 0)  -->
<!DOCTYPE svg PUBLIC "-//W3C//DTD SVG 1.1//EN" "http://www.w3.org/Graphics/SVG/1.1/DTD/svg11.dtd">
<svg version="1.1" id="图形" xmlns="http://www.w3.org/2000/svg" xmlns:xlink="http://www.w3.org/1999/xlink" x="0px" y="0px"
	 width="1000.637px" height="1000.678px" viewBox="15.167 -16.333 1000.637 1000.678"
	 enable-background="new 15.167 -16.333 1000.637 1000.678" xml:space="preserve">
<g>
	<path fill="none" d="M897.479,210.269H730.575v-40.307c0-27.237-22.078-49.315-49.307-49.315H347.829
		c-27.229,0-49.307,22.078-49.307,49.315v40.307H131.864c-27.246,0-49.324,22.078-49.324,49.315v513.993
		c0,27.237,22.078,49.324,49.324,49.324h765.615c27.246,0,49.324-22.087,49.324-49.324V259.584
		C946.803,232.347,924.725,210.269,897.479,210.269z M910.417,761.431c0,13.852-11.232,25.084-25.084,25.084H143.887
		c-13.852,0-25.084-11.232-25.084-25.084V272.654c0-13.852,11.232-25.084,25.084-25.084h132.592v-1.151h58.043v-65.355
		c0-13.623,11.057-24.662,24.662-24.662h310.922c13.605,0,24.662,11.039,24.662,24.662v65.355h101.619v1.151h88.945
		c13.852,0,25.084,11.232,25.084,25.084V761.431z M514.575,336.849c-90.141,0-161.93,70.277-161.93,160.409
		s71.789,163.714,161.93,163.714c90.123,0,162.176-73.582,162.176-163.714S604.698,336.849,514.575,336.849z M513.924,624.937
		c-69.029,0-125.895-59.528-125.895-128.496c0-68.941,56.865-123.943,125.895-123.943c69.047,0,126.51,55.002,126.51,123.943
		C640.434,565.408,582.971,624.937,513.924,624.937z"/>
</g>
</svg>
