<?xml version="1.0" encoding="utf-8"?>
<!-- Generator: Adobe Illustrator 15.0.0, SVG Export Plug-In . SVG Version: 6.00 Build 0)  -->
<!DOCTYPE svg PUBLIC "-//W3C//DTD SVG 1.1//EN" "http://www.w3.org/Graphics/SVG/1.1/DTD/svg11.dtd">
<svg version="1.1" id="图形" xmlns="http://www.w3.org/2000/svg" xmlns:xlink="http://www.w3.org/1999/xlink" x="0px" y="0px"
	 width="1000.637px" height="1000.678px" viewBox="15.167 -16.333 1000.637 1000.678"
	 enable-background="new 15.167 -16.333 1000.637 1000.678" xml:space="preserve">
<g>
	<path fill="none" d="M533.59,320.402h-36v180h179.227v-36H533.59V320.402z M515.485,52.019
		c-238.676,0-432.158,193.465-432.158,432.158c0,238.675,193.482,432.158,432.158,432.158s432.158-193.482,432.158-432.158
		C947.643,245.484,754.161,52.019,515.485,52.019z M514.413,877.013c-216.721,0-392.414-175.693-392.414-392.414
		c0-216.721,175.693-392.414,392.414-392.414c216.738,0,392.414,175.693,392.414,392.414
		C906.827,701.32,731.151,877.013,514.413,877.013z"/>
</g>
</svg>
