<?xml version="1.0" encoding="utf-8"?>
<!-- Generator: Adobe Illustrator 15.0.0, SVG Export Plug-In . SVG Version: 6.00 Build 0)  -->
<!DOCTYPE svg PUBLIC "-//W3C//DTD SVG 1.1//EN" "http://www.w3.org/Graphics/SVG/1.1/DTD/svg11.dtd">
<svg version="1.1" id="图形" xmlns="http://www.w3.org/2000/svg" xmlns:xlink="http://www.w3.org/1999/xlink" x="0px" y="0px"
	 width="1000.637px" height="1000.678px" viewBox="15.167 -16.333 1000.637 1000.678"
	 enable-background="new 15.167 -16.333 1000.637 1000.678" xml:space="preserve">
<g>
	<path fill="none" d="M543.776,350.863c0,32.321,26.199,58.533,58.52,58.533c32.335,0,58.548-26.212,58.548-58.533
		c0-32.335-26.213-58.533-58.548-58.533C569.975,292.329,543.776,318.528,543.776,350.863z M632.153,350.749
		c0,16.53-13.397,29.914-29.914,29.914s-29.915-13.384-29.915-29.914c0-16.517,13.398-29.915,29.915-29.915
		S632.153,334.233,632.153,350.749z M579.201,827.247c-0.156,0-0.313,0.057-0.455,0.1c-37.718,12.8-78.083,19.848-120.129,19.848
		c-206.327,0-373.598-167.271-373.598-373.598c0-206.327,167.271-373.584,373.598-373.584S832.215,267.27,832.215,473.597
		c0,8.173-0.356,16.261-0.869,24.305h0.071c1.367,6.635,6.977,11.704,13.997,11.704c8.044,0,14.594-6.521,14.594-14.58
		c0-3.403-1.353-6.407-3.317-8.886c0.143-4.185,0.413-8.343,0.413-12.558c0-220.095-178.42-398.515-398.501-398.515
		c-220.095,0-398.501,178.42-398.501,398.515c0,220.067,178.406,398.486,398.501,398.486c39.867,0,78.283-6.107,114.604-17.028
		c1.837,0.826,3.845,1.353,5.994,1.353c8.03,0,14.58-6.521,14.58-14.565C593.781,833.768,587.231,827.247,579.201,827.247z
		 M257.031,355.718c0,32.32,26.213,58.534,58.534,58.534s58.533-26.214,58.533-58.534c0-32.321-26.212-58.534-58.533-58.534
		S257.031,323.397,257.031,355.718z M345.408,355.618c0,16.517-13.384,29.914-29.9,29.914c-16.531,0-29.929-13.397-29.929-29.914
		c0-16.53,13.398-29.929,29.929-29.929C332.024,325.69,345.408,339.088,345.408,355.618z M457.962,721.428
		c93.773,0,169.792-69.711,169.876-163.455H288.085C288.17,651.717,364.188,721.428,457.962,721.428z M457.948,690.688
		c-56.355,0-129.284-29.814-138.738-108.923h277.477C591.246,660.873,518.318,690.688,457.948,690.688z M949.595,597.072
		l-32.847-28.876c-24.191-21.271-61.04-18.894-82.313,5.282c0,0-174.532,210.67-186.905,224.737
		c-12.374,14.082,0.185,107.527,0.185,107.527s102.345,5.682,113.352-6.834c11.005-12.516,188.97-219.525,188.97-219.525
		C971.294,655.192,973.787,618.328,949.595,597.072z M932.994,660.118l-192.53,218.998l-72.159,0.556l-4.499-67.931l192.529-218.999
		c10.65-12.103,29.074-17.455,41.163-6.82l37.02,33.047C946.605,629.606,943.629,648.03,932.994,660.118z"/>
</g>
</svg>
