<?xml version="1.0" encoding="utf-8"?>
<!-- Generator: Adobe Illustrator 15.0.0, SVG Export Plug-In . SVG Version: 6.00 Build 0)  -->
<!DOCTYPE svg PUBLIC "-//W3C//DTD SVG 1.1//EN" "http://www.w3.org/Graphics/SVG/1.1/DTD/svg11.dtd">
<svg version="1.1" id="图形" xmlns="http://www.w3.org/2000/svg" xmlns:xlink="http://www.w3.org/1999/xlink" x="0px" y="0px"
	 width="1000.637px" height="1000.678px" viewBox="15.167 -16.333 1000.637 1000.678"
	 enable-background="new 15.167 -16.333 1000.637 1000.678" xml:space="preserve">
<g>
	<path fill="#310204" d="M906.473,857.174H115.572l-1.318-16.572c-0.179-2.254-3.747-55.494,52.167-82.326
		c34.396-16.498,76.585-30.632,121.251-45.595c36.739-12.308,74.729-25.034,108.974-39.427
		c29.118-12.244,40.882-53.321,40.882-68.388v-31.233c-22.875-20.58-41.299-44.599-53.016-69.068
		c-26.823-5.124-71.508-26.84-71.508-90.254v-0.895l0.089-0.89c1.687-16.935,8.937-27.055,17.784-32.262
		c0.021-5.305,0.05-10.939,0.08-16.743c0.066-12.785,0.135-26.004,0.135-38.674c0-5.449,0.183-11.007,0.545-16.541
		c-7.159-87.744,13.93-145.833,59.565-164.933c5.091-9.137,13.636-21.879,26.515-33.526c19.882-17.98,44.125-27.484,70.106-27.484
		c3.376,0,6.833,0.159,10.275,0.472c18.457,1.678,26.192,4.551,34.381,7.593c5.831,2.166,11.86,4.405,24.771,6.804
		c20.555,3.815,44.706,5.384,56.313,6.139c8.635,0.561,10.432,0.678,13.846,2.303l18.663,8.886l-10.97,16.641
		c-2.881,5.24-1.693,8.317-0.123,10.103c18.091,4.935,40.056,19.278,51.06,58.078c8.395,29.6,7.541,62.916,5.2,86.328
		c0.929,8.358,1.398,16.973,1.398,25.638c0,13.084-0.688,29.915-1.353,46.191c-0.323,7.895-0.636,15.538-0.843,22.188
		c10.1,6.637,17.16,19.141,18.718,34.777l0.089,0.89v0.895c0,41.734-21.133,63.961-38.861,75.26
		c-10.47,6.672-20.99,10.365-28.917,12.321c-16.009,32.911-43.899,60.656-58.644,73.905v29.228c0,10.592,14.489,37.745,53.37,65.518
		c20.786,14.848,73.592,32.882,120.182,48.794c37.527,12.817,72.974,24.923,98.474,36.897l0.928,0.469
		c52.941,28.696,51.488,79.103,51.4,81.234L906.473,857.174z M153.083,821.174h714.314c-3.951-9.715-11.99-21.614-28.33-30.604
		c-23.714-11.073-59.604-23.331-94.321-35.188c-53.684-18.335-104.39-35.653-129.47-53.567
		c-42.22-30.157-68.446-66.486-68.446-94.813v-45.793l6.41-5.394c21.146-17.796,47.739-46.756,58.962-74.665l4.537-11.285h11.253
		c2.287-0.328,13.729-2.277,24.465-9.611c13.764-9.403,20.57-23.472,20.789-42.988c-0.399-2.977-1.293-5.325-2.021-6.635
		l-17.027,1.032V392.54c0-9.051,0.544-22.371,1.12-36.472c0.65-15.916,1.323-32.373,1.323-44.722c0-7.937-0.463-15.8-1.375-23.369
		l-0.244-2.024l0.215-2.028c4.892-46.151-0.517-102.23-31.862-108.391l-3.644-0.716l-3.063-2.099
		c-13.95-9.563-18.998-22.365-19.232-34.389c-13.222-1.024-30.722-2.727-46.754-5.703c-15.965-2.966-24.154-6.007-30.734-8.452
		c-6.881-2.556-11.427-4.244-25.108-5.488c-2.364-0.215-4.723-0.324-7.013-0.324c-41.794,0-62.331,36.181-67.63,47.27l-3.392,7.098
		l-7.513,2.332c-46.44,14.416-44.609,96.827-41.666,131.589l0.118,1.396l-0.1,1.396c-0.365,5.155-0.551,10.337-0.551,15.402
		c0,12.763-0.068,26.03-0.135,38.86c-0.057,11.046-0.111,21.479-0.111,30.116v19.125l-17.153-1.041
		c-0.244,0.805-0.5,1.917-0.684,3.364c0.205,21.205,7.214,36.092,21.412,45.491c11.127,7.366,23.686,9.055,26.439,9.104h12.169
		l4.491,11.292c9.935,24.742,28.97,49.782,53.598,70.508l6.41,5.394v47.806c0,11.827-3.558,31.7-13.543,52.006
		c-11.681,23.754-28.759,40.895-49.388,49.568c-35.487,14.914-74.125,27.858-111.49,40.376
		c-43.576,14.598-84.736,28.387-117.114,43.917c-13.94,6.689-23.499,16.479-28.408,29.094
		C153.409,820.28,153.241,820.729,153.083,821.174z"/>
</g>
</svg>
