<?xml version="1.0" encoding="utf-8"?>
<!-- Generator: Adobe Illustrator 15.0.0, SVG Export Plug-In . SVG Version: 6.00 Build 0)  -->
<!DOCTYPE svg PUBLIC "-//W3C//DTD SVG 1.1//EN" "http://www.w3.org/Graphics/SVG/1.1/DTD/svg11.dtd">
<svg version="1.1" id="图形" xmlns="http://www.w3.org/2000/svg" xmlns:xlink="http://www.w3.org/1999/xlink" x="0px" y="0px"
	 width="1000.637px" height="1000.678px" viewBox="15.167 -16.333 1000.637 1000.678"
	 enable-background="new 15.167 -16.333 1000.637 1000.678" xml:space="preserve">
<g>
	<path fill="none" d="M351.619,318.842c-39.674,0-71.824,32.168-71.824,71.842c0,39.665,32.15,71.833,71.824,71.833
		s71.842-32.168,71.842-71.833C423.461,351.01,391.293,318.842,351.619,318.842z M352.076,427.07
		c-20.777,0-37.617-16.84-37.617-37.608s16.84-37.608,37.617-37.608c20.76,0,37.6,16.84,37.6,37.608S372.836,427.07,352.076,427.07z
		 M622.251,426.094h124.348v-34.84H622.251V426.094z M515.798,680.388c-29.57,0-58.887-10.799-82.039-31.246l-22.207,19.121
		c28.105,28.434,66.159,46.473,108.06,46.473c86.449,0,156.533-76.789,156.621-163.221h-32.518
		C637.095,631.99,576.984,680.388,515.798,680.388z M514.216,48.85c-238.939,0-432.632,193.702-432.632,432.642
		c0,238.949,193.693,432.65,432.632,432.65c238.957,0,432.65-193.701,432.65-432.65C946.867,242.552,753.173,48.85,514.216,48.85z
		 M515.025,874.952c-216.878,0-392.695-175.816-392.695-392.687c0-216.879,175.816-392.678,392.695-392.678
		c216.879,0,392.678,175.799,392.678,392.678C907.703,699.136,731.904,874.952,515.025,874.952z"/>
</g>
</svg>
