<?xml version="1.0" encoding="utf-8"?>
<!-- Generator: Adobe Illustrator 15.0.0, SVG Export Plug-In . SVG Version: 6.00 Build 0)  -->
<!DOCTYPE svg PUBLIC "-//W3C//DTD SVG 1.1//EN" "http://www.w3.org/Graphics/SVG/1.1/DTD/svg11.dtd">
<svg version="1.1" id="图形" xmlns="http://www.w3.org/2000/svg" xmlns:xlink="http://www.w3.org/1999/xlink" x="0px" y="0px"
	 width="1000.637px" height="1000.678px" viewBox="15.167 -16.333 1000.637 1000.678"
	 enable-background="new 15.167 -16.333 1000.637 1000.678" xml:space="preserve">
<g>
	<path fill="none" d="M668.362,383.881v-159.93c0-19.863-16.119-36-36-36H128.52c-19.881,0-36,16.137-36,36v519.926
		c0,19.881,16.119,36,36,36h503.842c19.881,0,36-16.119,36-36V583.369L938.45,726.018v-484.77L668.362,383.881z M632.362,727.319
		c0,9.949-8.068,18-18,18H145.237c-9.949,0-18-8.051-18-18V240.194c0-9.949,8.051-18,18-18h469.125c9.932,0,18,8.051,18,18V727.319z
		 M902.239,665.514L668.432,542.625V426.364l233.807-122.889V665.514z"/>
</g>
</svg>
