<?xml version="1.0" encoding="utf-8"?>
<!-- Generator: Adobe Illustrator 15.0.0, SVG Export Plug-In . SVG Version: 6.00 Build 0)  -->
<!DOCTYPE svg PUBLIC "-//W3C//DTD SVG 1.1//EN" "http://www.w3.org/Graphics/SVG/1.1/DTD/svg11.dtd">
<svg version="1.1" id="图形" xmlns="http://www.w3.org/2000/svg" xmlns:xlink="http://www.w3.org/1999/xlink" x="0px" y="0px"
	 width="1000.637px" height="1000.678px" viewBox="15.167 -16.333 1000.637 1000.678"
	 enable-background="new 15.167 -16.333 1000.637 1000.678" xml:space="preserve">
<g>
	<path fill="none" d="M812.326,588.935V188.629c0-33.117-26.842-59.977-59.977-59.977H152.847
		c-33.135,0-59.977,26.859-59.977,59.977v400.306c0,33.135,26.842,59.977,59.977,59.977h84.041v140.695L366.72,648.911h385.629
		C785.484,648.911,812.326,622.07,812.326,588.935z M354.205,614.863L272.66,702.05v-87.188H159.421
		c-16.91,0-30.604-13.711-30.604-30.621V194.394c0-16.893,13.693-30.604,30.604-30.604h587.127c16.91,0,30.621,13.711,30.621,30.604
		v389.847c0,16.91-13.711,30.621-30.621,30.621H354.205z M894.626,379.14h-45.756v36.422h31.922c12.463,0,22.57,10.107,22.57,22.57
		v280.019c0,12.463-10.107,22.57-22.57,22.57h-86.52v83.813l-78.029-83.813H474.791c-12.48,0-22.588-10.107-22.588-22.57v-31.5
		h-34.928v43.945c0,24.434,19.793,44.244,44.227,44.244h244.055l124.066,134.455V774.841h65.004
		c24.434,0,44.244-19.811,44.244-44.244V423.385C938.871,398.951,919.06,379.14,894.626,379.14z"/>
</g>
</svg>
