<?xml version="1.0" encoding="utf-8"?>
<!-- Generator: Adobe Illustrator 15.0.0, SVG Export Plug-In . SVG Version: 6.00 Build 0)  -->
<!DOCTYPE svg PUBLIC "-//W3C//DTD SVG 1.1//EN" "http://www.w3.org/Graphics/SVG/1.1/DTD/svg11.dtd">
<svg version="1.1" id="图形" xmlns="http://www.w3.org/2000/svg" xmlns:xlink="http://www.w3.org/1999/xlink" x="0px" y="0px"
	 width="1000.637px" height="1000.678px" viewBox="15.167 -16.333 1000.637 1000.678"
	 enable-background="new 15.167 -16.333 1000.637 1000.678" xml:space="preserve">
<g>
	<path fill="#231815" d="M585.699,858.945H445.044l-25.398-85.807c-43.088-13.811-83.064-37.023-116.635-67.73l-87.317,20.988
		l-70.347-121.82l62.136-65.453c-4.675-21.785-7.042-44.102-7.042-66.483c0-23.227,2.532-46.331,7.535-68.821L145.4,339.86
		l70.582-122.253l86.527,22.731c34.085-31.311,74.77-54.847,118.702-68.672l23.535-86.14h141.165l24.03,85.937
		c44.108,13.772,84.957,37.324,119.177,68.708l85.889-22.563l70.582,122.253l-61.91,63.278c5.108,22.72,7.694,46.053,7.694,69.502
		c0,22.631-2.417,45.189-7.193,67.196l61.441,64.74l-70.324,121.82l-86.671-20.828c-33.843,30.908-74.167,54.195-117.639,67.939
		L585.699,858.945z M471.933,822.945h86.877l19.667-66.441v-11.035l13.135-3.742c44.586-12.518,85.81-36.326,119.215-68.848
		l9.791-9.533l9.596,5.578l67.35,16.186l43.441-75.25l-47.694-50.256l-9.643-5.561l3.307-13.184
		c5.573-22.218,8.399-45.17,8.399-68.219c0-23.848-3.014-47.547-8.957-70.438l-2.555-9.843l56.895-58.152l-43.185-74.798
		l-78.864,20.718l-7.294-7.143c-33.793-33.095-75.604-57.204-120.914-69.722l-9.803-2.708l-22.1-79.029h-86.366l-21.625,79.146
		l-9.842,2.741c-45.168,12.578-86.847,36.691-120.531,69.731l-7.295,7.156l-79.521-20.891l-43.184,74.798L247.756,393l-2.525,9.822
		c-5.832,22.678-8.789,46.168-8.789,69.817c0,22.907,2.793,45.727,8.303,67.829l3.284,13.172l-10.353,5.966l-47.707,50.253
		l43.454,75.25l67.363-16.191l10.146-5.855l9.759,9.529c33.206,32.424,74.184,56.234,118.504,68.855l13.07,3.723v11.334
		L471.933,822.945z"/>
</g>
<path fill="#231815" d="M515.493,652.714c-99.523,0-180.492-80.96-180.492-180.474c0-99.519,80.968-180.483,180.492-180.483
	c99.514,0,180.475,80.964,180.475,180.483C695.967,571.754,615.006,652.714,515.493,652.714z M515.493,309.757
	c-89.598,0-162.492,72.89-162.492,162.483c0,89.588,72.894,162.474,162.492,162.474c89.589,0,162.475-72.886,162.475-162.474
	C677.967,382.646,605.082,309.757,515.493,309.757z"/>
</svg>
