<?xml version="1.0" encoding="utf-8"?>
<!-- Generator: Adobe Illustrator 15.0.0, SVG Export Plug-In . SVG Version: 6.00 Build 0)  -->
<!DOCTYPE svg PUBLIC "-//W3C//DTD SVG 1.1//EN" "http://www.w3.org/Graphics/SVG/1.1/DTD/svg11.dtd">
<svg version="1.1" id="图形" xmlns="http://www.w3.org/2000/svg" xmlns:xlink="http://www.w3.org/1999/xlink" x="0px" y="0px"
	 width="1000.637px" height="1000.678px" viewBox="15.167 -16.333 1000.637 1000.678"
	 enable-background="new 15.167 -16.333 1000.637 1000.678" xml:space="preserve">
<g>
	<path fill="none" d="M514.019,693.46c119.672,0,215.561-83.109,215.561-185.643V230.136c0-102.516-95.889-185.625-215.561-185.625
		s-215.35,83.109-215.35,185.625v277.682C298.669,610.351,394.347,693.46,514.019,693.46z M333.808,234.46
		c0-85.184,79.875-154.248,178.418-154.248c98.561,0,182.25,69.064,182.25,154.248v268.172c0,85.184-83.689,154.23-182.25,154.23
		c-98.543,0-178.418-69.047-178.418-154.23V234.46z M784.353,477.249v42.24c0,125.877-122.643,227.936-270.158,227.936
		S244.476,645.366,244.476,519.49v-42.24h-35.279v44.578c0,139.289,126.58,252.809,287.35,260.877v108.229h35.982V782.722
		c160.91-7.91,287.244-121.5,287.244-260.895v-44.578H784.353z"/>
</g>
</svg>
