<?xml version="1.0" encoding="utf-8"?>
<!-- Generator: Adobe Illustrator 15.0.0, SVG Export Plug-In . SVG Version: 6.00 Build 0)  -->
<!DOCTYPE svg PUBLIC "-//W3C//DTD SVG 1.1//EN" "http://www.w3.org/Graphics/SVG/1.1/DTD/svg11.dtd">
<svg version="1.1" id="图形" xmlns="http://www.w3.org/2000/svg" xmlns:xlink="http://www.w3.org/1999/xlink" x="0px" y="0px"
	 width="1000.637px" height="1000.678px" viewBox="15.167 -16.333 1000.637 1000.678"
	 enable-background="new 15.167 -16.333 1000.637 1000.678" xml:space="preserve">
<g>
	<path fill="none" d="M446.171,191.73L446.171,191.73c-7.339-6.137-14.625-10.134-23.854-10.134
		c-15.838,0-28.688,12.858-28.688,28.705c0,14.405,8.354,18.372,24.486,28.274c65.813,66.173,106.752,157.096,106.752,257.801
		c0,98.851-39.34,188.376-103.008,254.268l0,0c-6.876,6.196-28.23,17.385-28.23,33.24c0,15.847,12.85,28.696,28.688,28.696
		c15.855,0,35.744-19.831,40.395-26.077l0,0l0,0c71.93-75.138,116.209-176.959,116.209-289.195
		C578.921,376.704,527.822,268.089,446.171,191.73z M270.689,303.087L270.689,303.087c-12.455-6.165-18.446-4.599-25.089-3.958
		c-14.27,1.377-22.396,12.768-22.396,28.624c0,15.416,9.863,17.836,27.27,31.602c35.965,34.893,58.5,83.514,58.5,137.584
		c0,52.62-21.428,100.02-55.67,134.728c-18.819,12.007-30.252,12.691-30.252,28.538c0,15.855,12.85,28.705,28.688,28.705
		c13.166,0,24.578-4.32,34.77-13.729l0,0c47.461-45.026,77.203-108.527,77.203-179.104
		C363.712,417.925,327.326,348.368,270.689,303.087z M663.367,101.141c-7.174-11.552-16.816-20.927-30.299-20.927
		c-15.855,0-26.215,11.883-26.215,27.738c0,10.652,5.215,16.762,12.814,26.262l0,0c74.443,97.541,118.74,219.331,118.74,351.51
		c0,133.339-45.123,256.061-120.762,354.032c-4.465,5.203-7.26,11.874-7.26,19.266c0,16.427,13.307,29.742,29.742,29.742
		c13.025,0,23.977-8.42,28.002-20.083c80.051-105.908,127.758-237.621,127.758-380.61
		C795.888,342.242,746.318,208.104,663.367,101.141z"/>
</g>
</svg>
