<?xml version="1.0" encoding="utf-8"?>
<!-- Generator: Adobe Illustrator 15.0.0, SVG Export Plug-In . SVG Version: 6.00 Build 0)  -->
<!DOCTYPE svg PUBLIC "-//W3C//DTD SVG 1.1//EN" "http://www.w3.org/Graphics/SVG/1.1/DTD/svg11.dtd">
<svg version="1.1" id="图形" xmlns="http://www.w3.org/2000/svg" xmlns:xlink="http://www.w3.org/1999/xlink" x="0px" y="0px"
	 width="1000.637px" height="1000.678px" viewBox="15.167 -16.333 1000.637 1000.678"
	 enable-background="new 15.167 -16.333 1000.637 1000.678" xml:space="preserve">
<g>
	<path fill="none" d="M938.599,600.057c0-29.918-10.072-52.734-29.83-65.988c12.006-6.908,29.619-41.133,29.619-71.297
		c-1.178-49.869-48.463-86.854-119.813-86.854L629.4,375.936c32.361-90.035,26.279-211.447-14.361-276.258
		c-24.434-38.988-53.859-47.742-74.215-47.742c-68.643,0-70.893,67.553-70.893,90.527c0,76.816-10.881,111.867-24.416,144.176
		c-10.723,20.883-76.465,89.648-143.596,89.648H176.113c-48.568,0-83.813,41.52-83.742,100.635l32.66,351.65
		c3.92,54.141,29.971,86.941,82.248,86.941c0,0,26.033,0.211,45.51,0.211c9.949,0,19.23-0.07,24.715-0.211
		c16.102-0.527,29.391-11.074,41.098-19.934c8.297-6.258,14.906-11.654,20.848-11.654c2.689,0,17.93,8.947,36.668,17.051
		c19.09,8.297,49.395,15.1,78.363,15.1h263.18c88.207,0,130.535-33.75,130.57-90.035c0-16.611-3.762-26.49-12.832-39.375
		c35.438-8.684,66.832-31.412,66.832-70.629c0-14.537-6.697-37.934-15.873-44.121C903.654,667.381,938.634,635.864,938.599,600.057z
		 M276.203,880.094c-15.768,0.51-72.316,0-72.668,0c-20.25,0-38.25-19.512-42.82-45.756l-32.66-365.502
		c0-27.334,21.551-57.322,50.309-57.322v0.176l123.557,0.387c2.127,0,4.201-0.264,6.311-0.352V858.86
		c-5.713,4.096-11.074,8.033-14.889,10.898C288.121,873.696,279.367,879.725,276.203,880.094z M853.152,647.975c0,0-4.729,0-4.746,0
		l0.439,32.625c3.814,1.477,17.982,5.836,18.018,34.172c-0.035,30.393-39.094,42.609-72.035,42.592h0.105l-0.563,31.096
		c13.359,3.076,18.229,15.012,18.211,34.137c0,33.434-26.648,57.498-95.748,57.498H444.355c-13.025,0-39.516-7.752-54.773-15.275
		c-14.396-7.084-37.371-20.338-45.387-24.803V405.801c68.52-19.389,125.051-79.734,139.307-107.596
		c15.521-36.879,23.326-75.393,23.326-159.926c0-42.012,15.117-47.637,31.184-47.637c14.221,0,36.809,15.996,48.234,34.26
		c33.82,53.912,41.766,170.104-0.316,257.098l-7.26,30.111l241.523-0.07c41.115,2.32,82.459,19.477,82.459,50.449l-0.281,9.703
		c0.07,0.387-1.055,26.859-14.801,38.531c-11.531,9.773-20.9,10.125-20.9,10.125l-0.264,32.115c0,0,13.939,1.916,21.199,7.014
		c10.969,7.682,15.908,22.219,15.363,38.074C902.248,618.145,871.855,647.975,853.152,647.975z"/>
</g>
</svg>
