<?xml version="1.0" encoding="utf-8"?>
<!-- Generator: Adobe Illustrator 15.0.0, SVG Export Plug-In . SVG Version: 6.00 Build 0)  -->
<!DOCTYPE svg PUBLIC "-//W3C//DTD SVG 1.1//EN" "http://www.w3.org/Graphics/SVG/1.1/DTD/svg11.dtd">
<svg version="1.1" id="图层_1" xmlns="http://www.w3.org/2000/svg" xmlns:xlink="http://www.w3.org/1999/xlink" x="0px" y="0px"
	 width="2834.65px" height="2834.65px" viewBox="0 0 2834.65 2834.65" enable-background="new 0 0 2834.65 2834.65"
	 xml:space="preserve">
<g>
	<path fill-rule="evenodd" clip-rule="evenodd" fill="#F5B822" d="M1057.842,2155.254
		c-173.138,8.648-310.216,122.32-306.162,208.479c4.028,86.156,147.661,149,320.799,140.352
		c173.136-8.648,310.201-85.509,306.175-171.666C1374.6,2246.266,1230.978,2146.605,1057.842,2155.254z"/>
	<path fill-rule="evenodd" clip-rule="evenodd" fill="#F5B822" d="M1681.989,2153.564
		c173.123,8.652,310.217,122.324,306.162,208.478c-4.028,86.157-147.661,149.001-320.797,140.353s-310.216-85.509-306.175-171.666
		C1365.219,2244.575,1508.854,2144.916,1681.989,2153.564z"/>
	<g>
		<path fill="#B61D22" d="M1986.38,1463.641c-5.853,15.827-10.702,31.625-15.11,47.409
			c-101.601-237.358-330.202-402.938-596.104-402.938c-265.981,0-494.624,165.675-596.198,403.129
			c-4.406-15.841-9.245-31.69-15.11-47.557c0,0-329.73,327.177-179.34,637.457c24.435,46.71,103.165-21.338,158.797-146.835
			c72.871,284.283,331.042,458.525,635.392,458.525c303.906,0,556.763-175.418,628.472-458.106
			c55.751,125.199,134.487,193.005,158.95,146.352C2316.854,1790.804,1986.38,1463.641,1986.38,1463.641z"/>
	</g>
	<path fill-rule="evenodd" clip-rule="evenodd" fill="#E71F19" d="M1966.904,1603.409c-1.443,1.163-2.931,2.3-4.392,3.437
		c-4.322,3.241-8.705,6.457-13.243,9.673c-77.858,57.264-178.905,102.023-288.631,131.107c-10.503,2.892-21.261,5.433-31.976,8.043
		c-2.477,0.579-4.91,1.254-7.396,1.824c-75.464,17.824-155.743,28.664-237.425,28.664c-2.325,0-4.689-0.164-7.028-0.177
		c-2.325,0.013-4.689,0.177-7.015,0.177c-81.669,0-161.974-10.84-237.425-28.664c-2.472-0.57-4.906-1.245-7.393-1.824
		c-10.717-2.61-21.475-5.151-31.975-8.043c-109.739-29.084-210.775-73.844-288.634-131.107c-4.54-3.216-8.918-6.432-13.243-9.673
		c-1.461-1.137-2.948-2.273-4.394-3.437c-36.477-27.973-54.275-46.069-71.289-73.463c-4.785-97.399,60.546-112.229,46.354-104.984
		c1.785,3.946,63.492,35.398,68.033,38.558c42.383,27.951,166.462,192.546,543.196,201.221
		c379.383,3.799,458.253-159.201,615.756-235.21c-18.109-9.241,58.518,1.919,45.179,102.525
		C2016.963,1559.449,2003.383,1575.437,1966.904,1603.409z"/>
	<path fill="#1F1D22" d="M1996.718,1280.426c-9.768,342.598-104.643,424.752-620.281,424.752
		c-515.651,0-622.648-82.008-622.648-424.752c-0.015-374.167,278.252-643.582,621.472-643.582S2006.313,944.761,1996.718,1280.426z"
		/>
	<g>
		<path fill-rule="evenodd" clip-rule="evenodd" fill="#F5C048" d="M1364.517,347.196c0,0-8.312,47.055-74.736,60.895
			s-201.152,69.967-190.962,226.968c13.516,208.313,254.617,235.262,254.617,235.262s107.94-66.436,174.367-85.816
			c51.114-14.907,172.989-25.155,225.615-74.25c41.514-38.748,42.867-130.554,42.867-130.554s-53.046,67.806-129.621,33.207
			c7.936-71.345,70.806-82.574,71.047-223.264c0.217-132.888-93.655-194.677-93.655-194.677s38.38,103.048-21.65,166.946
			c-32.571,34.689-109.756,36.003-157.204,45.205c-63.152,12.245-110.847,38.8-110.847,38.8S1383.884,385.957,1364.517,347.196z"/>
		<g>
			<path fill="#E29824" d="M1364.625,354.466c0,0-0.175,0.826-0.623,2.23c-0.89,19.139-6.485,40.827-22.784,60.385
				c-26.732,32.057-70.046,27.462-111.928,88.75c-37.626,55.072-6.083,158.933-6.083,158.933s-2.269-96.768,34.895-142.972
				c32.165-40.044,63.924-60.466,96.144-74.561C1361.448,431.607,1379.464,386.498,1364.625,354.466z"/>
		</g>
		<g>
			<path fill-rule="evenodd" clip-rule="evenodd" fill="#E29824" d="M1737.145,389.523c0.186-118.024-73.684-179.839-90.251-192.218
				c20.569,33.527,75.249,141.904,10.27,261.398c-61.763,113.633-179.325,77.509-257.698,169.76
				c-75.829,89.209-49.138,214.827-42.923,239.506c1-0.609,2.204-1.322,3.596-2.161c11.758-30.614,66.695-161.907,164.068-220.316
				c65.817-39.504,117.319-54.398,148.379-60.034C1690.772,535.685,1736.928,510.153,1737.145,389.523z"/>
		</g>
	</g>
	<path fill="#FFFFFF" d="M1428.603,1079.109c0-92.887,53.112-168.191,118.618-168.191c65.507,0,118.635,75.304,118.635,168.191
		s-53.128,168.179-118.635,168.179C1481.715,1247.288,1428.603,1171.996,1428.603,1079.109z"/>
	<path fill="#FFFFFF" d="M1089.318,1098.166c-3.568-92.913,46.761-170.556,112.36-173.434
		c65.601-2.892,121.687,70.101,125.227,163.013c3.568,92.874-46.707,170.517-112.306,173.408
		C1148.944,1264.019,1092.858,1191.027,1089.318,1098.166z"/>
	<path fill="#181818" d="M1294.524,1085.286c3.419,43.64-20.083,82.427-52.531,86.654c-32.448,4.244-61.506-27.705-64.938-71.341
		c-3.46-43.641,20.054-82.427,52.49-86.659C1261.996,1009.696,1291.079,1041.646,1294.524,1085.286z"/>
	<path fill="#FFFFFF" d="M1268.332,1083.056c0.447,14.393-7.555,26.719-17.92,27.489c-10.297,0.826-19.015-10.179-19.501-24.636
		c-0.46-14.354,7.581-26.745,17.906-27.545C1259.156,1057.594,1267.887,1068.637,1268.332,1083.056z"/>
	<path fill="#FFFFFF" d="M1214.409,1110.613c-2.745,0-5.312,1.038-7.108,3.108c-3.689,4.244-2.678,11.311,2.297,15.746
		c2.541,2.282,5.649,3.444,8.54,3.444c2.732,0,5.271-1.011,7.028-3.068c3.704-4.271,2.703-11.324-2.27-15.785
		C1220.356,1111.759,1217.274,1110.613,1214.409,1110.613"/>
	<path fill="#181818" d="M1564.804,1131.615c-7.676,0-13.892-6.773-13.892-15.11v-3.514c0-39.275-13.774-70.049-31.356-70.049
		c-17.596,0-31.353,30.774-31.353,70.049v3.514c0,8.337-6.229,15.11-13.909,15.11c-7.676,0-13.904-6.773-13.904-15.11v-3.514
		c0-59.032,24.325-100.265,59.166-100.265c34.827,0,59.17,41.233,59.17,100.265v3.514
		C1578.726,1124.842,1572.479,1131.615,1564.804,1131.615z"/>
	<path fill-rule="evenodd" clip-rule="evenodd" fill="#F5BA27" d="M1656.459,1474.144
		c-136.199,73.653-174.039,102.953-281.09,106.778c-107.05,3.838-144.891-33.125-281.091-106.778
		c-214.276-115.859-118.768-116.875,17.528-159.106c80.817-25.034,188.097-35.355,259.684-35.355
		c71.574,0,186.609,10.321,267.442,35.355C1775.227,1357.269,1870.736,1358.284,1656.459,1474.144z"/>
	<path fill-rule="evenodd" clip-rule="evenodd" fill="#8A3322" d="M1702.477,1370.702c0,0-48.015,54.169-161.082,98.872
		c-59.204,23.409-83.749,77.077-170.054,77.077c-86.33,0-110.968-53.387-170.067-77.077
		c-111.524-44.703-157.853-95.627-157.853-95.627c30.03,19.203,128.579,92.412,328.015,92.412S1671.638,1390.73,1702.477,1370.702z"
		/>
	<g>
		<path fill-rule="evenodd" clip-rule="evenodd" fill="#EDC51F" d="M734.8,1420.748l637.745,545.331l643.394-549.48
			l-645.745,238.166L734.8,1420.748z"/>
		<g>
			<polygon fill-rule="evenodd" clip-rule="evenodd" fill="#E2AC14" points="1367.598,1962.038 1372.313,1966.079 
				2015.709,1416.599 1369.962,1654.765 1367.598,1653.9 			"/>
		</g>
	</g>
	<text transform="matrix(1 0 0 1 1665.8633 2049.1123)" fill="#6D1318" font-family="'Tunga'" font-size="359.8146">Q</text>
</g>
</svg>
