<?xml version="1.0" encoding="utf-8"?>
<!-- Generator: Adobe Illustrator 15.0.0, SVG Export Plug-In . SVG Version: 6.00 Build 0)  -->
<!DOCTYPE svg PUBLIC "-//W3C//DTD SVG 1.1//EN" "http://www.w3.org/Graphics/SVG/1.1/DTD/svg11.dtd">
<svg version="1.1" id="图层_1" xmlns="http://www.w3.org/2000/svg" xmlns:xlink="http://www.w3.org/1999/xlink" x="0px" y="0px"
	 width="368.5px" height="368.5px" viewBox="0 0 368.5 368.5" enable-background="new 0 0 368.5 368.5" xml:space="preserve">
<g>
	<path fill-rule="evenodd" clip-rule="evenodd" fill="#F5B822" d="M136.419,306.05c-26.287,1.313-47.098,18.571-46.482,31.651
		c0.611,13.08,22.418,22.621,48.704,21.309c26.286-1.313,47.095-12.982,46.484-26.063
		C184.509,319.867,162.705,304.737,136.419,306.05z"/>
	<path fill-rule="evenodd" clip-rule="evenodd" fill="#F5B822" d="M231.178,305.793c26.284,1.313,47.098,18.571,46.482,31.651
		c-0.612,13.081-22.418,22.622-48.704,21.31c-26.286-1.313-47.097-12.983-46.484-26.063
		C183.085,319.61,204.893,304.48,231.178,305.793z"/>
	<g>
		<path fill="#B61D22" d="M277.39,201.048c-0.887,2.402-1.623,4.802-2.293,7.198c-15.425-36.036-50.132-61.176-90.501-61.176
			c-40.381,0-75.094,25.154-90.516,61.204c-0.669-2.405-1.403-4.812-2.294-7.22c0,0-50.06,49.672-27.228,96.78
			c3.71,7.091,15.662-3.241,24.109-22.294c11.063,43.161,50.26,69.615,96.466,69.615c46.14,0,84.529-26.633,95.415-69.551
			c8.465,19.008,20.419,29.301,24.133,22.219C327.564,250.719,277.39,201.048,277.39,201.048z"/>
	</g>
	<path fill="#1F1D22" d="M278.96,173.231c-1.482,52.015-15.888,64.487-94.171,64.487c-78.287,0-94.531-12.45-94.531-64.487
		c-0.002-56.806,42.244-97.709,94.354-97.709C236.719,75.522,280.417,122.271,278.96,173.231z"/>
	<path fill-rule="evenodd" clip-rule="evenodd" fill="#E71F19" d="M274.434,222.269c-0.219,0.176-0.444,0.349-0.665,0.521
		c-0.656,0.492-1.323,0.98-2.012,1.469c-11.819,8.694-27.161,15.489-43.819,19.905c-1.596,0.438-3.229,0.825-4.855,1.222
		c-0.377,0.088-0.745,0.189-1.123,0.275c-11.457,2.707-23.645,4.353-36.046,4.353c-0.353,0-0.712-0.024-1.068-0.027
		c-0.352,0.003-0.711,0.027-1.064,0.027c-12.399,0-24.591-1.646-36.047-4.353c-0.375-0.086-0.744-0.188-1.122-0.275
		c-1.626-0.396-3.261-0.783-4.854-1.222c-16.661-4.416-32-11.211-43.821-19.905c-0.689-0.488-1.354-0.977-2.01-1.469
		c-0.222-0.172-0.447-0.345-0.667-0.521c-5.538-4.248-8.24-6.995-10.823-11.154c-0.726-14.787,9.192-17.039,7.038-15.938
		c0.271,0.599,9.639,5.375,10.329,5.854c6.435,4.244,25.273,29.232,82.469,30.55c57.6,0.577,69.572-24.169,93.485-35.71
		c-2.75-1.403,8.883,0.291,6.858,15.565C282.034,215.594,279.973,218.021,274.434,222.269z"/>
	<g>
		<path fill-rule="evenodd" clip-rule="evenodd" fill="#F5C048" d="M182.979,31.548c0,0-1.262,7.144-11.347,9.246
			c-10.084,2.101-30.539,10.622-28.992,34.458c2.052,31.626,38.656,35.717,38.656,35.717s16.387-10.086,26.473-13.028
			c7.76-2.263,26.264-3.818,34.252-11.272c6.304-5.883,6.509-19.822,6.509-19.822s-8.054,10.295-19.679,5.042
			c1.204-10.831,10.748-12.536,10.786-33.896c0.032-20.175-14.22-29.555-14.22-29.555s5.828,15.645-3.286,25.346
			c-4.944,5.267-16.663,5.466-23.868,6.863c-9.587,1.859-16.828,5.89-16.828,5.89S185.92,37.433,182.979,31.548z"/>
		<g>
			<path fill="#E29824" d="M182.996,32.652c0,0-0.027,0.125-0.095,0.338c-0.135,2.905-0.984,6.198-3.458,9.168
				c-4.059,4.866-10.635,4.169-16.994,13.474c-5.712,8.361-0.923,24.13-0.923,24.13s-0.344-14.692,5.298-21.707
				c4.883-6.08,9.705-9.18,14.596-11.32C182.513,44.363,185.248,37.515,182.996,32.652z"/>
		</g>
		<g>
			<path fill-rule="evenodd" clip-rule="evenodd" fill="#E29824" d="M239.552,37.974c0.028-17.918-11.187-27.303-13.702-29.182
				c3.123,5.09,11.425,21.543,1.559,39.686c-9.377,17.252-27.225,11.768-39.124,25.773c-11.513,13.544-7.46,32.615-6.516,36.362
				c0.152-0.093,0.335-0.2,0.546-0.327c1.785-4.648,10.125-24.582,24.909-33.45c9.992-5.997,17.812-8.258,22.527-9.115
				C232.512,60.165,239.52,56.288,239.552,37.974z"/>
		</g>
	</g>
	<path fill="#FFFFFF" d="M192.708,142.668c0-14.102,8.063-25.535,18.009-25.535s18.012,11.434,18.012,25.535
		s-8.066,25.532-18.012,25.532S192.708,156.77,192.708,142.668z"/>
	<path fill="#FFFFFF" d="M141.198,145.561c-0.542-14.105,7.098-25.894,17.059-26.33c9.959-0.439,18.474,10.643,19.012,24.749
		c0.542,14.1-7.091,25.888-17.05,26.326C150.25,170.741,141.736,159.66,141.198,145.561z"/>
	<path fill="#181818" d="M172.353,143.605c0.519,6.626-3.05,12.514-7.976,13.156c-4.926,0.645-9.337-4.206-9.858-10.831
		c-0.525-6.626,3.045-12.515,7.969-13.157C167.414,132.129,171.83,136.98,172.353,143.605z"/>
	<path fill="#FFFFFF" d="M168.375,143.267c0.069,2.186-1.146,4.057-2.72,4.175c-1.564,0.125-2.888-1.547-2.961-3.741
		c-0.07-2.18,1.151-4.061,2.719-4.182C166.983,139.401,168.308,141.078,168.375,143.267z"/>
	<path fill="#FFFFFF" d="M160.189,147.45c-0.416,0-0.806,0.158-1.078,0.472c-0.561,0.645-0.407,1.719,0.348,2.391
		c0.385,0.348,0.858,0.523,1.296,0.523c0.415,0,0.8-0.153,1.067-0.465c0.563-0.648,0.411-1.721-0.344-2.397
		C161.092,147.625,160.625,147.45,160.189,147.45"/>
	<path fill="#181818" d="M213.387,150.64c-1.165,0-2.109-1.029-2.109-2.294v-0.533c0-5.963-2.09-10.636-4.76-10.636
		c-2.672,0-4.761,4.673-4.761,10.636v0.533c0,1.265-0.944,2.294-2.111,2.294c-1.165,0-2.111-1.029-2.111-2.294v-0.533
		c0-8.963,3.693-15.223,8.983-15.223c5.287,0,8.982,6.26,8.982,15.223v0.533C215.5,149.61,214.552,150.64,213.387,150.64z"/>
	<path fill-rule="evenodd" clip-rule="evenodd" fill="#F5BA27" d="M227.302,202.643c-20.677,11.182-26.423,15.631-42.675,16.211
		c-16.252,0.583-21.997-5.029-42.676-16.211c-32.531-17.59-18.031-17.744,2.661-24.155c12.27-3.802,28.558-5.368,39.425-5.368
		c10.867,0,28.332,1.566,40.604,5.368C245.333,184.898,259.834,185.053,227.302,202.643z"/>
	<path fill-rule="evenodd" clip-rule="evenodd" fill="#8A3322" d="M234.288,186.938c0,0-7.29,8.225-24.455,15.012
		c-8.989,3.555-12.715,11.701-25.818,11.701c-13.107,0-16.848-8.104-25.82-11.701c-16.932-6.787-23.966-14.519-23.966-14.519
		c4.56,2.915,19.521,14.03,49.8,14.03C214.309,201.461,229.607,189.979,234.288,186.938z"/>
	<g>
		<path fill-rule="evenodd" clip-rule="evenodd" fill="#EDC51F" d="M87.375,194.535l96.824,82.793l97.681-83.422l-98.039,36.158
			L87.375,194.535z"/>
		<g>
			<polygon fill-rule="evenodd" clip-rule="evenodd" fill="#E2AC14" points="183.447,276.716 184.162,277.328 281.844,193.906 
				183.806,230.064 183.447,229.934 			"/>
		</g>
	</g>
	<text transform="matrix(1 0 0 1 228.7295 289.9346)" fill="#6D1318" font-family="'Tunga'" font-size="54.6276">Q</text>
</g>
</svg>
