<?xml version="1.0" encoding="utf-8"?>
<!-- Generator: Adobe Illustrator 15.0.0, SVG Export Plug-In . SVG Version: 6.00 Build 0)  -->
<!DOCTYPE svg PUBLIC "-//W3C//DTD SVG 1.1//EN" "http://www.w3.org/Graphics/SVG/1.1/DTD/svg11.dtd">
<svg version="1.1" id="图形" xmlns="http://www.w3.org/2000/svg" xmlns:xlink="http://www.w3.org/1999/xlink" x="0px" y="0px"
	 width="1000.637px" height="1000.678px" viewBox="15.167 -16.333 1000.637 1000.678"
	 enable-background="new 15.167 -16.333 1000.637 1000.678" xml:space="preserve">
<g>
	<path fill="none" d="M925.736,218.536h-178.14v178.838h178.14V218.536z M890.725,362.311H783.217V254.716h107.508V362.311z
		 M711.364,218.536H533.243v178.838h178.121V218.536z M676.372,362.311H568.863V254.716h107.509V362.311z M925.736,432.891H533.243
		v178.838h392.493V432.891z M890.725,576.667H568.863V469.07h321.862V576.667z M497.01,218.536H318.887v178.838H497.01V218.536z
		 M462.018,362.311h-107.51V254.716h107.51V362.311z M104.254,719.22h821.917v-35.726H104.254V719.22z M979.761,129.188H50.892
		c-19.729,0-35.725,15.996-35.725,35.725v625.201c0,19.729,15.996,35.726,35.725,35.726h928.87
		c19.729,0,35.726-15.996,35.726-35.726V164.912C1015.487,145.183,999.49,129.188,979.761,129.188z M979.761,772.25
		c0,9.873-8.008,17.863-17.863,17.863H68.755c-9.874,0-17.864-7.99-17.864-17.863V182.776c0-9.873,7.99-17.863,17.864-17.863
		h893.143c9.855,0,17.863,7.99,17.863,17.863V772.25z M282.656,432.891H104.533v178.838h178.123V432.891z M247.663,576.667H140.154
		V469.07h107.508V576.667z M497.01,432.891H318.887v178.838H497.01V432.891z M462.018,576.667h-107.51V469.07h107.51V576.667z
		 M282.656,218.536H104.533v178.838h178.123V218.536z M247.663,362.311H140.154V254.716h107.508V362.311z"/>
</g>
</svg>
