<?xml version="1.0" encoding="utf-8"?>
<!-- Generator: Adobe Illustrator 15.0.0, SVG Export Plug-In . SVG Version: 6.00 Build 0)  -->
<!DOCTYPE svg PUBLIC "-//W3C//DTD SVG 1.1//EN" "http://www.w3.org/Graphics/SVG/1.1/DTD/svg11.dtd">
<svg version="1.1" id="图形" xmlns="http://www.w3.org/2000/svg" xmlns:xlink="http://www.w3.org/1999/xlink" x="0px" y="0px"
	 width="1000.637px" height="1000.678px" viewBox="15.167 -16.333 1000.637 1000.678"
	 enable-background="new 15.167 -16.333 1000.637 1000.678" xml:space="preserve">
<g>
	<path fill="none" d="M86.257,703.604c-6.715,0-12.148-5.433-12.148-12.147v-95.122c12.456-16.581,58.818-74.144,102.644-74.144
		c38.469,0,106.757,38.212,167.792,38.212c127.965,0,188.82-171.38,263.234-171.38c42.825,0,75.708,27.949,99.299,59.792
		c2.857-0.704,5.83-1.281,8.777-1.896l15.853-9.585c-27.13-39.021-68.635-75.17-129.67-75.17
		c-74.118,0-155.567,171.766-266.668,171.766c-43.428,0-119.072-40.135-157.105-40.135c-47.132,0-91.982,48.669-104.156,62.97
		V203.635c0-6.702,5.434-12.147,12.148-12.147H757.44c6.702,0,12.148,5.446,12.148,12.147v237.491
		c1.422-0.025,2.703-0.192,4.139-0.192c7.406,0,14.659,0.525,21.797,1.422V189.848c0-13.417-10.879-24.296-24.297-24.296H72.045
		c-13.417,0-24.296,10.879-24.296,24.296v515.397c0,13.43,10.879,24.295,24.296,24.295h502.673
		c-3.601-8.38-6.484-17.08-8.919-25.937H86.257z M139.642,310.265c0,29.089,23.579,52.68,52.667,52.68
		c29.102,0,52.693-23.591,52.693-52.68c0-29.089-23.591-52.68-52.693-52.68C163.221,257.585,139.642,281.176,139.642,310.265z
		 M219.181,310.176c0,14.865-12.058,26.923-26.923,26.923s-26.923-12.058-26.923-26.923c0-14.877,12.059-26.936,26.923-26.936
		S219.181,295.298,219.181,310.176z M991.507,410.551c0,0-21.054,38.571-45.811,24.168c-24.065-14.006-42.672-1.076-55.077,14.48
		c-4.792,6.01-8.201,12.123-10.789,17.876l-25.142-20.708l-25.925,34.714c-20.349-8.123-42.491-12.725-65.751-12.725
		c-97.991,0-177.428,79.438-177.428,177.43c0,97.991,79.437,177.428,177.428,177.428c98.005,0,177.429-79.437,177.429-177.428
		c0-38.88-12.647-74.722-33.842-103.951l27.102-30.37l-28.114-23.156c1.269-4.715,3.011-9.7,5.626-14.801
		c6.882-13.416,14.902-21.541,35.47-7.483c15.416,10.533,45.12-10.405,45.12-10.405L991.507,410.551z M911.482,645.03
		c0,82.397-66.788,149.187-149.173,149.187c-82.384,0-149.172-66.789-149.172-149.187c0-82.385,66.788-149.173,149.172-149.173
		c26.744,0,51.783,7.125,73.49,19.453l25.514-34.15l11.61,9.827c-0.219,1.743-0.294,2.923-0.294,2.923l23.348,17.466l-23.822,32.972
		C896.501,570.898,911.482,606.176,911.482,645.03z"/>
</g>
</svg>
