<?xml version="1.0" encoding="utf-8"?>
<!-- Generator: Adobe Illustrator 15.0.0, SVG Export Plug-In . SVG Version: 6.00 Build 0)  -->
<!DOCTYPE svg PUBLIC "-//W3C//DTD SVG 1.1//EN" "http://www.w3.org/Graphics/SVG/1.1/DTD/svg11.dtd">
<svg version="1.1" id="图形" xmlns="http://www.w3.org/2000/svg" xmlns:xlink="http://www.w3.org/1999/xlink" x="0px" y="0px"
	 width="1000.637px" height="1000.678px" viewBox="15.167 -16.333 1000.637 1000.678"
	 enable-background="new 15.167 -16.333 1000.637 1000.678" xml:space="preserve">
<g>
	<path fill="none" d="M513.833,357.927c39.814,0,72.088-32.273,72.088-72.088c0-39.797-32.273-72.07-72.088-72.07
		c-39.797,0-72.07,32.273-72.07,72.07C441.763,325.653,474.037,357.927,513.833,357.927z M513.693,232.296
		c29.479,0,53.385,23.906,53.385,53.385c0,29.496-23.906,53.385-53.385,53.385s-53.385-23.889-53.385-53.385
		C460.308,256.202,484.214,232.296,513.693,232.296z M809.955,702.774c-49.658,114.223-163.002,194.238-295.506,194.238
		c-133.541,0-247.588-81.299-296.613-196.963l-33.24,17.684c55.424,127.477,181.969,216.791,329.871,216.791
		c146.848,0,272.725-88.014,328.746-214.049L809.955,702.774z M784.185,308.866c0.035-1.758,0.193-3.48,0.193-5.238
		c0-149.203-120.955-270.141-270.141-270.141c-149.203,0-270.141,120.938-270.141,270.141c0,25.33,3.744,49.746,10.248,72.984
		c0.352,1.037,0.633,2.074,1.002,3.094c8.156,23.133,18.035,43.945,25.225,57.99c8.121,14.221,17.016,27.896,27.545,40.324
		l205.242,315.281l200.83-308.479c12.674-13.992,23.783-29.373,33.363-45.755c3.639-6.381,7.418-13.553,11.127-21.129
		c0.844-1.775,1.793-3.48,2.584-5.273c2.109-4.518,4.184-9.176,6.135-13.957c2.971-7.26,5.309-14.695,7.242-22.043l0,0
		c2.039-7.295,3.182-14.748,4.658-22.271C783.464,327.991,784.185,308.866,784.185,308.866 M513.833,68.608
		c129.551,0,234.58,105.012,234.58,234.58c0,28.881-5.467,56.408-15.012,81.949l0,0l-8.314,19.494
		c-9.281,19.283-21.041,37.09-34.998,52.998L514.115,724.061l-174.48-264.164c-15.609-17.332-28.652-36.967-38.584-58.412
		l-6.785-16.348l0,0c-9.545-25.541-15.012-53.068-15.012-81.949C279.253,173.62,384.283,68.608,513.833,68.608z"/>
</g>
</svg>
