<?xml version="1.0" encoding="utf-8"?>
<!-- Generator: Adobe Illustrator 15.0.0, SVG Export Plug-In . SVG Version: 6.00 Build 0)  -->
<!DOCTYPE svg PUBLIC "-//W3C//DTD SVG 1.1//EN" "http://www.w3.org/Graphics/SVG/1.1/DTD/svg11.dtd">
<svg version="1.1" id="图形" xmlns="http://www.w3.org/2000/svg" xmlns:xlink="http://www.w3.org/1999/xlink" x="0px" y="0px"
	 width="1000.637px" height="1000.678px" viewBox="15.167 -16.333 1000.637 1000.678"
	 enable-background="new 15.167 -16.333 1000.637 1000.678" xml:space="preserve">
<g>
	<path fill="none" d="M304.945,115.162v537.979c-21.094-20.303-49.693-32.854-81.281-32.854
		c-64.775,0-117.281,52.506-117.281,117.281c0,64.758,52.506,117.281,117.281,117.281c62.209,0,112.975-48.48,116.895-109.688h0.387
		v-432h522v231.979c-21.094-20.303-49.693-32.854-81.281-32.854c-64.775,0-117.281,52.506-117.281,117.281
		S716.888,746.85,781.664,746.85s117.281-52.506,117.281-117.281c0-3.129-0.229-6.205-0.475-9.281h0.475V115.162H304.945z
		 M222.82,818.287c-45.053,0-81.563-36.527-81.563-81.563s36.51-81.563,81.563-81.563c45.035,0,81.563,36.527,81.563,81.563
		S267.855,818.287,222.82,818.287z M780.82,710.287c-45.053,0-81.563-36.527-81.563-81.563c0-45.053,36.51-81.563,81.563-81.563
		c45.035,0,81.563,36.51,81.563,81.563C862.382,673.76,825.855,710.287,780.82,710.287z M340.945,277.162v-126h522v126H340.945z"/>
</g>
</svg>
