<?xml version="1.0" encoding="utf-8"?>
<!-- Generator: Adobe Illustrator 16.0.0, SVG Export Plug-In . SVG Version: 6.00 Build 0)  -->
<!DOCTYPE svg PUBLIC "-//W3C//DTD SVG 1.1//EN" "http://www.w3.org/Graphics/SVG/1.1/DTD/svg11.dtd">
<svg version="1.1" id="图层_1" xmlns="http://www.w3.org/2000/svg" xmlns:xlink="http://www.w3.org/1999/xlink" x="0px" y="0px"
	 width="64px" height="64px" viewBox="0 0 64 64" enable-background="new 0 0 64 64" xml:space="preserve">
<path fill-rule="evenodd" clip-rule="evenodd" d="M51.5,45.499h-7v7c0,0.552-0.447,1-1,1s-1-0.448-1-1v-7h-7c-0.553,0-1-0.448-1-1
	s0.447-0.999,1-0.999h7v-7.001c0-0.552,0.447-1,1-1s1,0.448,1,1V43.5h7c0.552,0,1,0.447,1,0.999S52.052,45.499,51.5,45.499z
	 M46.854,36.583c1.045-2.134,1.646-4.532,1.646-7.084c0-8.896-7.061-16-16-16h-4c-8.971,0-16,7.104-16,16
	c0,5.952,2.762,11.523,10.446,15.223c0,0-1.018,1.063-1.837,3.112c2.578-1.102,6.107-2.335,11.391-2.335l0,0v2l0,0
	c-9.801,0-14.001,4-14.001,4s-0.31-2.845,1.729-6.053c-5.789-3.038-9.729-9.021-9.729-15.909c0-9.963,7.837-18.039,18-18.039h4
	c0,0,18,0.128,18,18.039c0,2.996-0.708,5.851-1.992,8.369L46.854,36.583z"/>
<g>
</g>
<g>
</g>
<g>
</g>
<g>
</g>
<g>
</g>
<g>
</g>
</svg>
