<?xml version="1.0" encoding="utf-8"?>
<!-- Generator: Adobe Illustrator 16.0.0, SVG Export Plug-In . SVG Version: 6.00 Build 0)  -->
<!DOCTYPE svg PUBLIC "-//W3C//DTD SVG 1.1//EN" "http://www.w3.org/Graphics/SVG/1.1/DTD/svg11.dtd">
<svg version="1.1" id="图层_1" xmlns="http://www.w3.org/2000/svg" xmlns:xlink="http://www.w3.org/1999/xlink" x="0px" y="0px"
	 width="64px" height="64px" viewBox="0 0 64 64" enable-background="new 0 0 64 64" xml:space="preserve">
<g>
	<g>
		<path fill-rule="evenodd" clip-rule="evenodd" d="M51.5,43.499h-7v-7.001c0-0.551-0.447-0.999-1-0.999s-1,0.448-1,0.999v7.001h-7
			c-0.553,0-1,0.448-1,1s0.447,1,1,1h7v7c0,0.552,0.447,1,1,1s1-0.448,1-1v-7h7c0.552,0,1-0.448,1-1S52.052,43.499,51.5,43.499z
			 M22.312,43.908c7.115-1.148,5.179-7.387,5.179-7.387s-2.803-0.671-4.941-6.2c-3.583,0.108-3.479-4.958-1.049-4.993
			c-1.474-6.824,2.275-8.195,2.275-8.195l-0.401-2.174c3.459-0.454,3.468-1.475,6.731-1.475c4.577,0,8.699,5.251,7.442,11.95
			c2.931,0.275,1.351,4.974-1.131,4.83c-2.039,5.746-5.086,6.226-5.086,6.226s-0.782,3.035,1.109,5.29l1.245-1.742
			c-0.55-1.149-0.407-2.382-0.407-2.382c2.404-1.193,3.608-3.18,4.747-5.608c3.195-0.424,4.623-6.387,1.412-7.647
			c1.126-5.116-2.337-12.893-9.277-12.893c-5.674,0-6.426,2.215-9.425,1.057l1.056,3.507c0,0-3.311,2.17-2.302,8.294
			c-2.964,1.141-2.37,7.138,1.419,7.665c1.124,2.391,2.399,4.452,4.719,5.662c0,0,0.497,3.683-2.954,4.195
			c-6.069,0.901-12.176,1.524-12.176,9.603H39.5v-1.991h-27C13.559,45.383,16.972,44.771,22.312,43.908z"/>
	</g>
</g>
<g>
</g>
<g>
</g>
<g>
</g>
<g>
</g>
<g>
</g>
<g>
</g>
</svg>
