<?xml version="1.0" encoding="utf-8"?>
<!-- Generator: Adobe Illustrator 16.0.0, SVG Export Plug-In . SVG Version: 6.00 Build 0)  -->
<!DOCTYPE svg PUBLIC "-//W3C//DTD SVG 1.1//EN" "http://www.w3.org/Graphics/SVG/1.1/DTD/svg11.dtd">
<svg version="1.1" id="图层_1" xmlns="http://www.w3.org/2000/svg" xmlns:xlink="http://www.w3.org/1999/xlink" x="0px" y="0px"
	 width="64px" height="64px" viewBox="0 0 64 64" enable-background="new 0 0 64 64" xml:space="preserve">
<g>
	<g>
		<path fill-rule="evenodd" clip-rule="evenodd" d="M43.5,20.984c0-0.837-0.679-1.517-1.516-1.517c-0.111,0-0.219,0.014-0.322,0.036
			h-8.073c-0.3-0.042-0.614,0.035-0.845,0.266c-0.391,0.391-0.391,1.024,0,1.414c0.217,0.217,0.508,0.301,0.791,0.277v0.043h6.546
			l-4.251,4.251c-3.928-3.218-9.733-2.995-13.399,0.671c-3.905,3.905-3.905,10.237,0,14.143s10.237,3.905,14.142,0
			c3.667-3.667,3.89-9.472,0.671-13.4l4.252-4.251v6.547c-0.005,0.263,0.089,0.527,0.289,0.728c0.391,0.391,1.023,0.391,1.414,0
			c0.2-0.201,0.294-0.465,0.289-0.728h0.008v-8.432C43.496,21.017,43.5,21.001,43.5,20.984z M35.158,39.154
			c-3.124,3.125-8.189,3.125-11.313,0c-3.124-3.124-3.124-8.189,0-11.313c3.123-3.123,8.187-3.124,11.311-0.002l0.005,0.005
			C38.283,30.968,38.282,36.031,35.158,39.154z"/>
	</g>
</g>
<g>
</g>
<g>
</g>
<g>
</g>
<g>
</g>
<g>
</g>
<g>
</g>
</svg>
