<?xml version="1.0" encoding="utf-8"?>
<!-- Generator: Adobe Illustrator 16.0.0, SVG Export Plug-In . SVG Version: 6.00 Build 0)  -->
<!DOCTYPE svg PUBLIC "-//W3C//DTD SVG 1.1//EN" "http://www.w3.org/Graphics/SVG/1.1/DTD/svg11.dtd">
<svg version="1.1" id="图层_1" xmlns="http://www.w3.org/2000/svg" xmlns:xlink="http://www.w3.org/1999/xlink" x="0px" y="0px"
	 width="64px" height="64px" viewBox="0 0 64 64" enable-background="new 0 0 64 64" xml:space="preserve">
<g>
	<g>
		<path fill-rule="evenodd" clip-rule="evenodd" d="M40.569,23.396c-3.905-3.905-10.237-3.905-14.143,0
			c-3.667,3.667-3.89,9.471-0.672,13.399l-1.449,1.449l-3.535-3.535c-0.391-0.391-1.024-0.391-1.415,0
			c-0.39,0.391-0.39,1.024,0,1.414l3.536,3.536l-2.121,2.121c-0.391,0.391-0.391,1.023,0,1.414s1.023,0.391,1.414,0l2.122-2.121
			l3.536,3.535c0.39,0.391,1.023,0.391,1.414,0s0.391-1.023,0-1.414L25.72,39.66l1.449-1.45c3.928,3.218,9.733,2.995,13.4-0.671
			C44.475,33.634,44.475,27.302,40.569,23.396z M39.155,36.124c-3.124,3.125-8.189,3.125-11.313,0
			c-3.125-3.124-3.125-8.189,0-11.313c3.124-3.124,8.189-3.124,11.313,0S42.279,33,39.155,36.124z"/>
	</g>
</g>
<g>
</g>
<g>
</g>
<g>
</g>
<g>
</g>
<g>
</g>
<g>
</g>
</svg>
