<?xml version="1.0" encoding="utf-8"?>
<!-- Generator: Adobe Illustrator 16.0.0, SVG Export Plug-In . SVG Version: 6.00 Build 0)  -->
<!DOCTYPE svg PUBLIC "-//W3C//DTD SVG 1.1//EN" "http://www.w3.org/Graphics/SVG/1.1/DTD/svg11.dtd">
<svg version="1.1" id="图层_1" xmlns="http://www.w3.org/2000/svg" xmlns:xlink="http://www.w3.org/1999/xlink" x="0px" y="0px"
	 width="64px" height="64px" viewBox="0 0 64 64" enable-background="new 0 0 64 64" xml:space="preserve">
<g>
	<g>
		<path fill-rule="evenodd" clip-rule="evenodd" d="M46.5,33.5c-0.553,0-1,0.447-1,1v15h-8v-11c0-0.553-0.447-1-1-1h-10
			c-0.553,0-1,0.447-1,1v11h-8v-15c0-0.553-0.447-1-1-1s-1,0.447-1,1v16c0,0.553,0.447,1,1,1h10c0.553,0,1-0.447,1-1v-11h8v11
			c0,0.553,0.447,1,1,1h10c0.553,0,1-0.447,1-1v-16C47.5,33.947,47.053,33.5,46.5,33.5z M51.35,31.793L32.207,12.651
			c-0.391-0.391-1.023-0.391-1.414,0L11.65,31.793c-0.391,0.391-0.391,1.023,0,1.414s1.024,0.391,1.414,0L31.5,14.772l18.435,18.435
			c0.391,0.391,1.024,0.391,1.415,0S51.74,32.184,51.35,31.793z M40.5,18.5h3v3c0,0.552,0.447,1,1,1s1-0.448,1-1v-4
			c0-0.552-0.447-1-1-1h-4c-0.553,0-1,0.448-1,1S39.947,18.5,40.5,18.5z"/>
	</g>
</g>
</svg>
