<?xml version="1.0" encoding="utf-8"?>
<!-- Generator: Adobe Illustrator 16.0.0, SVG Export Plug-In . SVG Version: 6.00 Build 0)  -->
<!DOCTYPE svg PUBLIC "-//W3C//DTD SVG 1.1//EN" "http://www.w3.org/Graphics/SVG/1.1/DTD/svg11.dtd">
<svg version="1.1" id="图层_1" xmlns="http://www.w3.org/2000/svg" xmlns:xlink="http://www.w3.org/1999/xlink" x="0px" y="0px"
	 width="64px" height="64px" viewBox="0 0 64 64" enable-background="new 0 0 64 64" xml:space="preserve">
<g>
	<g>
		<path fill-rule="evenodd" clip-rule="evenodd" d="M45.5,15.5h-28c-2.762,0-5,2.238-5,5v18c0,2.762,2.238,5,5,5h13v4h-11
			c-0.553,0-1,0.447-1,1s0.447,1,1,1h24c0.553,0,1-0.447,1-1s-0.447-1-1-1h-11v-4h13c2.762,0,5-2.238,5-5v-18
			C50.5,17.738,48.262,15.5,45.5,15.5z M48.5,38.5c0,1.656-1.343,3-3,3h-28c-1.657,0-3-1.344-3-3v-18c0-1.657,1.343-3,3-3h28
			c1.657,0,3,1.343,3,3V38.5z"/>
	</g>
</g>
<g>
</g>
<g>
</g>
<g>
</g>
<g>
</g>
<g>
</g>
<g>
</g>
</svg>
