<?xml version="1.0" encoding="utf-8"?>
<!-- Generator: Adobe Illustrator 16.0.0, SVG Export Plug-In . SVG Version: 6.00 Build 0)  -->
<!DOCTYPE svg PUBLIC "-//W3C//DTD SVG 1.1//EN" "http://www.w3.org/Graphics/SVG/1.1/DTD/svg11.dtd">
<svg version="1.1" id="图层_1" xmlns="http://www.w3.org/2000/svg" xmlns:xlink="http://www.w3.org/1999/xlink" x="0px" y="0px"
	 width="64px" height="64px" viewBox="0 0 64 64" enable-background="new 0 0 64 64" xml:space="preserve">
<g>
	<g>
		<path fill-rule="evenodd" clip-rule="evenodd" d="M41.537,27.933c-0.036-5.239-4.29-9.475-9.537-9.475
			c-5.27,0-9.542,4.272-9.542,9.542c0,1.662,0.426,3.223,1.173,4.583c0.781,1.786,1.703,3.382,1.703,3.382l6.521,10.867
			l6.584-10.867c0,0,1.034-1.588,1.918-3.363c0.191-0.348,0.357-0.711,0.506-1.083c0.42-0.974,0.725-1.921,0.725-2.618
			C41.588,28.573,41.57,28.251,41.537,27.933z M32.008,32.525c-2.507,0-4.539-2.032-4.539-4.539s2.032-4.539,4.539-4.539
			s4.539,2.032,4.539,4.539S34.515,32.525,32.008,32.525z"/>
	</g>
</g>
</svg>
