<?xml version="1.0" encoding="utf-8"?>
<!-- Generator: Adobe Illustrator 16.0.0, SVG Export Plug-In . SVG Version: 6.00 Build 0)  -->
<!DOCTYPE svg PUBLIC "-//W3C//DTD SVG 1.1//EN" "http://www.w3.org/Graphics/SVG/1.1/DTD/svg11.dtd">
<svg version="1.1" id="图层_1" xmlns="http://www.w3.org/2000/svg" xmlns:xlink="http://www.w3.org/1999/xlink" x="0px" y="0px"
	 width="64px" height="64px" viewBox="0 0 64 64" enable-background="new 0 0 64 64" xml:space="preserve">
<path fill-rule="evenodd" clip-rule="evenodd" d="M44.5,50.499L44.5,50.499h-26l0,0c-2.762,0-5-2.238-5-5V40.5h2v4.999
	c0,1.657,1.343,3,3,3h26c1.657,0,3-1.343,3-3V40.5h2v4.999C49.5,48.261,47.262,50.499,44.5,50.499z M48.5,31.5c0.553,0,1,0.448,1,1
	c0,0.553-0.447,1-1,1h-34c-0.553,0-1-0.447-1-1c0-0.552,0.447-1,1-1H48.5z M47.5,19.499c0-1.657-1.343-3-3-3h-26
	c-1.657,0-3,1.343-3,3V24.5h-2v-5.001c0-2.761,2.238-5,5-5h26c2.762,0,5,2.239,5,5V24.5h-2V19.499z"/>
<g>
</g>
<g>
</g>
<g>
</g>
<g>
</g>
<g>
</g>
<g>
</g>
</svg>
