<?xml version="1.0" encoding="utf-8"?>
<!-- Generator: Adobe Illustrator 16.0.0, SVG Export Plug-In . SVG Version: 6.00 Build 0)  -->
<!DOCTYPE svg PUBLIC "-//W3C//DTD SVG 1.1//EN" "http://www.w3.org/Graphics/SVG/1.1/DTD/svg11.dtd">
<svg version="1.1" id="图层_1" xmlns="http://www.w3.org/2000/svg" xmlns:xlink="http://www.w3.org/1999/xlink" x="0px" y="0px"
	 width="128px" height="128px" viewBox="0 0 128 128" enable-background="new 0 0 128 128" xml:space="preserve">
<g>
	<path fill-rule="evenodd" clip-rule="evenodd" d="M73.5,43.5h3v40h-3V43.5z"/>
	<path fill-rule="evenodd" clip-rule="evenodd" d="M52.5,43.5h3v40h-3V43.5z"/>
	<g>
		<path d="M64.5,15.5c26.468,0,48,21.533,48,48c0,26.468-21.532,48-48,48c-26.467,0-48-21.532-48-48
			C16.5,37.033,38.033,15.5,64.5,15.5 M64.5,13.5c-27.614,0-50,22.386-50,50s22.386,50,50,50s50-22.386,50-50S92.114,13.5,64.5,13.5
			L64.5,13.5z"/>
	</g>
</g>
<g>
</g>
<g>
</g>
<g>
</g>
<g>
</g>
<g>
</g>
<g>
</g>
</svg>
