<?xml version="1.0" encoding="utf-8"?>
<!-- Generator: Adobe Illustrator 16.0.0, SVG Export Plug-In . SVG Version: 6.00 Build 0)  -->
<!DOCTYPE svg PUBLIC "-//W3C//DTD SVG 1.1//EN" "http://www.w3.org/Graphics/SVG/1.1/DTD/svg11.dtd">
<svg version="1.1" id="图层_1" xmlns="http://www.w3.org/2000/svg" xmlns:xlink="http://www.w3.org/1999/xlink" x="0px" y="0px"
	 width="64px" height="64px" viewBox="0 0 64 64" enable-background="new 0 0 64 64" xml:space="preserve">
<path fill-rule="evenodd" clip-rule="evenodd" d="M32,10c-12.15,0-22,9.85-22,22c0,12.151,9.85,22,22,22s22-9.85,22-22
	C54,19.849,44.15,10,32,10z M45.442,25.679L30.36,40.449c-0.076,0.126-0.168,0.254-0.292,0.378l-0.707,0.707
	c-0.391,0.391-0.851,0.564-1.027,0.388l-7.184-7.518c-0.176-0.176-0.003-0.635,0.388-1.025l0.707-0.708
	c0.39-0.391,0.85-0.564,1.026-0.388l5.385,5.634l14.665-14.361c0.39-0.391,1.023-0.391,1.414,0l0.707,0.707
	C45.833,24.655,45.833,25.288,45.442,25.679z"/>
</svg>
