<?xml version="1.0" encoding="utf-8"?>
<!-- Generator: Adobe Illustrator 16.0.0, SVG Export Plug-In . SVG Version: 6.00 Build 0)  -->
<!DOCTYPE svg PUBLIC "-//W3C//DTD SVG 1.1//EN" "http://www.w3.org/Graphics/SVG/1.1/DTD/svg11.dtd">
<svg version="1.1" id="图层_1" xmlns="http://www.w3.org/2000/svg" xmlns:xlink="http://www.w3.org/1999/xlink" x="0px" y="0px"
	 width="64px" height="64px" viewBox="0 0 64 64" enable-background="new 0 0 64 64" xml:space="preserve">
<path fill-rule="evenodd" clip-rule="evenodd" d="M32,14c9.941,0,18,8.059,18,18c0,9.942-8.059,18-18,18c-9.941,0-18-8.059-18-18
	C14,22.059,22.059,14,32,14z"/>
<path fill="#FFFFFF" d="M42.899,25.757l-0.707-0.707c-0.391-0.391-1.023-0.391-1.414,0L29.464,36.363l-4.243-4.242
	c-0.391-0.391-1.023-0.391-1.414,0l-0.707,0.708c-0.391,0.39-0.391,1.023,0,1.414l4.95,4.95l0.707,0.707
	c0.391,0.391,1.024,0.391,1.414,0l0.707-0.707l12.021-12.021C43.29,26.781,43.29,26.148,42.899,25.757z"/>
</svg>
