<?xml version="1.0" encoding="utf-8"?>
<!-- Generator: Adobe Illustrator 16.0.0, SVG Export Plug-In . SVG Version: 6.00 Build 0)  -->
<!DOCTYPE svg PUBLIC "-//W3C//DTD SVG 1.1//EN" "http://www.w3.org/Graphics/SVG/1.1/DTD/svg11.dtd">
<svg version="1.1" id="图层_1" xmlns="http://www.w3.org/2000/svg" xmlns:xlink="http://www.w3.org/1999/xlink" x="0px" y="0px"
	 width="64px" height="64px" viewBox="0 0 64 64" enable-background="new 0 0 64 64" xml:space="preserve">
<g>
	<g>
		<path fill-rule="evenodd" clip-rule="evenodd" d="M39.5,27h-1c-0.553,0-1,0.448-1,1v10c0,0.552,0.447,1,1,1h1c0.553,0,1-0.448,1-1
			V28C40.5,27.448,40.053,27,39.5,27z M33.5,27h-2c0,0,0,5.812,0,7c0.031,1.594-2,2-2,2s-2-0.406-2-2c0-1.375,0-7,0-7h-2
			c-0.552,0-1,0.448-1,1v7c0.031,0.104,3.521,4.031,4,4h2c0.573,0,4-4.021,4-4v-7C34.5,27.448,34.053,27,33.5,27z M50,27h-3
			c-0.347,0-0.675,0.066-0.99,0.16C45.858,27.067,45.69,27,45.5,27h-1c-0.553,0-1,0.448-1,1v10c0,0.553,0.447,1,1,1h1
			c0.553,0,1-0.447,1-1v-3.051C46.665,34.974,46.829,35,47,35h3c1.933,0,3.5-1.567,3.5-3.5v-1C53.5,28.567,51.933,27,50,27z
			 M50.5,32c0,0.552-0.448,1-1,1h-3v-4h3c0.552,0,1,0.447,1,1V32z M19.559,31h1.06c0.368,0,0.691-0.177,0.881-0.445
			c0-0.751-0.148-1.237-0.373-1.555h0.023c-0.563-1.179-1.756-2-3.15-2c-0.172,0-0.335,0.034-0.5,0.06V27h-3v0.05
			c-1.694,0.245-3,1.688-3,3.45c0,1.892,1.503,3.423,3.379,3.488c-0.002,0.004-0.004,0.008-0.006,0.012H17.5c0.552,0,1,0.447,1,1v1
			c0,0.553-0.448,1-1,1h-3v-1c0-0.553-0.474-1-1.059-1h-1.06c-0.368,0-0.691,0.177-0.881,0.445c-0.003,0.76,0.155,1.244,0.394,1.555
			H11.85c0.563,1.179,1.757,2,3.15,2c0.172,0,0.335-0.034,0.5-0.06V39h3v-0.051c1.694-0.244,3-1.688,3-3.449
			c0-1.884-1.492-3.409-3.357-3.486c0.002-0.004,0.003-0.01,0.005-0.014H15.5c-0.552,0-1-0.448-1-1v-1c0-0.552,0.448-1,1-1h3v1
			C18.5,30.552,18.974,31,19.559,31z"/>
	</g>
</g>
<g>
</g>
<g>
</g>
<g>
</g>
<g>
</g>
<g>
</g>
<g>
</g>
</svg>
