<?xml version="1.0" encoding="utf-8"?>
<!-- Generator: Adobe Illustrator 16.0.0, SVG Export Plug-In . SVG Version: 6.00 Build 0)  -->
<!DOCTYPE svg PUBLIC "-//W3C//DTD SVG 1.1//EN" "http://www.w3.org/Graphics/SVG/1.1/DTD/svg11.dtd">
<svg version="1.1" id="图层_1" xmlns="http://www.w3.org/2000/svg" xmlns:xlink="http://www.w3.org/1999/xlink" x="0px" y="0px"
	 width="64px" height="64px" viewBox="0 0 64 64" enable-background="new 0 0 64 64" xml:space="preserve">
<path d="M25,26h-1h-1c0,0,0,5.812,0,7c0.031,1.594-2,2-2,2s-2-0.406-2-2c0-1.375,0-7,0-7h-1h-1c-0.552,0-1,0.448-1,1v1v4v2
	c0.031,0.104,3.521,4.031,4,4h2c0.573,0,4-4.021,4-4v-2v-4v-1C26,26.448,25.552,26,25,26z"/>
<path fill-rule="evenodd" clip-rule="evenodd" d="M31,26h1c0.553,0,1,0.448,1,1v10c0,0.552-0.447,1-1,1h-1c-0.553,0-1-0.448-1-1V27
	C30,26.448,30.447,26,31,26z"/>
<path fill-rule="evenodd" clip-rule="evenodd" d="M43.5,26h-3c-0.347,0-0.675,0.066-0.99,0.16C39.358,26.067,39.19,26,39,26h-1
	c-0.553,0-1,0.448-1,1v2.5v1V37c0,0.553,0.447,1,1,1h1c0.553,0,1-0.447,1-1v-3.051C40.165,33.974,40.329,34,40.5,34h3
	c1.934,0,3.5-1.566,3.5-3.5v-1C47,27.567,45.434,26,43.5,26z M44,31c0,0.552-0.447,1-1,1h-3v-4h3c0.553,0,1,0.447,1,1V31z"/>
<g>
</g>
<g>
</g>
<g>
</g>
<g>
</g>
<g>
</g>
<g>
</g>
</svg>
