<?xml version="1.0" encoding="utf-8"?>
<!-- Generator: Adobe Illustrator 16.0.0, SVG Export Plug-In . SVG Version: 6.00 Build 0)  -->
<!DOCTYPE svg PUBLIC "-//W3C//DTD SVG 1.1//EN" "http://www.w3.org/Graphics/SVG/1.1/DTD/svg11.dtd">
<svg version="1.1" id="图层_1" xmlns="http://www.w3.org/2000/svg" xmlns:xlink="http://www.w3.org/1999/xlink" x="0px" y="0px"
	 width="64px" height="64px" viewBox="0 0 64 64" enable-background="new 0 0 64 64" xml:space="preserve">
<path fill-rule="evenodd" clip-rule="evenodd" d="M32,13.999c-9.941,0-18,8.059-18,18c0,9.941,8.059,18,18,18
	c9.941,0,18-8.059,18-18C50,22.058,41.941,13.999,32,13.999z M32,43.037c-1.394,0-2.524-1.13-2.524-2.524
	c0-1.394,1.13-2.523,2.524-2.523c1.395,0,2.524,1.13,2.524,2.523C34.524,41.907,33.395,43.037,32,43.037z M33.391,34.844
	c-0.219,0.687-0.77,1.125-1.391,1.125c-0.622,0-1.203-0.531-1.391-1.125C30.422,34.249,29,27.98,29,24.043c0-1,1-3.062,2.969-3.062
	S35,23.012,35,24.043C35,28.012,33.609,34.155,33.391,34.844z"/>
</svg>
