<?xml version="1.0" encoding="utf-8"?>
<!-- Generator: Adobe Illustrator 16.0.0, SVG Export Plug-In . SVG Version: 6.00 Build 0)  -->
<!DOCTYPE svg PUBLIC "-//W3C//DTD SVG 1.1//EN" "http://www.w3.org/Graphics/SVG/1.1/DTD/svg11.dtd">
<svg version="1.1" id="图层_1" xmlns="http://www.w3.org/2000/svg" xmlns:xlink="http://www.w3.org/1999/xlink" x="0px" y="0px"
	 width="64px" height="64px" viewBox="0 0 64 64" enable-background="new 0 0 64 64" xml:space="preserve">
<path fill-rule="evenodd" clip-rule="evenodd" d="M32,11c-12.15,0-22,9.85-22,22c0,12.151,9.85,22,22,22s22-9.849,22-22
	C54,20.849,44.15,11,32,11z M32,45.037c-1.394,0-2.524-1.13-2.524-2.524c0-1.394,1.13-2.524,2.524-2.524
	c1.395,0,2.524,1.131,2.524,2.524C34.524,43.907,33.395,45.037,32,45.037z M33.391,36.844c-0.219,0.687-0.77,1.125-1.391,1.125
	c-0.622,0-1.203-0.532-1.391-1.125C30.422,36.249,29,26.98,29,23.043c0-1,1-3.062,2.969-3.062S35,22.012,35,23.043
	C35,27.011,33.609,36.156,33.391,36.844z"/>
</svg>
