<?xml version="1.0" encoding="utf-8"?>
<!-- Generator: Adobe Illustrator 16.0.0, SVG Export Plug-In . SVG Version: 6.00 Build 0)  -->
<!DOCTYPE svg PUBLIC "-//W3C//DTD SVG 1.1//EN" "http://www.w3.org/Graphics/SVG/1.1/DTD/svg11.dtd">
<svg version="1.1" id="图层_1" xmlns="http://www.w3.org/2000/svg" xmlns:xlink="http://www.w3.org/1999/xlink" x="0px" y="0px"
	 width="64px" height="64px" viewBox="0 0 64 64" enable-background="new 0 0 64 64" xml:space="preserve">
<path fill-rule="evenodd" clip-rule="evenodd" d="M32,6C17.641,6,6,17.641,6,32s11.641,26,26,26s26-11.641,26-26S46.359,6,32,6z
	 M32,56.143C18.666,56.143,7.857,45.334,7.857,32S18.666,7.857,32,7.857S56.143,18.666,56.143,32S45.334,56.143,32,56.143z"/>
<path fill-rule="evenodd" clip-rule="evenodd" d="M45.613,27.293c-0.391-0.391-1.023-0.391-1.414,0L32,39.492L19.801,27.293
	c-0.391-0.391-1.023-0.391-1.414,0s-0.391,1.023,0,1.414l12.899,12.899c0.197,0.197,0.456,0.293,0.714,0.292
	c0.258,0.001,0.517-0.095,0.714-0.292l12.899-12.899C46.004,28.316,46.004,27.684,45.613,27.293z"/>
<g>
</g>
<g>
</g>
<g>
</g>
<g>
</g>
<g>
</g>
<g>
</g>
</svg>
