<?xml version="1.0" encoding="utf-8"?>
<!-- Generator: Adobe Illustrator 16.0.0, SVG Export Plug-In . SVG Version: 6.00 Build 0)  -->
<!DOCTYPE svg PUBLIC "-//W3C//DTD SVG 1.1//EN" "http://www.w3.org/Graphics/SVG/1.1/DTD/svg11.dtd">
<svg version="1.1" id="图层_1" xmlns="http://www.w3.org/2000/svg" xmlns:xlink="http://www.w3.org/1999/xlink" x="0px" y="0px"
	 width="64px" height="64px" viewBox="0 0 64 64" enable-background="new 0 0 64 64" xml:space="preserve">
<path d="M32.785,12.5c4.999,0,7.776,4.057,8.282,4.87l0.027,0.043l0.023,0.049c0.636,1.285,0.791,2.591,0.928,3.743
	c0.148,1.259,0.144,2.392,0.113,3.122l-0.039,0.938l0.696,0.629c0.56,0.505,0.881,1.231,0.881,1.992c0,1.475-1.101,3.77-2.27,4.186
	l-0.756,0.269l-0.36,0.717c-0.854,1.697-2.316,3.985-4.434,5.252l-0.973,0.582v1.135v1.556v0.675l0.409,0.537
	c0.996,1.308,2.148,1.872,4.241,2.081c2.597,0.281,10.451,1.784,12.433,4.892c0.165,0.262,0.408,1.183,0.487,2.734H12.529
	c0.113-2.142,0.448-2.729,0.463-2.754c1.768-2.958,9.121-4.57,12.388-4.886c1.991-0.166,3.326-0.823,4.329-2.133l0.412-0.538v-0.678
	v-1.557v-1.107l-0.939-0.588c-2.025-1.268-3.452-3.511-4.293-5.17l-0.386-0.761l-0.816-0.249c-1.267-0.385-2.395-2.667-2.395-4.195
	c0-0.811,0.353-1.567,0.967-2.075l0.632-0.521l0.084-0.814l0.014-0.105l0.029-0.223l-0.02-0.223
	c-0.045-0.527-0.068-1.097-0.068-1.696c0-3.095,0.896-4.396,1.429-4.897l0.896-0.84l-0.344-1.179
	c-0.109-0.377-0.259-0.889-0.38-1.329c1.083-0.057,2.905-0.25,4.764-0.875C30.492,12.704,31.666,12.5,32.785,12.5 M32.785,10.5
	c-1.337,0-2.726,0.239-4.129,0.711c-2.189,0.737-4.331,0.794-4.937,0.794l-0.147-0.001c-0.018-0.001-0.036-0.001-0.054-0.001
	c-0.426,0-0.833,0.254-1.04,0.644c-0.252,0.474-0.276,0.523,0.512,3.225c-0.893,0.837-2.061,2.644-2.061,6.356
	c0,0.644,0.024,1.271,0.076,1.869c-0.008,0.057-0.014,0.116-0.021,0.172c-1.071,0.885-1.693,2.196-1.693,3.617
	c0,2.158,1.494,5.403,3.812,6.108c1.033,2.039,2.669,4.492,5.017,5.961v1.557c-0.503,0.656-1.206,1.214-2.907,1.355
	c-0.11,0.009-11.11,1.121-13.938,5.854c-0.58,0.973-0.741,3-0.775,4.529c-0.008,0.33,0.115,0.647,0.341,0.883
	s0.535,0.367,0.857,0.367h41.601c0.321,0,0.628-0.129,0.854-0.362s0.35-0.546,0.347-0.874c-0.011-1.003-0.113-3.455-0.825-4.572
	c-2.92-4.584-13.8-5.795-13.908-5.807c-1.807-0.18-2.345-0.627-2.86-1.304v-1.556c2.463-1.475,4.144-3.986,5.192-6.07
	c2.19-0.778,3.6-3.98,3.6-6.069c0-1.34-0.563-2.594-1.54-3.476c0.035-0.845,0.036-2.071-0.125-3.438
	c-0.148-1.25-0.332-2.801-1.121-4.396c-0.015-0.038-0.033-0.073-0.052-0.107c-0.001-0.002-0.002-0.004-0.002-0.006
	c-0.005-0.009-0.01-0.018-0.016-0.027c-0.023-0.043-0.049-0.083-0.076-0.122C42.125,15.284,38.826,10.5,32.785,10.5L32.785,10.5z"/>
</svg>
