<?xml version="1.0" encoding="utf-8"?>
<!-- Generator: Adobe Illustrator 16.0.0, SVG Export Plug-In . SVG Version: 6.00 Build 0)  -->
<!DOCTYPE svg PUBLIC "-//W3C//DTD SVG 1.1//EN" "http://www.w3.org/Graphics/SVG/1.1/DTD/svg11.dtd">
<svg version="1.1" id="图层_1" xmlns="http://www.w3.org/2000/svg" xmlns:xlink="http://www.w3.org/1999/xlink" x="0px" y="0px"
	 width="64px" height="64px" viewBox="0 0 64 64" enable-background="new 0 0 64 64" xml:space="preserve">
<path fill-rule="evenodd" clip-rule="evenodd" d="M58.468,28.646c-0.069,0.153-0.177,0.287-0.31,0.386l-8.019,5.061
	c-0.174,0.132-0.383,0.202-0.598,0.202c-0.049,0-0.099-0.003-0.147-0.011c-0.265-0.038-0.502-0.181-0.661-0.398L46.499,30.5
	l0.003,15h-0.003v4c0,3.313-2.687,6-6,6h-18c-3.313,0-6-2.687-6-6v-12c0-0.002,0-0.002,0-0.004V30.5l-2.235,3.386
	c-0.158,0.218-0.396,0.36-0.66,0.398c-0.049,0.008-0.098,0.011-0.146,0.011c-0.215,0-0.426-0.07-0.6-0.202L4.84,29.032
	c-0.134-0.1-0.241-0.235-0.312-0.388c-0.529-1.163,4.856-10.573,7.937-14.187c2.154-2.528,5.857-4.192,11.002-4.946
	c0.052-0.009,0.103-0.013,0.153-0.013c0.444,0,0.848,0.313,0.961,0.763c0.554,2.184,3.527,3.237,6.918,3.237
	s6.364-1.054,6.918-3.236c0.113-0.451,0.516-0.762,0.965-0.762c0.05,0,0.1,0.004,0.149,0.012c5.146,0.753,8.848,2.417,11.002,4.945
	C53.614,18.072,58.999,27.483,58.468,28.646z M49.011,15.755c-1.723-2.022-4.734-3.412-8.96-4.135
	c-1.202,2.638-4.622,3.879-8.552,3.879s-7.352-1.242-8.552-3.88c-4.238,0.73-7.241,2.118-8.96,4.136
	c-2.698,3.165-6.367,9.954-7.295,12.171l6.514,3.924l5.252-7.026l0.012,6.69l0.002,1.565c0.009-0.008,0.019-0.014,0.027-0.021
	v16.441c0,2.209,1.791,4,4,4h18c2.209,0,4-1.791,4-4V33.058c0.009,0.009,0.02,0.014,0.028,0.021l0.002-1.565l0.009-6.695
	l5.253,7.031l6.513-3.923C55.378,25.711,51.709,18.92,49.011,15.755z"/>
<g>
</g>
<g>
</g>
<g>
</g>
<g>
</g>
<g>
</g>
<g>
</g>
</svg>
