<?xml version="1.0" encoding="utf-8"?>
<!-- Generator: Adobe Illustrator 16.0.0, SVG Export Plug-In . SVG Version: 6.00 Build 0)  -->
<!DOCTYPE svg PUBLIC "-//W3C//DTD SVG 1.1//EN" "http://www.w3.org/Graphics/SVG/1.1/DTD/svg11.dtd">
<svg version="1.1" id="图层_1" xmlns="http://www.w3.org/2000/svg" xmlns:xlink="http://www.w3.org/1999/xlink" x="0px" y="0px"
	 width="64px" height="64px" viewBox="0 0 64 64" enable-background="new 0 0 64 64" xml:space="preserve">
<path fill-rule="evenodd" clip-rule="evenodd" fill="none" d="M32.156,46.184C24.337,46.184,18,39.846,18,32.028
	c0-7.819,6.337-14.157,14.156-14.157c7.818,0,14.156,6.338,14.156,14.157C46.312,39.846,39.975,46.184,32.156,46.184z
	 M38.795,27.164c0.385-0.385,0.271-1.125-0.254-1.65l-0.06-0.059c-0.525-0.525-1.264-0.64-1.649-0.254l-4.709,4.71l-5.051-5.052
	c-0.391-0.391-1.14-0.275-1.672,0.258l-0.06,0.06c-0.533,0.532-0.647,1.281-0.257,1.67l5.051,5.052l-4.929,4.928
	c-0.386,0.387-0.272,1.124,0.254,1.65l0.059,0.059c0.525,0.525,1.264,0.641,1.649,0.254l4.93-4.93l4.77,4.771
	c0.391,0.39,1.139,0.276,1.671-0.257l0.061-0.061c0.533-0.531,0.648-1.28,0.257-1.671l-4.77-4.771L38.795,27.164z"/>
<g>
</g>
<g>
</g>
<g>
</g>
<g>
</g>
<g>
</g>
<g>
</g>
</svg>
