<?xml version="1.0" encoding="utf-8"?>
<!-- Generator: Adobe Illustrator 16.0.0, SVG Export Plug-In . SVG Version: 6.00 Build 0)  -->
<!DOCTYPE svg PUBLIC "-//W3C//DTD SVG 1.1//EN" "http://www.w3.org/Graphics/SVG/1.1/DTD/svg11.dtd">
<svg version="1.1" id="图层_1" xmlns="http://www.w3.org/2000/svg" xmlns:xlink="http://www.w3.org/1999/xlink" x="0px" y="0px"
	 width="64px" height="64px" viewBox="0 0 64 64" enable-background="new 0 0 64 64" xml:space="preserve">
<g>
	<path fill-rule="evenodd" clip-rule="evenodd" d="M32.003,6.005c-14.354,0-25.991,11.636-25.991,25.991
		c0,14.353,11.636,25.991,25.991,25.991s25.99-11.638,25.99-25.991C57.993,17.641,46.357,6.005,32.003,6.005z M32.002,55.992
		c-13.257,0-24.004-10.747-24.004-24.004S18.746,7.985,32.002,7.985c13.256,0,24.003,10.747,24.003,24.003
		S45.259,55.992,32.002,55.992z"/>
	<path fill-rule="evenodd" clip-rule="evenodd" d="M41.899,22.099c-0.392-0.391-1.024-0.391-1.414,0L32,30.584l-8.486-8.485
		c-0.39-0.391-1.023-0.391-1.414,0c-0.39,0.39-0.39,1.023,0,1.414l8.485,8.485L22.1,40.483c-0.39,0.391-0.39,1.024,0,1.415
		c0.391,0.39,1.023,0.39,1.414,0L32,33.412l8.486,8.486c0.39,0.39,1.022,0.39,1.414,0c0.39-0.391,0.39-1.024,0-1.415l-8.485-8.485
		l8.485-8.485C42.289,23.122,42.289,22.489,41.899,22.099z"/>
</g>
<g>
</g>
<g>
</g>
<g>
</g>
<g>
</g>
<g>
</g>
<g>
</g>
</svg>
