<?xml version="1.0" encoding="utf-8"?>
<!-- Generator: Adobe Illustrator 16.0.0, SVG Export Plug-In . SVG Version: 6.00 Build 0)  -->
<!DOCTYPE svg PUBLIC "-//W3C//DTD SVG 1.1//EN" "http://www.w3.org/Graphics/SVG/1.1/DTD/svg11.dtd">
<svg version="1.1" id="图层_1" xmlns="http://www.w3.org/2000/svg" xmlns:xlink="http://www.w3.org/1999/xlink" x="0px" y="0px"
	 width="64px" height="64px" viewBox="0 0 64 64" enable-background="new 0 0 64 64" xml:space="preserve">
<g>
	<path d="M38,45.999c0,0.553,0.447,1,1,1c0.552,0,1-0.447,1-1v-20c0-0.552-0.448-1-1-1c-0.553,0-1,0.448-1,1V45.999z"/>
	<path d="M56,15.999h-1.572H51h-2h-6v-3c0-0.772-0.3-1.468-0.778-2c-0.55-0.609-1.337-1-2.222-1H26c-0.885,0-1.672,0.391-2.222,1
		c-0.479,0.532-0.779,1.228-0.779,2v3h-6h-2h-3.857H10c-0.553,0-1,0.447-1,1c0,0.552,0.448,1,1,1h5v34.004c0,3.313,1.687,5,5,5h26
		c3.312,0,5-1.687,5-5V17.999h5c0.551,0,1-0.447,1-1S56.551,15.999,56,15.999z M25,13.999c0-1.105,0.895-2,2-2h12
		c1.104,0,2,0.895,2,2v2H25V13.999z M49,51.999c0,2.209-0.792,3-3,3H20c-2.209,0-3-0.791-3-3v-34h32V51.999z"/>
	<path d="M26,45.999c0,0.553,0.448,1,1,1c0.552,0,1-0.447,1-1v-20c0-0.552-0.448-1-1-1c-0.552,0-1,0.448-1,1V45.999z"/>
</g>
</svg>
