<?xml version="1.0" encoding="utf-8"?>
<!-- Generator: Adobe Illustrator 16.0.0, SVG Export Plug-In . SVG Version: 6.00 Build 0)  -->
<!DOCTYPE svg PUBLIC "-//W3C//DTD SVG 1.1//EN" "http://www.w3.org/Graphics/SVG/1.1/DTD/svg11.dtd">
<svg version="1.1" id="图层_1" xmlns="http://www.w3.org/2000/svg" xmlns:xlink="http://www.w3.org/1999/xlink" x="0px" y="0px"
	 width="64px" height="64px" viewBox="0 0 64 64" enable-background="new 0 0 64 64" xml:space="preserve">
<g>
	<g>
		<path fill-rule="evenodd" clip-rule="evenodd" d="M33.494,46.525c-8.847,0-16.019-7.172-16.019-16.019
			c0-0.343,0.028-0.68,0.051-1.017h3.669L15.5,23.168v6.321h0.037C15.515,29.824,15.5,30.16,15.5,30.5c0,9.941,8.059,18,18,18
			c4.162,0,7.983-1.426,11.032-3.798l-1.863-1.076C40.068,45.448,36.909,46.525,33.494,46.525z M51.5,30.5c0-9.941-8.059-18-18-18
			c-5.789,0-10.925,2.743-14.217,6.988l1.725,0.996c2.936-3.653,7.435-5.997,12.486-5.997c8.847,0,16.019,7.172,16.019,16.019
			c0,0.662-0.057,1.309-0.137,1.948h-3.522l2.822,3.073c-0.059,0.176-0.106,0.356-0.171,0.529l1.4,0.809l1.595,1.736v-6.147h-0.118
			C51.453,31.812,51.5,31.162,51.5,30.5z"/>
	</g>
</g>
</svg>
