<?xml version="1.0" encoding="utf-8"?>
<!-- Generator: Adobe Illustrator 16.0.0, SVG Export Plug-In . SVG Version: 6.00 Build 0)  -->
<!DOCTYPE svg PUBLIC "-//W3C//DTD SVG 1.1//EN" "http://www.w3.org/Graphics/SVG/1.1/DTD/svg11.dtd">
<svg version="1.1" id="图层_1" xmlns="http://www.w3.org/2000/svg" xmlns:xlink="http://www.w3.org/1999/xlink" x="0px" y="0px"
	 width="64px" height="64px" viewBox="0 0 64 64" enable-background="new 0 0 64 64" xml:space="preserve">
<g>
	<g>
		<path fill-rule="evenodd" clip-rule="evenodd" d="M33.5,12.5c-10.371,0-18.896,7.894-19.899,18H11.5l3,6l3-6h-1.883
			c0.996-8.999,8.618-16,17.883-16c9.941,0,18,8.059,18,18s-8.059,18-18,18c-5.775,0-10.902-2.73-14.195-6.959l-1.577,1.227
			c3.66,4.698,9.355,7.732,15.772,7.732c11.046,0,20-8.955,20-20C53.5,21.454,44.546,12.5,33.5,12.5z M33.5,18.5
			c-0.553,0-1,0.448-1,1v13c0,0.026,0.013,0.049,0.015,0.074c-0.004,0.382,0.159,0.757,0.481,0.961l9.016,4.818
			c0.475,0.302,1.081,0.123,1.355-0.398c0.273-0.522,0.111-1.189-0.363-1.49L34.5,31.919V19.5C34.5,18.948,34.053,18.5,33.5,18.5z"
			/>
	</g>
</g>
</svg>
