<?xml version="1.0" encoding="utf-8"?>
<!-- Generator: Adobe Illustrator 16.0.0, SVG Export Plug-In . SVG Version: 6.00 Build 0)  -->
<!DOCTYPE svg PUBLIC "-//W3C//DTD SVG 1.1//EN" "http://www.w3.org/Graphics/SVG/1.1/DTD/svg11.dtd">
<svg version="1.1" id="图层_1" xmlns="http://www.w3.org/2000/svg" xmlns:xlink="http://www.w3.org/1999/xlink" x="0px" y="0px"
	 width="64px" height="64px" viewBox="0 0 64 64" enable-background="new 0 0 64 64" xml:space="preserve">
<g>
	<g>
		<path fill-rule="evenodd" clip-rule="evenodd" d="M32.608,13.536h-2.205c-9.321,0-16.881,7.516-16.968,16.816
			c0.048,5.158,2.4,9.804,6.07,12.924c-2.499,3.312-2.094,6.712-2.094,6.712s1.922-1.555,4.71-2.092
			c4.495-0.867,7.073-0.636,7.073-0.636l-0.005-0.014c0.403,0.029,0.804,0.062,1.214,0.062h2.205
			c9.376,0,16.976-7.418,16.976-16.793v-0.327C49.584,20.813,41.984,13.536,32.608,13.536z M47.694,30.461
			c0-0.04-0.006-0.078-0.006-0.117c-0.064,8.31-6.906,15.24-15.229,15.24h-1.955c-0.173,0-0.34-0.02-0.511-0.025l0.166,0.317
			c0,0-3.842-0.21-6.752,0.341c-1.85,0.351-3.955,0.974-3.955,0.974s0.477-1.905,2.816-4.046c-4.154-2.693-6.906-7.357-6.906-12.681
			v-0.24c0-8.363,6.779-14.797,15.143-14.797h1.955c8.323,0,15.165,6.61,15.229,14.917c0-0.04,0.006-0.078,0.006-0.118V30.461z
			 M13.427,30.513c0-0.054,0.007-0.106,0.008-0.16c-0.001-0.054-0.008-0.106-0.008-0.16V30.513z"/>
	</g>
</g>
<g>
</g>
<g>
</g>
<g>
</g>
<g>
</g>
<g>
</g>
<g>
</g>
</svg>
