<?xml version="1.0" encoding="utf-8"?>
<!-- Generator: Adobe Illustrator 16.0.0, SVG Export Plug-In . SVG Version: 6.00 Build 0)  -->
<!DOCTYPE svg PUBLIC "-//W3C//DTD SVG 1.1//EN" "http://www.w3.org/Graphics/SVG/1.1/DTD/svg11.dtd">
<svg version="1.1" id="图层_1" xmlns="http://www.w3.org/2000/svg" xmlns:xlink="http://www.w3.org/1999/xlink" x="0px" y="0px"
	 width="64px" height="64px" viewBox="0 0 64 64" enable-background="new 0 0 64 64" xml:space="preserve">
<g>
	<g>
		<g>
			<path fill="none" d="M47.588,51.381"/>
			<path fill="none" d="M47.499,9.554"/>
		</g>
		<path fill="none" d="M34.209,30.005"/>
	</g>
	<path d="M44.671,17.452c-0.215-0.522-0.684-0.911-1.253-1.016c-0.089-0.065-0.141,0.065-0.23,0.001l-0.146-0.024
		c-0.896,0.038-1.614,0.772-1.614,1.68c0,0.219,0.045,0.427,0.121,0.619l0,0c0.141,0.102,0.163,0.38,0.3,0.487
		c0.147,0.115,0.291,0.234,0.434,0.354c3.111,2.635,5.107,6.547,5.107,10.946c0,4.336-1.941,8.198-4.977,10.832
		c-0.26,0.125-0.484,0.312-0.646,0.55c-0.027,0.021-0.052,0.047-0.08,0.068l0.022,0.035c-0.141,0.242-0.228,0.52-0.228,0.82
		c0,0.906,0.734,1.641,1.64,1.641c0.041,0,0.079-0.009,0.12-0.012l0.197-0.09c0,0,0.158,0.08,0.28-0.015
		c0.322-0.127,0.595-0.353,0.779-0.641c3.684-3.208,6.025-7.918,6.025-13.189C50.522,25.308,48.257,20.657,44.671,17.452z"/>
	<path d="M61.437,28.698c-0.541-8.684-4.968-16.307-11.56-21.162c-0.288-0.322-0.702-0.528-1.169-0.528
		c-0.871,0-1.577,0.706-1.577,1.578c0,0.694,0.45,1.276,1.072,1.488c6.226,4.642,10.269,12.056,10.269,20.425
		c0,8.255-3.933,15.581-10.015,20.234c-0.347,0.108-0.644,0.328-0.84,0.626c-0.01,0.007-0.02,0.015-0.029,0.021l0.01,0.015
		c-0.149,0.24-0.239,0.521-0.239,0.823c0,0.862,0.698,1.562,1.561,1.562c0.367,0,0.7-0.133,0.967-0.345h0.038
		c6.568-4.856,10.973-12.471,11.513-21.135c0.037-0.597,0.062-1.196,0.062-1.802S61.474,29.294,61.437,28.698z"/>
	<path fill-rule="evenodd" clip-rule="evenodd" d="M33.466,7.941c0,8.159,0,53.332,0,44.809c0,1.047-0.151,1.688-1.092,1.688
		c-0.298,0-0.959-0.246-1.576-0.604c-4.107-2.76-10.973-7.357-13.936-9.396H7.493c-3.31,0-5.994-2.687-5.994-6v-16
		c0-3.313,2.684-6,5.994-6h9.41c3.045-1.983,9.866-6.625,13.729-9.244c-0.216,0.14,2.833-2.278,2.833,0.74
		c0,0.001,0.001,0.002,0.001,0.004S33.466,7.939,33.466,7.941z M30.459,10.87l-12.475,8.579c0,0-8.354-0.006-10.664-0.006
		c-1.799,0-2.855,1.906-2.855,3.066v15.917c0,1.02,0.933,3.001,2.975,3.001c2.696,0,10.346-0.001,10.346-0.001l12.674,8.553V10.87z"
		/>
</g>
<g>
</g>
<g>
</g>
<g>
</g>
<g>
</g>
<g>
</g>
<g>
</g>
</svg>
