<?xml version="1.0" encoding="utf-8"?>
<!-- Generator: Adobe Illustrator 16.0.0, SVG Export Plug-In . SVG Version: 6.00 Build 0)  -->
<!DOCTYPE svg PUBLIC "-//W3C//DTD SVG 1.1//EN" "http://www.w3.org/Graphics/SVG/1.1/DTD/svg11.dtd">
<svg version="1.1" id="图层_1" xmlns="http://www.w3.org/2000/svg" xmlns:xlink="http://www.w3.org/1999/xlink" x="0px" y="0px"
	 width="64px" height="64px" viewBox="0 0 64 64" enable-background="new 0 0 64 64" xml:space="preserve">
<g>
	<g>
		<path d="M22.499,20.499c-1.657,0-3,1.343-3,3.001c0,1.656,1.343,3,3,3s3-1.343,3-3C25.499,21.842,24.156,20.499,22.499,20.499z
			 M54.499,40.116V17.499c0-3.314-2.687-6-6-6h-34c-3.313,0-6,2.686-6,6v30c0,3.313,2.687,6,6,6h34c3.313,0,6-2.687,6-6v-7.371
			l0.006-0.006L54.499,40.116z M52.499,47.499c0,2.209-1.791,4-4,4h-34c-1.982,0-3.617-1.446-3.933-3.339l0.324,0.325l10.353-10.382
			l6.806,6.826l13.879-14.61l10.572,10.602V47.499z M52.499,38.11L41.893,27.474L28.014,42.082l-6.771-6.789L10.499,46.066V17.499
			c0-2.209,1.791-4,4-4h34c2.209,0,4,1.791,4,4V38.11z"/>
	</g>
</g>
<g>
</g>
<g>
</g>
<g>
</g>
<g>
</g>
<g>
</g>
<g>
</g>
</svg>
