<?xml version="1.0" encoding="utf-8"?>
<!-- Generator: Adobe Illustrator 16.0.0, SVG Export Plug-In . SVG Version: 6.00 Build 0)  -->
<!DOCTYPE svg PUBLIC "-//W3C//DTD SVG 1.1//EN" "http://www.w3.org/Graphics/SVG/1.1/DTD/svg11.dtd">
<svg version="1.1" id="图层_1" xmlns="http://www.w3.org/2000/svg" xmlns:xlink="http://www.w3.org/1999/xlink" x="0px" y="0px"
	 width="64px" height="64px" viewBox="0 0 64 64" enable-background="new 0 0 64 64" xml:space="preserve">
<path fill-rule="evenodd" clip-rule="evenodd" d="M32,6C17.641,6,6,17.641,6,32s11.641,26,26,26s26-11.641,26-26S46.359,6,32,6z
	 M32,56C18.745,56,8,45.255,8,32S18.745,8,32,8s24,10.745,24,24S45.255,56,32,56z"/>
<path d="M48.5,31H33V15.5c0-0.276-0.224-0.5-0.5-0.5h-1c-0.276,0-0.5,0.224-0.5,0.5V31H15.5c-0.276,0-0.5,0.224-0.5,0.5v1
	c0,0.276,0.224,0.5,0.5,0.5H31v15.5c0,0.275,0.224,0.5,0.5,0.5h1c0.276,0,0.5-0.225,0.5-0.5V33h15.5c0.275,0,0.5-0.224,0.5-0.5v-1
	C49,31.224,48.775,31,48.5,31z"/>
<g>
</g>
<g>
</g>
<g>
</g>
<g>
</g>
<g>
</g>
<g>
</g>
</svg>
