<?xml version="1.0" encoding="utf-8"?>
<!-- Generator: Adobe Illustrator 16.0.0, SVG Export Plug-In . SVG Version: 6.00 Build 0)  -->
<!DOCTYPE svg PUBLIC "-//W3C//DTD SVG 1.1//EN" "http://www.w3.org/Graphics/SVG/1.1/DTD/svg11.dtd">
<svg version="1.1" id="图层_1" xmlns="http://www.w3.org/2000/svg" xmlns:xlink="http://www.w3.org/1999/xlink" x="0px" y="0px"
	 width="64px" height="64px" viewBox="0 0 64 64" enable-background="new 0 0 64 64" xml:space="preserve">
<path fill-rule="evenodd" clip-rule="evenodd" d="M35,45h-4h-2v-1h2V29h-2v-1h2h4v1v15h2v1H35z M33,25.187
	c-1.519,0-2.75-1.231-2.75-2.75c0-1.519,1.231-2.75,2.75-2.75c1.52,0,2.75,1.231,2.75,2.75C35.75,23.956,34.52,25.187,33,25.187z"/>
<g>
	<path d="M33,56c-12.682,0-23-10.318-23-23s10.318-23,23-23c12.683,0,23,10.318,23,23S45.683,56,33,56z M33,12
		c-11.58,0-21,9.42-21,21s9.42,21,21,21c11.579,0,21-9.421,21-21S44.579,12,33,12z"/>
</g>
</svg>
