<?xml version="1.0" encoding="utf-8"?>
<!-- Generator: Adobe Illustrator 16.0.0, SVG Export Plug-In . SVG Version: 6.00 Build 0)  -->
<!DOCTYPE svg PUBLIC "-//W3C//DTD SVG 1.1//EN" "http://www.w3.org/Graphics/SVG/1.1/DTD/svg11.dtd">
<svg version="1.1" id="图层_1" xmlns="http://www.w3.org/2000/svg" xmlns:xlink="http://www.w3.org/1999/xlink" x="0px" y="0px"
	 width="64px" height="64px" viewBox="0 0 64 64" enable-background="new 0 0 64 64" xml:space="preserve">
<path fill-rule="evenodd" clip-rule="evenodd" d="M32,14c-9.941,0-18,8.059-18,18c0,9.941,8.059,18,18,18c9.941,0,18-8.059,18-18
	C50,22.058,41.941,14,32,14z M31.95,20c1.38,0,2.5,1.119,2.5,2.5S33.33,25,31.95,25c-1.381,0-2.5-1.119-2.5-2.5S30.569,20,31.95,20z
	 M36.022,42.005h-2.011h-4.023h-2.011V41h2.011V28.977h-2.011v-1.006h2.011h4.023v1.006V41h2.011V42.005z"/>
</svg>
