<?xml version="1.0" encoding="utf-8"?>
<!-- Generator: Adobe Illustrator 16.0.0, SVG Export Plug-In . SVG Version: 6.00 Build 0)  -->
<!DOCTYPE svg PUBLIC "-//W3C//DTD SVG 1.1//EN" "http://www.w3.org/Graphics/SVG/1.1/DTD/svg11.dtd">
<svg version="1.1" id="图层_1" xmlns="http://www.w3.org/2000/svg" xmlns:xlink="http://www.w3.org/1999/xlink" x="0px" y="0px"
	 width="64px" height="64px" viewBox="0 0 64 64" enable-background="new 0 0 64 64" xml:space="preserve">
<path fill-rule="evenodd" clip-rule="evenodd" fill="none" d="M44.184,44.182c-0.4,0.399-1.047,0.399-1.446,0l-6.929-6.928
	c-1.721,1.402-3.916,2.245-6.309,2.245c-5.523,0-10-4.478-10-10c0-5.523,4.477-10,10-10c5.522,0,10,4.477,10,10
	c0,2.393-0.843,4.588-2.245,6.31l6.929,6.928C44.582,43.136,44.582,43.782,44.184,44.182z M29.5,21.499c-4.418,0-8,3.582-8,8
	c0,4.418,3.582,8,8,8s8-3.582,8-8C37.5,25.081,33.918,21.499,29.5,21.499z"/>
</svg>
