<?xml version="1.0" encoding="utf-8"?>
<!-- Generator: Adobe Illustrator 16.0.0, SVG Export Plug-In . SVG Version: 6.00 Build 0)  -->
<!DOCTYPE svg PUBLIC "-//W3C//DTD SVG 1.1//EN" "http://www.w3.org/Graphics/SVG/1.1/DTD/svg11.dtd">
<svg version="1.1" id="图层_1" xmlns="http://www.w3.org/2000/svg" xmlns:xlink="http://www.w3.org/1999/xlink" x="0px" y="0px"
	 width="64px" height="64px" viewBox="0 0 64 64" enable-background="new 0 0 64 64" xml:space="preserve">
<g>
	<g>
		<path fill-rule="evenodd" clip-rule="evenodd" d="M48.5,15.5H33.399c-0.463-2.282-2.48-4-4.899-4h-14c-2.762,0-5,2.238-5,5v31
			c0,2.762,2.238,5,5,5h34c2.762,0,5-2.238,5-5v-27C53.5,17.739,51.262,15.5,48.5,15.5z M11.5,16.5c0-1.657,1.343-3,3-3h14
			c1.656,0,3,1.343,3,3v1h17c1.657,0,3,1.343,3,3v2h-40V16.5z M48.5,50.5h-34c-1.657,0-3-1.343-3-3v-23h40v23
			C51.5,49.157,50.157,50.5,48.5,50.5z"/>
	</g>
</g>
<g>
</g>
<g>
</g>
<g>
</g>
<g>
</g>
<g>
</g>
<g>
</g>
</svg>
