<?xml version="1.0" encoding="utf-8"?>
<!-- Generator: Adobe Illustrator 16.0.0, SVG Export Plug-In . SVG Version: 6.00 Build 0)  -->
<!DOCTYPE svg PUBLIC "-//W3C//DTD SVG 1.1//EN" "http://www.w3.org/Graphics/SVG/1.1/DTD/svg11.dtd">
<svg version="1.1" id="图层_1" xmlns="http://www.w3.org/2000/svg" xmlns:xlink="http://www.w3.org/1999/xlink" x="0px" y="0px"
	 width="64px" height="64px" viewBox="0 0 64 64" enable-background="new 0 0 64 64" xml:space="preserve">
<g>
	<g>
		<path fill-rule="evenodd" clip-rule="evenodd" d="M46.375,26.506c0,0-2.256,0.027-8.213,0.027
			c2.875-6.48-1.002-14.022-4.52-14.022c-1.799,0-4.196,1.604-4.196,3.551c0,3.786,0.315,5.429-0.378,7.204
			c-0.692,1.774-1.64,5.232-6.89,5.232c-3.663,0-6.925,0-6.925,0c-1.923,0-2.9,1.907-2.771,3.378
			c0.13,1.471,1.422,14.64,1.551,16.501c0.13,1.861,1.228,3.104,3.103,3.104c0,0,2.172,0.022,2.929,0
			c0.954-0.03-0.119-1.047,2.348-1.047s1.956,1.047,2.802,1.047c5.881,0,16.178,0,16.178,0c2.913,0,4.97-1.847,6.021-5.135
			c1.042-3.257,2.85-10.738,3.412-14.071C51.346,29.209,49.649,26.506,46.375,26.506z M19.358,49.494h-0.411
			c-2.103,0-2.701-0.04-2.701-0.04l-1.869-18.976H21.5v18.071C20.203,48.673,19.909,49.038,19.358,49.494z M48.764,31.923
			c-0.479,3.174-2.375,10.653-3.427,13.687c-0.687,1.985-1.651,3.875-3.34,3.875H25.864c-0.599-0.47-0.922-0.846-2.373-0.952V30.412
			c5.185-0.482,6.407-3.759,7.075-5.573c0,0,0.923-3.157,0.923-8.028c0-2.123,1.649-2.38,1.956-2.324
			c2.814,0,4.689,7.514,3.177,10.949l-1.609,3.074l11.36,0C48.071,28.511,48.932,30.812,48.764,31.923z"/>
	</g>
</g>
<g>
</g>
<g>
</g>
<g>
</g>
<g>
</g>
<g>
</g>
<g>
</g>
</svg>
