<?xml version="1.0" encoding="utf-8"?>
<!-- Generator: Adobe Illustrator 16.0.0, SVG Export Plug-In . SVG Version: 6.00 Build 0)  -->
<!DOCTYPE svg PUBLIC "-//W3C//DTD SVG 1.1//EN" "http://www.w3.org/Graphics/SVG/1.1/DTD/svg11.dtd">
<svg version="1.1" id="图层_1" xmlns="http://www.w3.org/2000/svg" xmlns:xlink="http://www.w3.org/1999/xlink" x="0px" y="0px"
	 width="64px" height="64px" viewBox="0 0 64 64" enable-background="new 0 0 64 64" xml:space="preserve">
<path fill-rule="evenodd" clip-rule="evenodd" fill="none" d="M37.232,32.882l-12.84-12.33c-0.554-0.652-0.469-1.623,0.189-2.168
	c0.658-0.546,1.64-0.46,2.193,0.192l12.839,12.33c0.554,0.652,0.469,1.623-0.188,2.168S37.785,33.535,37.232,32.882z"/>
<path fill-rule="evenodd" clip-rule="evenodd" fill="none" d="M24.391,43.48l12.84-12.33c0.554-0.652,1.535-0.738,2.193-0.193
	c0.658,0.546,0.742,1.517,0.189,2.168l-12.84,12.33c-0.553,0.652-1.535,0.738-2.193,0.192C23.922,45.104,23.837,44.133,24.391,43.48
	z"/>
</svg>
