<?xml version="1.0" encoding="utf-8"?>
<!-- Generator: Adobe Illustrator 16.0.0, SVG Export Plug-In . SVG Version: 6.00 Build 0)  -->
<!DOCTYPE svg PUBLIC "-//W3C//DTD SVG 1.1//EN" "http://www.w3.org/Graphics/SVG/1.1/DTD/svg11.dtd">
<svg version="1.1" id="图层_1" xmlns="http://www.w3.org/2000/svg" xmlns:xlink="http://www.w3.org/1999/xlink" x="0px" y="0px"
	 width="64px" height="64px" viewBox="0 0 64 64" enable-background="new 0 0 64 64" xml:space="preserve">
<g>
	<g>
		<path fill-rule="evenodd" clip-rule="evenodd" d="M10.479,9.495v0.004H52.52V9.495c0.543-0.012,0.979-0.451,0.979-0.996
			s-0.437-0.984-0.979-0.996V7.499H10.479v0.004C9.937,7.515,9.5,7.954,9.5,8.499S9.937,9.483,10.479,9.495z M52.164,30.294
			L34.542,13.58c-2.022-2.21-4.102-2.241-6.28-0.062L10.491,30.239c-0.649,0.409-1.083,1.126-1.083,1.949
			c0,1.275,1.034,2.309,2.309,2.309h9.777v17.21c0,2.55,0.543,4.81,3.093,4.81h13.387c2.55,0,3.478-1.655,3.478-4.205V34.497h9.84
			l0.006-0.016c1.158-0.081,2.075-1.037,2.075-2.216C53.372,31.405,52.879,30.666,52.164,30.294z M39.49,32.499v20.094
			c0,1.671-0.881,1.896-1.745,1.896H24.87c-1.182,0-1.358-1.567-1.358-2.501V32.499H11.551l1.095-1.414l-0.011-0.026L29.829,15.09
			c0.443-0.439,1.027-0.68,1.648-0.68c0.622,0,1.206,0.24,1.646,0.676l18.218,17.306l0.055,0.107H39.49z"/>
	</g>
</g>
<g>
</g>
<g>
</g>
<g>
</g>
<g>
</g>
<g>
</g>
<g>
</g>
</svg>
