<?xml version="1.0" encoding="utf-8"?>
<!-- Generator: Adobe Illustrator 16.0.0, SVG Export Plug-In . SVG Version: 6.00 Build 0)  -->
<!DOCTYPE svg PUBLIC "-//W3C//DTD SVG 1.1//EN" "http://www.w3.org/Graphics/SVG/1.1/DTD/svg11.dtd">
<svg version="1.1" id="图层_1" xmlns="http://www.w3.org/2000/svg" xmlns:xlink="http://www.w3.org/1999/xlink" x="0px" y="0px"
	 width="64px" height="64px" viewBox="0 0 64 64" enable-background="new 0 0 64 64" xml:space="preserve">
<path d="M31.503,6.505c-14.354,0-25.991,11.636-25.991,25.991c0,14.353,11.636,25.991,25.991,25.991
	c14.354,0,25.99-11.638,25.99-25.991C57.493,18.141,45.856,6.505,31.503,6.505z M31.502,56.492
	c-13.257,0-24.003-10.747-24.003-24.004c0-13.256,10.747-24.003,24.003-24.003s24.004,10.747,24.004,24.003
	C55.506,45.745,44.759,56.492,31.502,56.492z"/>
<path d="M26.49,28.487c0-2.209-1.789-4-3.997-4c-2.208,0-3.998,1.791-3.998,4c0,2.208,1.79,4,3.998,4
	C24.701,32.486,26.49,30.695,26.49,28.487z M22.505,30.714c-1.222,0-2.213-0.991-2.213-2.214c0-1.223,0.991-2.214,2.213-2.214
	c1.223,0,2.214,0.991,2.214,2.214C24.719,29.723,23.728,30.714,22.505,30.714z"/>
<path d="M31.512,46.512c-1.864,0-3.705-1.105-5.153-2.669l-2.171,1.046c1.827,2.185,4.425,3.609,7.317,3.609
	c5.525,0,10.005-5.17,10.01-10.991h-2.003C39.511,43.104,35.549,46.512,31.512,46.512z"/>
<polygon points="44.189,24.507 38.061,29.55 38.484,30.098 38.484,31.505 45.487,31.505 45.487,29.504 41.459,29.504 45.489,26.188 
	"/>
<g>
</g>
<g>
</g>
<g>
</g>
<g>
</g>
<g>
</g>
<g>
</g>
</svg>
