<?xml version="1.0" encoding="utf-8"?>
<!-- Generator: Adobe Illustrator 16.0.0, SVG Export Plug-In . SVG Version: 6.00 Build 0)  -->
<!DOCTYPE svg PUBLIC "-//W3C//DTD SVG 1.1//EN" "http://www.w3.org/Graphics/SVG/1.1/DTD/svg11.dtd">
<svg version="1.1" id="图层_1" xmlns="http://www.w3.org/2000/svg" xmlns:xlink="http://www.w3.org/1999/xlink" x="0px" y="0px"
	 width="192px" height="192px" viewBox="0 0 192 192" enable-background="new 0 0 192 192" xml:space="preserve">
<path d="M95,119.531c-2.975,0-5.975-2.385-6.979-5.546C87.259,111.582,81,71.571,81,54.201c0-4.956,4.762-14.199,13.865-14.199
	c9.146,0,14.135,9.38,14.135,14.199c0,17.293-6.028,56.683-7.021,59.787C100.901,117.355,98.162,119.531,95,119.531z M94.865,42.001
	C87.188,42.001,83,50.06,83,54.201c0,17.228,6.174,56.808,6.927,59.179c0.648,2.041,2.722,4.151,5.072,4.151
	c2.274,0,4.267-1.63,5.074-4.153C101.039,110.36,107,70.796,107,54.201C107,50.06,102.717,42.001,94.865,42.001z"/>
<path d="M95.002,150.002c-6.583,0-11.94-5.33-11.94-11.882c0-6.55,5.356-11.878,11.94-11.878c6.582,0,11.938,5.328,11.938,11.878
	C106.939,144.672,101.584,150.002,95.002,150.002z M95.002,128.242c-5.481,0-9.94,4.432-9.94,9.878c0,5.449,4.459,9.882,9.94,9.882
	c5.479,0,9.938-4.433,9.938-9.882C104.939,132.674,100.481,128.242,95.002,128.242z"/>
<path d="M95,186c-50.178,0-91-40.822-91-91S44.822,4,95,4s91,40.822,91,91S145.178,186,95,186z M95,6C45.925,6,6,45.925,6,95
	c0,49.075,39.925,89,89,89c49.075,0,89-39.925,89-89C184,45.925,144.075,6,95,6z"/>
</svg>
