<?xml version="1.0" encoding="utf-8"?>
<!-- Generator: Adobe Illustrator 16.0.0, SVG Export Plug-In . SVG Version: 6.00 Build 0)  -->
<!DOCTYPE svg PUBLIC "-//W3C//DTD SVG 1.1//EN" "http://www.w3.org/Graphics/SVG/1.1/DTD/svg11.dtd">
<svg version="1.1" id="图层_1" xmlns="http://www.w3.org/2000/svg" xmlns:xlink="http://www.w3.org/1999/xlink" x="0px" y="0px"
	 width="64px" height="64px" viewBox="0 0 64 64" enable-background="new 0 0 64 64" xml:space="preserve">
<g>
	<g>
		<path fill-rule="evenodd" clip-rule="evenodd" d="M39.5,11.5h-22c-1.104,0-2,0.896-2,2v38c0,1.104,0.896,2,2,2h28
			c1.104,0,2-0.896,2-2v-32L39.5,11.5z M39.5,14l5.5,5.5h-5.5V14z M45.5,51.5h-28v-38h20v6c0,1.104,0.896,2,2,2h6V51.5z
			 M37.449,28.379l-7.363,7.363l-3.536-3.535c-0.39-0.391-1.023-0.391-1.414,0s-0.391,1.023,0,1.414l4.243,4.243
			c0.391,0.391,1.023,0.391,1.414,0l8.071-8.071c0.391-0.391,0.391-1.023,0-1.414S37.84,27.988,37.449,28.379z"/>
	</g>
</g>
<g>
</g>
<g>
</g>
<g>
</g>
<g>
</g>
<g>
</g>
<g>
</g>
</svg>
