<?xml version="1.0" encoding="utf-8"?>
<!-- Generator: Adobe Illustrator 16.0.0, SVG Export Plug-In . SVG Version: 6.00 Build 0)  -->
<!DOCTYPE svg PUBLIC "-//W3C//DTD SVG 1.1//EN" "http://www.w3.org/Graphics/SVG/1.1/DTD/svg11.dtd">
<svg version="1.1" id="图层_1" xmlns="http://www.w3.org/2000/svg" xmlns:xlink="http://www.w3.org/1999/xlink" x="0px" y="0px"
	 width="64px" height="64px" viewBox="0 0 64 64" enable-background="new 0 0 64 64" xml:space="preserve">
<g>
	<g>
		<path d="M34.794,8.562l1.538,5.5v0.025c3.218,0.855,6.103,2.517,8.412,4.778l5.447-1.396l3.57,6.185l-3.938,3.978
			c0.403,1.542,0.64,3.15,0.64,4.818c0,1.713-0.247,3.365-0.672,4.944l0.194,0.112l3.792,3.945l-3.57,6.184l-5.312-1.312
			l-0.287-0.166c-2.291,2.2-5.13,3.82-8.293,4.658v0.329l-1.521,5.257h-7.141l-1.521-5.257l0-0.442
			c-3.067-0.891-5.816-2.524-8.031-4.706l-0.565,0.327l-5.312,1.312l-3.571-6.184l3.792-3.945l0.591-0.342
			c-0.386-1.51-0.613-3.084-0.613-4.715c0-1.576,0.213-3.098,0.574-4.562l-0.315-0.182l-4.011-4.051l3.57-6.185l5.532,1.418
			l0.212,0.123c2.239-2.242,5.039-3.914,8.166-4.819v-0.129l1.502-5.5H34.794 M36.312,6.562h-1.518h-7.141h-1.527l-0.402,1.473
			l-1.255,4.595c-2.578,0.906-4.961,2.308-6.996,4.115l-4.736-1.214l-1.47-0.376l-0.758,1.314l-3.57,6.185l-0.764,1.322l1.074,1.085
			l3.54,3.575c-0.243,1.288-0.365,2.566-0.365,3.814c0,1.273,0.127,2.574,0.378,3.882l-3.589,3.734l-1.042,1.084l0.752,1.302
			l3.571,6.184l0.752,1.302l1.459-0.36l4.995-1.232c1.959,1.691,4.228,3.015,6.667,3.887l1.367,4.727l0.418,1.444h1.503h7.141h1.504
			l0.417-1.444l1.321-4.568c2.579-0.853,4.977-2.201,7.041-3.96l4.65,1.147l1.46,0.36l0.752-1.302l3.57-6.184l0.751-1.302
			l-1.041-1.084l-3.212-3.342c0.303-1.433,0.455-2.865,0.455-4.274c0-1.379-0.147-2.786-0.44-4.197l3.16-3.192l1.074-1.085
			l-0.763-1.322l-3.57-6.185l-0.759-1.314l-1.471,0.377l-4.392,1.126c-2.131-1.867-4.632-3.289-7.335-4.171L36.72,8.023
			L36.312,6.562L36.312,6.562z"/>
	</g>
	<g>
		<path d="M31.478,23.463c4.972,0,9.018,4.045,9.018,9.018S36.45,41.5,31.478,41.5c-4.973,0-9.019-4.046-9.019-9.019
			S26.505,23.463,31.478,23.463 M31.478,21.463c-6.085,0-11.019,4.933-11.019,11.018S25.393,43.5,31.478,43.5
			c6.084,0,11.018-4.934,11.018-11.019S37.562,21.463,31.478,21.463L31.478,21.463z"/>
	</g>
</g>
<g>
</g>
<g>
</g>
<g>
</g>
<g>
</g>
<g>
</g>
<g>
</g>
</svg>
