<?xml version="1.0" encoding="utf-8"?>
<!-- Generator: Adobe Illustrator 16.0.0, SVG Export Plug-In . SVG Version: 6.00 Build 0)  -->
<!DOCTYPE svg PUBLIC "-//W3C//DTD SVG 1.1 Tiny//EN" "http://www.w3.org/Graphics/SVG/1.1/DTD/svg11-tiny.dtd">
<svg version="1.1" baseProfile="tiny" id="图层_1"
	 xmlns="http://www.w3.org/2000/svg" xmlns:xlink="http://www.w3.org/1999/xlink" x="0px" y="0px" width="64px" height="64px"
	 viewBox="0 0 64 64" xml:space="preserve">
<g>
	<path fill-rule="evenodd" d="M31.5,26.499c-1.104,0-2,0.896-2,2s0.896,2,2,2s2-0.896,2-2S32.604,26.499,31.5,26.499z M46.5,13.5
		h-30c-2.209,0-4,1.791-4,4v23c0,2.209,1.791,4,4,4h8.202l5.384,5.383c0.781,0.781,2.047,0.781,2.828,0l5.383-5.383H46.5
		c2.209,0,4-1.791,4-4v-23C50.5,15.291,48.709,13.5,46.5,13.5z M48.5,40.5c0,1.104-0.896,2-2,2h-9.046l-5.247,5.247
		c-0.391,0.39-1.024,0.39-1.414,0L25.546,42.5H16.5c-1.104,0-2-0.896-2-2v-23c0-1.105,0.896-2,2-2h30c1.104,0,2,0.895,2,2V40.5z
		 M40.5,26.499c-1.105,0-2,0.896-2,2s0.895,2,2,2c1.104,0,2-0.896,2-2S41.604,26.499,40.5,26.499z M22.5,26.499
		c-1.104,0-2,0.896-2,2s0.896,2,2,2s2-0.896,2-2S23.604,26.499,22.5,26.499z"/>
</g>
<g>
</g>
<g>
</g>
<g>
</g>
<g>
</g>
<g>
</g>
<g>
</g>
</svg>
