<?xml version="1.0" encoding="utf-8"?>
<!-- Generator: Adobe Illustrator 16.0.0, SVG Export Plug-In . SVG Version: 6.00 Build 0)  -->
<!DOCTYPE svg PUBLIC "-//W3C//DTD SVG 1.1 Tiny//EN" "http://www.w3.org/Graphics/SVG/1.1/DTD/svg11-tiny.dtd">
<svg version="1.1" baseProfile="tiny" id="图层_1"
	 xmlns="http://www.w3.org/2000/svg" xmlns:xlink="http://www.w3.org/1999/xlink" x="0px" y="0px" width="64px" height="64px"
	 viewBox="0 0 64 64" xml:space="preserve">
<g>
	<path fill-rule="evenodd" d="M46.5,13.5h-30c-2.209,0-4,1.791-4,4v23c0,2.209,1.791,4,4,4h8.202l5.384,5.383
		c0.781,0.781,2.047,0.781,2.828,0l5.384-5.383H46.5c2.209,0,4-1.791,4-4v-23C50.5,15.291,48.709,13.5,46.5,13.5z M22.5,30.499
		c-1.105,0-2-0.896-2-2s0.895-2,2-2c1.104,0,2,0.896,2,2S23.604,30.499,22.5,30.499z M31.5,30.499c-1.105,0-2-0.896-2-2s0.895-2,2-2
		c1.104,0,2,0.896,2,2S32.604,30.499,31.5,30.499z M40.5,30.499c-1.105,0-2-0.896-2-2s0.895-2,2-2c1.104,0,2,0.896,2,2
		S41.604,30.499,40.5,30.499z"/>
</g>
<g>
</g>
<g>
</g>
<g>
</g>
<g>
</g>
<g>
</g>
<g>
</g>
</svg>
