<?xml version="1.0" encoding="utf-8"?>
<!-- Generator: Adobe Illustrator 16.0.0, SVG Export Plug-In . SVG Version: 6.00 Build 0)  -->
<!DOCTYPE svg PUBLIC "-//W3C//DTD SVG 1.1//EN" "http://www.w3.org/Graphics/SVG/1.1/DTD/svg11.dtd">
<svg version="1.1" id="图层_1" xmlns="http://www.w3.org/2000/svg" xmlns:xlink="http://www.w3.org/1999/xlink" x="0px" y="0px"
	 width="64px" height="64px" viewBox="0 0 64 64" enable-background="new 0 0 64 64" xml:space="preserve">
<g>
	<g>
		<path fill-rule="evenodd" clip-rule="evenodd" d="M41.421,16.476l-1.684,1.23c4.681,3.249,7.752,8.655,7.752,14.785
			c0,6.134-3.076,11.544-7.764,14.792l1.691,1.235c4.891-3.645,8.072-9.455,8.072-16.022C49.489,25.93,46.31,20.121,41.421,16.476z
			 M26.915,27.072l-1.703,1.245c1.368,0.89,2.277,2.426,2.277,4.18c0,1.755-0.911,3.292-2.281,4.181l1.706,1.246
			c1.575-1.283,2.582-3.236,2.582-5.426C29.496,30.309,28.489,28.355,26.915,27.072z M33.999,21.897l-1.718,1.255
			c3.126,1.939,5.215,5.392,5.215,9.342c0,3.952-2.092,7.407-5.222,9.346l1.723,1.259c3.321-2.354,5.496-6.221,5.496-10.602
			C39.493,28.117,37.319,24.251,33.999,21.897z"/>
	</g>
</g>
<path fill-rule="evenodd" clip-rule="evenodd" d="M31.496,58.486c14.354,0,25.991-11.638,25.991-25.991
	c0-14.354-11.637-25.991-25.991-25.991S5.505,18.141,5.505,32.496C5.505,46.849,17.142,58.486,31.496,58.486z M31.496,8.485
	c13.257,0,24.004,10.747,24.004,24.003c0,13.257-10.747,24.004-24.004,24.004S7.493,45.745,7.493,32.488
	C7.493,19.231,18.239,8.485,31.496,8.485z"/>
<g>
</g>
<g>
</g>
<g>
</g>
<g>
</g>
<g>
</g>
<g>
</g>
</svg>
