<?xml version="1.0" encoding="utf-8"?>
<!-- Generator: Adobe Illustrator 16.0.0, SVG Export Plug-In . SVG Version: 6.00 Build 0)  -->
<!DOCTYPE svg PUBLIC "-//W3C//DTD SVG 1.1//EN" "http://www.w3.org/Graphics/SVG/1.1/DTD/svg11.dtd">
<svg version="1.1" id="图层_1" xmlns="http://www.w3.org/2000/svg" xmlns:xlink="http://www.w3.org/1999/xlink" x="0px" y="0px"
	 width="64px" height="64px" viewBox="0 0 64 64" enable-background="new 0 0 64 64" xml:space="preserve">
<g>
	<g>
		<path fill-rule="evenodd" clip-rule="evenodd" d="M52.5,12.5h-6c-0.339,0-0.624,0.179-0.805,0.438
			c-0.015,0.019-0.025,0.038-0.039,0.057c-0.043,0.073-0.077,0.148-0.101,0.231c-0.01,0.029-0.03,0.051-0.036,0.082L43.53,22.5
			H11.567c-0.139-0.017-0.282-0.009-0.423,0.041c-0.398,0.142-0.638,0.526-0.639,0.937c0,0.008-0.004,0.015-0.004,0.022
			c0,0.038,0.018,0.07,0.021,0.106c0.008,0.067,0.004,0.134,0.026,0.2l5.063,18.033c0.175,0.519,0.725,0.794,1.229,0.613
			c0.064-0.022,0.111-0.067,0.167-0.102c0.147,0.086,0.31,0.148,0.493,0.148h22.263l0.009,0.006l1.151,1.994H17.5
			c-0.059,0-0.11,0.023-0.167,0.033C17.222,44.523,17.114,44.5,17,44.5c-1.933,0-3.5,1.567-3.5,3.5s1.567,3.5,3.5,3.5
			s3.5-1.567,3.5-3.5c0-0.539-0.132-1.044-0.35-1.5h18.7c-0.218,0.456-0.35,0.961-0.35,1.5c0,1.933,1.567,3.5,3.5,3.5
			s3.5-1.567,3.5-3.5c0-1.44-0.872-2.676-2.115-3.213c-0.009-0.018-0.009-0.037-0.019-0.055l-1.853-3.209l3.773-17.435
			c0.125-0.167,0.213-0.364,0.213-0.589c0-0.073-0.026-0.137-0.041-0.205l1.903-8.795H52.5c0.553,0,1-0.448,1-1
			C53.5,12.947,53.053,12.5,52.5,12.5z M17,49.5c-0.828,0-1.5-0.672-1.5-1.5s0.672-1.5,1.5-1.5s1.5,0.672,1.5,1.5
			S17.828,49.5,17,49.5z M42,46.5c0.828,0,1.5,0.672,1.5,1.5s-0.672,1.5-1.5,1.5s-1.5-0.672-1.5-1.5S41.172,46.5,42,46.5z
			 M39.635,40.5H17.5c-0.086,0-0.164,0.028-0.244,0.049L12.75,24.5h30.348L39.635,40.5z"/>
	</g>
</g>
</svg>
