<?xml version="1.0" encoding="utf-8"?>
<!-- Generator: Adobe Illustrator 16.0.0, SVG Export Plug-In . SVG Version: 6.00 Build 0)  -->
<!DOCTYPE svg PUBLIC "-//W3C//DTD SVG 1.1//EN" "http://www.w3.org/Graphics/SVG/1.1/DTD/svg11.dtd">
<svg version="1.1" id="图层_1" xmlns="http://www.w3.org/2000/svg" xmlns:xlink="http://www.w3.org/1999/xlink" x="0px" y="0px"
	 width="64px" height="64px" viewBox="0 0 64 64" enable-background="new 0 0 64 64" xml:space="preserve">
<g>
	<g>
		<path fill-rule="evenodd" clip-rule="evenodd" d="M47.305,26.497c0,0-4.655,0-10.64,0c2.633-5.976-1.872-13.974-4.807-13.974
			c-1.808,0-2.377,1.118-2.377,3.073c0,3.802,0.272,5.757-0.423,7.539c-0.637,1.633-1.394,4.778-5.566,5.297V50.11
			c1.537,0.326,1.729,1.364,2.042,1.364c5.907,0,16.03,0,16.03,0c2.926,0,4.991-1.855,6.047-5.156
			c1.047-3.271,3.253-12.047,3.645-15.307C51.628,27.91,50.594,26.497,47.305,26.497z M12.484,31.907
			c0.13,1.478,1.471,14.581,1.602,16.45c0.13,1.869,1.233,3.117,3.116,3.117c0,0,1.529,0,2.29,0c0.402,0,0.526-1.022,2.009-1.356
			V28.514c-3.356,0-6.19,0-6.19,0C13.378,28.514,12.354,30.429,12.484,31.907z"/>
	</g>
</g>
<g>
</g>
<g>
</g>
<g>
</g>
<g>
</g>
<g>
</g>
<g>
</g>
</svg>
