<?xml version="1.0" encoding="utf-8"?>
<!-- Generator: Adobe Illustrator 16.0.0, SVG Export Plug-In . SVG Version: 6.00 Build 0)  -->
<!DOCTYPE svg PUBLIC "-//W3C//DTD SVG 1.1//EN" "http://www.w3.org/Graphics/SVG/1.1/DTD/svg11.dtd">
<svg version="1.1" id="图层_1" xmlns="http://www.w3.org/2000/svg" xmlns:xlink="http://www.w3.org/1999/xlink" x="0px" y="0px"
	 width="64px" height="64px" viewBox="0 0 64 64" enable-background="new 0 0 64 64" xml:space="preserve">
<g>
	<g>
		<path fill-rule="evenodd" clip-rule="evenodd" d="M50.5,47.499c0,2.762-2.239,5-5.001,5H13.5c-2.762,0-5-2.238-5-5v-26
			c0-2.761,2.238-5,5-5h5.999v-2h-7c-3.313,0-5.999,2.687-5.999,6v28c0,3.313,2.686,6,5.999,6h34c3.313,0,6-2.687,6-6v-10H50.5
			V47.499z M57.49,15.768l0.012-0.021l-0.491-0.268l-1.384-0.832l-0.035,0.057L44.781,8.804l-1.068,2l9.012,4.862
			C39.067,17.269,28.5,27.095,28.5,41.521c0,0.668,0.053,1.322,0.098,1.978H30.5c-0.052-0.667,0-1.319,0-2
			c0-13.417,10.456-22.733,23.332-23.938l-5.791,9.394l1.925,1.197l6.411-10.515l0.06,0.032l0.793-1.429l0.28-0.46L57.49,15.768z"/>
	</g>
</g>
<g>
</g>
<g>
</g>
<g>
</g>
<g>
</g>
<g>
</g>
<g>
</g>
</svg>
