<?xml version="1.0" encoding="utf-8"?>
<!-- Generator: Adobe Illustrator 16.0.0, SVG Export Plug-In . SVG Version: 6.00 Build 0)  -->
<!DOCTYPE svg PUBLIC "-//W3C//DTD SVG 1.1//EN" "http://www.w3.org/Graphics/SVG/1.1/DTD/svg11.dtd">
<svg version="1.1" id="图层_1" xmlns="http://www.w3.org/2000/svg" xmlns:xlink="http://www.w3.org/1999/xlink" x="0px" y="0px"
	 width="64px" height="64px" viewBox="0 0 64 64" enable-background="new 0 0 64 64" xml:space="preserve">
<path fill-rule="evenodd" clip-rule="evenodd" fill="none" d="M43.544,10.383c0.607,0.558,0.625,1.479,0.038,2.056L22.638,33.086
	c-0.587,0.577-1.555,0.594-2.163,0.035c-0.608-0.558-0.625-1.478-0.038-2.056l20.943-20.646
	C41.968,9.841,42.936,9.826,43.544,10.383z"/>
<path fill-rule="evenodd" clip-rule="evenodd" fill="none" d="M43.639,53.482c-0.531,0.637-1.441,0.688-2.031,0.115l-21.13-20.425
	c-0.59-0.573-0.638-1.555-0.106-2.191c0.532-0.637,1.441-0.688,2.031-0.115l21.13,20.424C44.122,51.864,44.17,52.846,43.639,53.482z
	"/>
<g>
</g>
<g>
</g>
<g>
</g>
<g>
</g>
<g>
</g>
<g>
</g>
</svg>
