<?xml version="1.0" encoding="utf-8"?>
<!-- Generator: Adobe Illustrator 16.0.0, SVG Export Plug-In . SVG Version: 6.00 Build 0)  -->
<!DOCTYPE svg PUBLIC "-//W3C//DTD SVG 1.1//EN" "http://www.w3.org/Graphics/SVG/1.1/DTD/svg11.dtd">
<svg version="1.1" id="图层_1" xmlns="http://www.w3.org/2000/svg" xmlns:xlink="http://www.w3.org/1999/xlink" x="0px" y="0px"
	 width="64px" height="64px" viewBox="0 0 64 64" enable-background="new 0 0 64 64" xml:space="preserve">
<path fill-rule="evenodd" clip-rule="evenodd" d="M32,8C18.745,8,8,18.745,8,32s10.745,24,24,24s24-10.745,24-24S45.255,8,32,8z
	 M45.789,24.525L29.525,40.789c-0.585,0.586-1.535,0.586-2.121,0l-9.192-9.193c-0.586-0.586-0.586-1.536,0-2.121
	c0.586-0.586,1.536-0.586,2.121,0l8.132,8.132l15.204-15.204c0.585-0.586,1.535-0.586,2.121,0S46.375,23.939,45.789,24.525z"/>
</svg>
