<?xml version="1.0" encoding="utf-8"?>
<!-- Generator: Adobe Illustrator 16.0.0, SVG Export Plug-In . SVG Version: 6.00 Build 0)  -->
<!DOCTYPE svg PUBLIC "-//W3C//DTD SVG 1.1//EN" "http://www.w3.org/Graphics/SVG/1.1/DTD/svg11.dtd">
<svg version="1.1" id="图层_1" xmlns="http://www.w3.org/2000/svg" xmlns:xlink="http://www.w3.org/1999/xlink" x="0px" y="0px"
	 width="64px" height="64px" viewBox="0 0 64 64" enable-background="new 0 0 64 64" xml:space="preserve">
<path fill-rule="evenodd" clip-rule="evenodd" d="M32,14c-9.941,0-18,8.059-18,18c0,9.941,8.059,18,18,18s18-8.059,18-18
	C50,22.059,41.941,14,32,14z M42.26,27.219L30.239,39.24c-0.586,0.586-1.536,0.586-2.122,0l-6.364-6.364
	c-0.586-0.586-0.586-1.536,0-2.122c0.586-0.585,1.536-0.585,2.121,0l5.304,5.304l10.96-10.961c0.586-0.586,1.535-0.586,2.121,0
	S42.846,26.633,42.26,27.219z"/>
<g>
</g>
<g>
</g>
<g>
</g>
<g>
</g>
<g>
</g>
<g>
</g>
</svg>
