<?xml version="1.0" encoding="utf-8"?>
<!-- Generator: Adobe Illustrator 16.0.0, SVG Export Plug-In . SVG Version: 6.00 Build 0)  -->
<!DOCTYPE svg PUBLIC "-//W3C//DTD SVG 1.1//EN" "http://www.w3.org/Graphics/SVG/1.1/DTD/svg11.dtd">
<svg version="1.1" id="图层_1" xmlns="http://www.w3.org/2000/svg" xmlns:xlink="http://www.w3.org/1999/xlink" x="0px" y="0px"
	 width="64px" height="64px" viewBox="0 0 64 64" enable-background="new 0 0 64 64" xml:space="preserve">
<g>
	<g>
		<path fill-rule="evenodd" clip-rule="evenodd" d="M49.499,18.499h-4v-9h-27.99c-0.16-0.014-0.321-0.024-0.484-0.024
			c-3.077,0-5.571,2.495-5.571,5.571c0,0.3,0.03,0.592,0.076,0.879v0.002h-0.031v33.572c0,3.313,2.687,6,6,6h32c3.313,0,6-2.687,6-6
			v-25C55.499,21.186,52.812,18.499,49.499,18.499z M17.118,11.491c0.13,0,0.254,0.024,0.381,0.039v-0.031h26v7h-26v-0.046
			c-0.127,0.014-0.25,0.039-0.381,0.039c-1.933,0-3.5-1.566-3.5-3.5C13.618,13.058,15.185,11.491,17.118,11.491z M53.482,49.499
			c0,2.209-1.791,4-4,4H17.499c-2.209,0-4-1.791-4-4v-30.14c0.96,0.787,2.188,1.259,3.526,1.259c0.615,0,1.206-0.104,1.759-0.288
			v0.169h30.698c2.209,0,4,1.791,4,4V49.499z M44.451,41.499c-1.656,0-3,1.343-3,3s1.344,3,3,3c1.657,0,3-1.343,3-3
			S46.108,41.499,44.451,41.499z"/>
	</g>
</g>
<g>
</g>
<g>
</g>
<g>
</g>
<g>
</g>
<g>
</g>
<g>
</g>
</svg>
