<?xml version="1.0" standalone="no"?>
<!DOCTYPE svg PUBLIC "-//W3C//DTD SVG 1.1//EN" "http://www.w3.org/Graphics/SVG/1.1/DTD/svg11.dtd" >
<svg xmlns="http://www.w3.org/2000/svg">
<metadata>
Created by FontForge 20120731 at Thu May 28 21:22:53 2015
 By Ads
</metadata>
<defs>
<font id="iconfont" horiz-adv-x="1024" >
  <font-face 
    font-family="iconfont"
    font-weight="500"
    font-stretch="normal"
    units-per-em="1024"
    panose-1="2 0 6 3 0 0 0 0 0 0"
    ascent="812"
    descent="-212"
    x-height="792"
    bbox="0 -192 1152 792"
    underline-thickness="50"
    underline-position="-100"
    unicode-range="U+0078-E640"
  />
<missing-glyph horiz-adv-x="374" 
d="M34 0v682h272v-682h-272zM68 34h204v614h-204v-614z" />
    <glyph glyph-name=".notdef" horiz-adv-x="374" 
d="M34 0v682h272v-682h-272zM68 34h204v614h-204v-614z" />
    <glyph glyph-name=".null" horiz-adv-x="0" 
 />
    <glyph glyph-name="nonmarkingreturn" horiz-adv-x="341" 
 />
    <glyph glyph-name="x" unicode="x" horiz-adv-x="1001" 
d="M281 543q-27 -1 -53 -1h-83q-18 0 -36.5 -6t-32.5 -18.5t-23 -32t-9 -45.5v-76h912v41q0 16 -0.5 30t-0.5 18q0 13 -5 29t-17 29.5t-31.5 22.5t-49.5 9h-133v-97h-438v97zM955 310v-52q0 -23 0.5 -52t0.5 -58t-10.5 -47.5t-26 -30t-33 -16t-31.5 -4.5q-14 -1 -29.5 -0.5
t-29.5 0.5h-32l-45 128h-439l-44 -128h-29h-34q-20 0 -45 1q-25 0 -41 9.5t-25.5 23t-13.5 29.5t-4 30v167h911zM163 247q-12 0 -21 -8.5t-9 -21.5t9 -21.5t21 -8.5q13 0 22 8.5t9 21.5t-9 21.5t-22 8.5zM316 123q-8 -26 -14 -48q-5 -19 -10.5 -37t-7.5 -25t-3 -15t1 -14.5
t9.5 -10.5t21.5 -4h37h67h81h80h64h36q23 0 34 12t2 38q-5 13 -9.5 30.5t-9.5 34.5q-5 19 -11 39h-368zM336 498v228q0 11 2.5 23t10 21.5t20.5 15.5t34 6h188q31 0 51.5 -14.5t20.5 -52.5v-227h-327z" />
    <glyph glyph-name="uniE600" unicode="&#xe600;" 
d="M596 274l-206 197q-6 8 -5.5 18t8.5 17q5 4 12 5t13 -1t10 -7l206 -197q3 -4 4.5 -9t1 -9.5t-2.5 -9t-6 -7.5q-3 -3 -7 -4.5t-7.5 -1.5t-7.5 1t-7.5 3t-5.5 5zM390 104l206 198q6 7 16.5 8t18.5 -5.5t8.5 -16.5t-5.5 -18l-206 -197q-4 -5 -10 -7.5t-13 -1.5t-12 6
q-16 13 -5 31q1 2 2 3z" />
    <glyph glyph-name="uniE601" unicode="&#xe601;" 
d="M512 684q-159 0 -271.5 -112.5t-112.5 -271.5t112.5 -271.5t271.5 -112.5t271.5 112.5t112.5 271.5t-112.5 271.5t-271.5 112.5zM733 420l-261 -261q-3 -3 -7.5 -5t-9 -2t-9 2t-8.5 5l-147 147q-7 7 -7 17t7 17q3 3 6.5 5t7 2.5t7.5 0t7.5 -2.5t5.5 -5l130 -130l244 244
q2 2 5 3.5t6 2.5t6 1t6 -1t5.5 -2.5t5.5 -3.5q7 -7 7 -17t-7 -17z" />
    <glyph glyph-name="uniE602" unicode="&#xe602;" 
d="M512 588q-119 0 -203.5 -84.5t-84.5 -203.5t84.5 -203.5t203.5 -84.5t203.5 84.5t84.5 203.5t-84.5 203.5t-203.5 84.5zM676 376l-192 -192q-2 -2 -4 -3l-4 -2q-2 -1 -4.5 -1.5t-4.5 -0.5t-4.5 0.5t-4.5 1.5l-4 2q-2 1 -4 3l-102 102q-3 3 -4.5 6.5t-2 7t0 7t2 7t4.5 6.5
q7 7 17 7t17 -7l85 -85l175 175q4 4 8.5 6t9 2t9 -2t7.5 -6q7 -7 7 -16.5t-7 -17.5z" />
    <glyph glyph-name="uniE603" unicode="&#xe603;" 
d="M512 588q-119 0 -203.5 -84.5t-84.5 -203.5t84.5 -203.5t203.5 -84.5t203.5 84.5t84.5 203.5t-84.5 203.5t-203.5 84.5zM511 492q17 0 28.5 -11.5t11.5 -28.5t-11.5 -28.5t-28 -11.5t-28.5 11.5t-12 28.5q0 11 5.5 20t14.5 14.5t20 5.5zM576 140h-32h-64h-32v16h32v192
h-32v16h32h64v-16v-192h32v-16z" />
    <glyph glyph-name="uniE604" unicode="&#xe604;" 
d="M512 576q119 0 203.5 -84.5t84.5 -203.5t-84.5 -203.5t-203.5 -84.5t-203.5 84.5t-84.5 203.5t84.5 203.5t203.5 84.5zM686 388l-11 11q-11 12 -23 0l-181 -181l-67 68q-12 11 -23 0l-11 -11q-5 -5 -5 -11.5t5 -11.5l90 -90q11 -12 23 0l203 203q12 12 0 23z" />
    <glyph glyph-name="uniE605" unicode="&#xe605;" 
d="M512 576q-119 0 -203.5 -84.5t-84.5 -203.5t84.5 -203.5t203.5 -84.5t203.5 84.5t84.5 203.5t-84.5 203.5t-203.5 84.5zM512 111q-17 0 -28.5 12t-11.5 29q0 5 1.5 10.5t4 10t6 8t8 6t10 4t10.5 1.5q17 0 28.5 -11.5t11.5 -28.5t-11.5 -29t-28.5 -12zM534 242
q-2 -8 -8.5 -13t-13.5 -5q-5 0 -9.5 3t-8 7t-4.5 8q-5 17 -15.5 75t-10.5 98q0 15 13 32t34.5 17t35 -16.5t13.5 -32.5q0 -18 -2.5 -41t-5.5 -44t-7 -40t-7 -31.5t-4 -16.5z" />
    <glyph glyph-name="uniE606" unicode="&#xe606;" 
d="M560 92h-64h-32v16h32v240h-32v16h32h64v-16v-240h32v-16h-32zM528 409q-12 0 -22 6t-16 16t-6 22q0 18 13 31t31 13q7 0 14 -2t12 -6.5t9.5 -9.5t6.5 -12t2 -14q0 -18 -13 -31t-31 -13zM528 -84q-152 0 -260 108t-108 260t108 260t260 108t260 -108t108 -260t-108 -260
t-260 -108zM528 620q-139 0 -237.5 -98.5t-98.5 -237.5t98.5 -237.5t237.5 -98.5t237.5 98.5t98.5 237.5t-98.5 237.5t-237.5 98.5z" />
    <glyph glyph-name="uniE607" unicode="&#xe607;" 
d="M512 640q-146 0 -249 -103t-103 -249t103 -249t249 -103t249 103t103 249t-103 249t-249 103zM727 389l-241 -236q-2 -4 -5 -6l-11 -12q-12 -11 -17 -6l-115 121q-5 5 7 16l11 11q11 12 16 6l86 -90l235 230q11 11 23 0l11 -11q10 -12 0 -23z" />
    <glyph glyph-name="uniE608" unicode="&#xe608;" 
d="M512 624q-146 0 -249 -103t-103 -249t103 -249t249 -103t249 103t103 249t-103 249t-249 103zM512 79q-17 0 -28.5 12t-11.5 29t11.5 28.5t28.5 11.5q5 0 9.5 -1t8.5 -3t7.5 -4.5t6 -6t4.5 -7.5t3 -8.5t1 -9.5q0 -17 -11.5 -29t-28.5 -12zM534 210q-2 -8 -8.5 -13
t-13.5 -5t-13.5 5.5t-8.5 12.5q-4 12 -15 96t-11 125q0 15 13 32t34.5 17t35 -16.5t13.5 -32.5q0 -18 -2.5 -46t-5.5 -56t-7 -54t-7 -43.5t-4 -21.5z" />
    <glyph glyph-name="uniE609" unicode="&#xe609;" 
d="M507 163q-5 0 -10 1t-9 4t-7.5 6.5t-6.5 8t-5 9.5q-5 16 -21 137.5t-16 181.5q0 24 20.5 50t53.5 26q7 0 14 -1.5t12.5 -4t11 -6t10 -8t8.5 -9t7 -9.5t5.5 -10t4 -10t2 -9.5t0.5 -8.5q0 -42 -8 -118t-17 -133.5t-12 -67.5q-4 -13 -14.5 -21t-22.5 -8zM506 576
q-28 0 -45.5 -22.5t-17.5 -42.5q0 -42 8.5 -118t17 -133t11.5 -65q2 -8 10 -15t17 -7t16 6t11 16q5 18 21 138t16 178q0 20 -18.5 42.5t-46.5 22.5zM507 0q-27 0 -45.5 18.5t-18.5 44.5q0 18 8.5 32.5t23 23t32.5 8.5q26 0 44.5 -18.5t18.5 -45.5q0 -17 -8.5 -31.5t-23 -23
t-31.5 -8.5zM507 116q-22 0 -37.5 -15.5t-15.5 -37t15.5 -37t37.5 -15.5t37.5 15.5t15.5 37t-15.5 37t-37.5 15.5zM507 -192q-99 0 -189 38.5t-155 103.5t-103.5 155t-38.5 188.5t38.5 188.5t103.5 155t155 103.5t188.5 38.5t188.5 -38.5t155 -103.5t103.5 -155t38.5 -189
q0 -200 -142.5 -342.5t-342.5 -142.5zM506.5 768q-55.5 0 -108.5 -12.5t-100 -36t-88 -56t-73.5 -73.5t-56 -88t-36 -100t-12.5 -109q0 -96 37.5 -184t101 -151.5t151.5 -101t184.5 -37.5t184.5 37.5t151.5 101t101 151.5t37.5 184q0 56 -12.5 109t-36 100t-55.5 88
t-73.5 73.5t-88 56t-100 36t-109 12.5z" />
    <glyph glyph-name="uniE60A" unicode="&#xe60a;" 
d="M514.5 61q-93.5 0 -160 66.5t-66.5 160t66.5 160t159.5 66.5q37 0 72 -11.5t62.5 -32.5t48.5 -48.5t32.5 -62.5t11.5 -71q0 -94 -66.5 -160.5t-160 -66.5zM621 365q4 5 3 12.5t-7 14.5l-1 1q-7 6 -14.5 7t-12.5 -3l-75 -76l-81 81q-5 5 -12.5 4t-14.5 -8l-1 -1
q-4 -4 -6 -9t-1.5 -9.5t3.5 -8.5l81 -80l-79 -79q-4 -5 -3 -12.5t7 -14.5l1 -1q7 -6 14.5 -7t12.5 3l79 79l76 -76q5 -5 12.5 -3.5t14.5 7.5l1 1q4 4 6 9t1.5 10t-3.5 8l-77 76z" />
    <glyph glyph-name="uniE60B" unicode="&#xe60b;" 
d="M512 716q-113 0 -209 -55.5t-151.5 -151.5t-55.5 -209t55.5 -208.5t151.5 -151.5t209 -56t209 56t151.5 151.5t55.5 208.5q0 162 -109 281q-106 115 -261 132q-23 3 -46 3zM512 -84q-104 0 -192.5 51.5t-140 140t-51.5 193t51.5 192.5t140 139.5t192.5 51.5
q78 0 149 -30.5t122.5 -81.5t82 -122.5t30.5 -149.5q0 -152 -104 -263q-102 -108 -250 -120q-15 -1 -30 -1zM670.5 458.5q-11.5 11.5 -22.5 -0.5l-136 -135l-136 135q-11 12 -22.5 0.5t0.5 -22.5l135 -136l-135 -136q-12 -11 -0.5 -22.5t22.5 0.5l136 135l136 -135
q11 -12 22.5 -0.5t-0.5 22.5l-135 136l135 136q12 11 0.5 22.5z" />
    <glyph glyph-name="uniE60C" unicode="&#xe60c;" 
d="M706.5 105.5q-11.5 -11.5 -22.5 -0.5l-111 111q-44 -36 -101 -36q-26 0 -50.5 8t-44 23t-34.5 34.5t-23 44t-8 50.5q0 66 47 113t113 47t113 -47t47 -113q0 -9 -1 -18.5t-3 -18.5t-5.5 -17.5t-7.5 -16.5t-8.5 -15.5t-10.5 -14.5l111 -111q11 -11 -0.5 -22.5zM472 468
q-35 0 -64.5 -17t-46.5 -46.5t-17 -64.5q0 -53 37.5 -90.5t90.5 -37.5t90.5 37.5t37.5 90.5t-37.5 90.5t-90.5 37.5z" />
    <glyph glyph-name="uniE60D" unicode="&#xe60d;" horiz-adv-x="1152" 
d="M0 608h1152l-222 -485q-30 -66 -105 -110.5t-153 -44.5h-672v640z" />
    <glyph glyph-name="uniE60E" unicode="&#xe60e;" 
d="M64 608h896l-222 -485q-30 -66 -105 -110.5t-153 -44.5h-416v640z" />
    <glyph glyph-name="uniE60F" unicode="&#xe60f;" 
d="M736 624h-448q-53 0 -90.5 -37.5t-37.5 -90.5v-288q0 -53 37.5 -90.5t90.5 -37.5h160l128 -128v128h160q53 0 90.5 37.5t37.5 90.5v288q0 53 -37.5 90.5t-90.5 37.5z" />
    <glyph glyph-name="uniE610" unicode="&#xe610;" 
d="M512 656q75 0 143 -29t117.5 -78.5t78.5 -117.5t29 -143q0 -100 -49.5 -184.5t-134 -134t-184.5 -49.5t-184.5 49.5t-134 134t-49.5 184.5q0 75 29 143t78.5 117.5t117.5 78.5t143 29zM512 688q-109 0 -201 -53.5t-145.5 -145.5t-53.5 -201t53.5 -201t145.5 -145.5
t201 -53.5t201 53.5t145.5 145.5t53.5 201q0 81 -31.5 155.5t-85 128t-128 85t-155.5 31.5z" />
    <glyph glyph-name="uniE611" unicode="&#xe611;" 
d="M512 544q106 0 181 -75t75 -181q0 -69 -34.5 -128t-93.5 -93.5t-128 -34.5q-106 0 -181 75t-75 181t75 181t181 75zM512 576q-119 0 -203.5 -84.5t-84.5 -203.5t84.5 -203.5t203.5 -84.5q59 0 112 23t91.5 61.5t61.5 91.5t23 112q0 119 -84.5 203.5t-203.5 84.5z" />
    <glyph glyph-name="uniE612" unicode="&#xe612;" 
d="M384 398h-37v-128q1 -6 -1 -11.5t-5.5 -9t-7.5 -6.5t-8 -4.5t-7 -3t-5 -1.5l-2 -1q-4 1 -10 3t-16.5 11.5t-10.5 22.5v128h-36q-5 0 -9.5 -2.5t-7 -7t-2.5 -9.5v-128q1 -3 34.5 -38t39.5 -35h36q2 0 7.5 4t12 10.5t14 14.5t14.5 16t12.5 14.5t8.5 10.5l4 3v128
q0 8 -5 13.5t-13 5.5zM494 398h18q5 0 9 -2.5t6.5 -7t2.5 -9.5v-182q0 -8 -5 -13.5t-13 -5.5h-18q-8 0 -13.5 5.5t-5.5 13.5v182q0 4 1.5 7.5t4 6t6 4t7.5 1.5zM722 398h-55q-4 0 -8.5 -1t-9.5 -2q-4 3 -9 3h-18q-5 0 -9.5 -2.5t-7 -7t-2.5 -9.5v-64v-118q0 -4 1.5 -7.5
t4 -6t6 -4t7.5 -1.5h18q5 0 9 2.5t6.5 7t2.5 9.5v55q6 -1 9 -1h55q18 0 32.5 9t23 23.5t8.5 31.5v19q0 26 -18.5 45t-45.5 19zM731 306q0 -7 -5 -12.5t-13 -5.5h-55v73h55q8 0 13 -5.5t5 -12.5v-37z" />
    <glyph glyph-name="uniE613" unicode="&#xe613;" 
d="M649 398h-18q-5 0 -9.5 -2.5t-6.5 -7t-2 -9.5v-182q0 -8 5 -13.5t13 -5.5h18q8 0 13 5.5t5 13.5v182q0 8 -5 13.5t-13 5.5zM539 398h-36v-128q0 -6 -2 -11.5t-5 -9t-7 -6.5t-8 -4.5t-7.5 -3t-5.5 -1.5l-2 -1q-4 1 -10 3t-16 11.5t-10 22.5v128h-37q-5 0 -9 -2.5t-6.5 -7
t-2.5 -9.5v-128q1 -3 34 -38t39 -35h37q2 0 7 4t11.5 10.5t14 14.5t14.5 16t13 14.5t9 10.5l4 3v128q0 8 -5.5 13.5t-13.5 5.5zM841 398h-55q-4 0 -8.5 -1t-9.5 -2q-5 3 -9 3h-18q-5 0 -9.5 -2.5t-7 -7t-2.5 -9.5v-182q0 -4 1.5 -7.5t4 -6t6 -4t7.5 -1.5h18q5 0 9 2.5t6.5 7
t2.5 9.5v55q6 -1 9 -1h55q27 0 45.5 19t18.5 45v19q0 26 -18.5 45t-45.5 19zM850 306q0 -7 -5 -12.5t-13 -5.5h-55v73h55q8 0 13 -5.5t5 -12.5v-37zM285 325h19q10 0 16 8q0 10 -2 17t-5 11h1q-8 17 -23.5 27t-34.5 10q-2 0 -9 -1v1h-55v-1q-15 -2 -27.5 -11t-20 -22.5
t-7.5 -29.5q0 -10 3 -20t9 -17.5t13.5 -13.5t17 -9.5t19.5 -3.5h48q7 0 12.5 -5.5t5.5 -13.5v-18q0 -7 -5.5 -12.5t-12.5 -5.5h-55v18q0 8 -5.5 13t-13.5 5h-20q-10 0 -16 -8v-5q0 -3 0.5 -5.5t0.5 -4.5l2 -4q0 -2 1 -3.5t1.5 -3t1.5 -2.5q7 -17 22.5 -27t34.5 -10q3 0 8 1
h1v-1h55v1q24 4 39.5 21.5t15.5 41.5q0 26 -18 44.5t-43 19.5h-49q-7 0 -12.5 5.5t-5.5 13.5v18q0 7 5.5 12.5t12.5 5.5h55v-18q0 -8 5.5 -13t14.5 -5z" />
    <glyph glyph-name="uniE614" unicode="&#xe614;" 
d="M696.5 634q7.5 -7 7.5 -16.5t-7 -16.5l-335 -330q-7 -7 -17 -7.5t-17.5 6.5t-7.5 16.5t7 16.5l335 330q7 7 17 7.5t17.5 -6.5zM698 -56q-4 -5 -10 -7t-12 -0.5t-10 5.5l-338 327q-5 5 -7 11t-0.5 12.5t5.5 11.5q6 8 15.5 8.5t16.5 -6.5l339 -327q14 -14 3 -32
q-1 -2 -2 -3z" />
    <glyph glyph-name="uniE615" unicode="&#xe615;" 
d="M512 704q-172 0 -294 -122t-122 -294t122 -294t294 -122t294 122t122 294t-122 294t-294 122zM512 -96q-159 0 -271.5 112.5t-112.5 271.5t112.5 271.5t271.5 112.5t271.5 -112.5t112.5 -271.5t-112.5 -271.5t-271.5 -112.5zM776 304h-248v248q0 8 -8 8h-16q-8 0 -8 -8
v-248h-248q-8 0 -8 -8v-16q0 -8 8 -8h248v-248q0 -8 8 -8h16q8 0 8 8v248h248q8 0 8 8v16q0 8 -8 8z" />
    <glyph glyph-name="uniE616" unicode="&#xe616;" 
d="M512 704q-172 0 -294 -122t-122 -294t122 -294t294 -122t294 122t122 294t-122 294t-294 122zM512 -98q-105 0 -194 51.5t-140.5 140.5t-51.5 194t51.5 194t140.5 140.5t194 51.5t194 -51.5t140.5 -140.5t51.5 -194t-51.5 -194t-140.5 -140.5t-194 -51.5zM729.5 363.5
q-11.5 11.5 -22.5 -0.5l-195 -195l-195 195q-11 12 -23 0q-10 -11 0 -22l207 -207q4 -4 11 -4q3 0 6 1t5 3l207 207q11 11 -0.5 22.5z" />
    <glyph glyph-name="uniE617" unicode="&#xe617;" 
d="M672 288l-320 320l-32 -32l304 -304l-304 -304l32 -32l336 336z" />
    <glyph glyph-name="uniE618" unicode="&#xe618;" 
d="M688 576l-32 32l-336 -336l336 -336l32 32l-304 304z" />
    <glyph glyph-name="uniE619" unicode="&#xe619;" 
d="M512 656q-104 0 -192.5 -51.5t-140 -140t-51.5 -192.5q0 -78 30.5 -149t82 -122.5t122.5 -82t149 -30.5t149 30.5t122.5 82t82 122.5t30.5 149t-30.5 149t-82 122.5t-122.5 82t-149 30.5zM713 90l-23 -25l-184 184l-190 -190l-28 21l194 193l-181 181l23 25l182 -182
l188 188l27 -21l-191 -191z" />
    <glyph glyph-name="uniE61A" unicode="&#xe61a;" 
d="M504 696q-113 0 -209 -55.5t-151.5 -151.5t-55.5 -209t55.5 -208.5t151.5 -151.5t209 -56t209 56t151.5 151.5t55.5 208.5t-55.5 209t-151.5 151.5t-209 55.5zM504 -104q-104 0 -192.5 51.5t-140 140t-51.5 192.5q0 45 10 88t29 81t45.5 71.5t59.5 59.5t71 45t81 29
t88 10q104 0 192.5 -51.5t140 -139.5t51.5 -192.5t-51.5 -193t-140 -140t-192.5 -51.5zM424 344q0 27 -19 45.5t-45.5 18.5t-45 -18.5t-18.5 -45.5q0 -17 8.5 -32t23.5 -23.5t32 -8.5q13 0 25 5t20.5 13.5t13.5 20.5t5 25zM360 309q-15 0 -25 10t-10 25t10 25t25 10
q7 0 13.5 -2.5t11.5 -7.5t8 -11.5t3 -13.5q0 -15 -10.5 -25t-25.5 -10zM504 56q-43 0 -82 43l-35 -17q48 -58 117 -58q66 0 113 52.5t47 123.5h-32q0 -64 -38.5 -104t-89.5 -40zM707 408l-98 -81l7 -9v-22h112v32h-65l65 53z" />
    <glyph glyph-name="uniE61B" unicode="&#xe61b;" 
d="M608 64q0 -7 4.5 -11.5t11.5 -4.5t11.5 4.5t4.5 11.5v320q0 4 -2 8t-6 6t-8 2q-7 0 -11.5 -4.5t-4.5 -11.5v-320zM896 544h-208v48q0 18 -12 32q-15 16 -36 16h-224q-21 0 -36 -16q-12 -14 -12 -32v-48h-208q-2 0 -4 -0.5t-4 -1.5t-3.5 -2.5t-2.5 -3.5t-1.5 -4t-0.5 -4
q0 -3 1 -5t2.5 -4t3.5 -3.5t4 -2.5t5 -1h80v-544q0 -80 80 -80h416q80 0 80 80v544h80q7 0 11.5 4.5t4.5 11.5q0 4 -2 8t-6 6t-8 2zM400 576q0 13 9.5 22.5t22.5 9.5h192q13 0 22.5 -9.5t9.5 -22.5v-32h-256v32zM784 -32q0 -26 -11 -37t-37 -11h-416q-27 0 -37.5 11
t-10.5 37v544h512v-544zM416 64q0 -7 4.5 -11.5t11.5 -4.5t11.5 4.5t4.5 11.5v320q0 7 -4.5 11.5t-11.5 4.5t-11.5 -4.5t-4.5 -11.5v-320z" />
    <glyph glyph-name="uniE61C" unicode="&#xe61c;" 
d="M632 616h-352q-13 0 -22.5 -9.5t-9.5 -22.5v-608q0 -13 9.5 -22.5t22.5 -9.5h448q13 0 22.5 9.5t9.5 22.5v512zM632 576l88 -88h-88v88zM728 -24h-448v608h320v-96q0 -13 9.5 -22.5t22.5 -9.5h96v-480zM599 346l-118 -118l-56 57q-11 11 -23 0q-10 -12 0 -23l68 -68
q11 -11 23 0l129 129q11 12 0 23q-5 5 -11.5 5t-11.5 -5z" />
    <glyph glyph-name="uniE61D" unicode="&#xe61d;" 
d="M522 583h-36q-111 0 -190.5 -78.5t-80.5 -190.5q1 -60 26.5 -114t70.5 -92q-18 -24 -26 -51t-8 -42l1 -15q30 25 75 34q32 6 60 8.5t41 1.5h12q14 -1 19 -1h36q113 0 192 78.5t79 190.5v5q0 74 -36 135t-98.5 96t-136.5 35zM763 313v1q-1 -99 -72.5 -171t-171.5 -72h-31
h-4h-4l3 -5q-62 3 -108 -5q-9 -2 -18.5 -4t-17 -4t-14 -4t-10.5 -3l-4 -1q1 1 1.5 3.5t4 9.5t8 14t13 17.5t18.5 20.5q-51 33 -80.5 86.5t-29.5 116.5v3q0 25 5 49t14 45t22 40t29.5 35t36 28.5t41 21.5t45.5 13.5t49 4.5h31q100 0 171.5 -69.5t72.5 -169.5v2v-3zM215 312v1
v1v2v1v-5z" />
    <glyph glyph-name="uniE61E" unicode="&#xe61e;" 
d="M525 600q27 0 52 -9.5t41.5 -25t25 -25t13.5 -18.5l1 -1q10 -21 15 -60q3 -25 2 -50l-1 -15l11 -10q14 -13 14 -32t-11.5 -40.5t-24.5 -26.5l-12 -4l-6 -12q-30 -59 -71 -84l-16 -9v-54l7 -9q22 -28 68 -33q50 -5 114 -25.5t85 -52.5q6 -10 8 -44h-640q1 15 3 26.5t3 14
t2 3.5q13 22 52.5 40t77 26.5t68.5 11.5q46 4 69 34l7 9v53l-15 10q-39 24 -69 83l-6 12l-13 4q-15 4 -26.5 26t-11.5 41q0 6 1.5 12t5 11.5t8.5 9.5l10 8l2 13v2v4v3q-1 13 -1 27q0 57 23 79l14 13l-5 19q-1 1 -2 5t-1.5 5.5t-1.5 5t-2 5.5q17 1 37 4.5t40 9.5q29 10 56 10
zM525 632q-33 0 -67 -11q-37 -13 -78 -13h-3h-1q-5 0 -9.5 -3t-6.5 -7q-4 -5 -2.5 -12.5t10.5 -39.5q-33 -31 -33 -102q0 -16 1 -30v-1v-1q-27 -23 -27 -58q0 -29 17.5 -59.5t43.5 -38.5q33 -66 80 -95v-25q-7 -9 -17.5 -14.5t-29.5 -7.5q-71 -6 -140 -34q-61 -25 -83 -60
q-6 -10 -8.5 -29.5t-3.5 -42.5q0 -2 0.5 -4t1 -3.5t1.5 -3.5t2 -3q3 -3 6.5 -4.5t7.5 -1.5h666q8 0 13 6q3 3 4.5 6.5t1.5 7.5q-1 53 -13 73q-13 20 -41.5 37.5t-56 27t-60 16.5t-45 9t-20.5 3q-32 3 -45 21v25q14 8 26.5 20t23 25t18.5 25.5t15 26.5q24 8 40.5 38.5
t16.5 58.5q0 33 -24 55q0 9 -0.5 25t-1.5 30q-6 45 -18 71l-1 1v1h-1v1l-1 1q-6 10 -16 22t-30 30t-50 29.5t-63 11.5z" />
    <glyph glyph-name="uniE61F" unicode="&#xe61f;" 
d="M935 342q-1 -4 -4 -7l-129 -80q-4 -4 -9 -4h-1h-2q-6 1 -10 7l-36 54v-240v-64q0 -26 -13 -48t-35 -35t-48 -13h-288q-40 0 -68 28t-28 68v192v112l-36 -54q-4 -6 -10 -7h-3l-9 4l-129 80l-5 7q-3 6 9.5 35t32.5 63.5t44 71t41 57.5q52 61 176 79h3q12 0 15 -12
q7 -25 37.5 -38.5t73.5 -13.5t73.5 13.5t37.5 38.5q3 12 15 12h2q18 -3 34.5 -6.5t31 -7.5t28 -9.5t25.5 -11.5t22 -13t19 -15t17 -16q37 -45 85 -129.5t41 -97.5zM784 548q-10 12 -24.5 22.5t-32 18.5t-39.5 14.5t-47 10.5q-14 -30 -51 -46t-86 -16t-86 16t-51 46
q-102 -17 -143 -66q-29 -34 -66 -98t-51 -97l104 -63l84 113l1 -107v-25v-263q0 -17 8.5 -32t23.5 -23.5t32 -8.5h288q13 0 25 5t20.5 13.5t13.5 20.5t5 25v263v0v25l1 107l84 -113l104 63q-2 6 -5 13l-8 16q-5 9 -10.5 19.5t-11.5 21t-13 22t-13.5 23t-14 22.5t-14 21.5
t-14 20t-13.5 16.5z" />
    <glyph glyph-name="uniE620" unicode="&#xe620;" 
d="M840 600h-96q-2 0 -4 -0.5t-4 -1.5l-2 -2q-2 -1 -3 -3v-1h-1q-1 -2 -1 -4h-1v-1l-32 -147h-511h-3q-2 0 -4 -1q-3 -1 -5 -3t-3.5 -5t-1.5 -7v0v-2v-1q1 -1 1 -2l81 -288q2 -7 7.5 -9.5t11.5 -0.5q1 0 3 1q2 -1 4 -1.5t4 -0.5h356l19 -32h-375h-2h-1h-2h-3
q-23 0 -39.5 -16.5t-16.5 -39.5t16.5 -39.5t39.5 -16.5q9 0 17.5 3t15.5 8t12 12t8 15.5t3 17.5q0 12 -6 24h300q-3 -6 -4.5 -12t-1.5 -12q0 -23 16.5 -39.5t39.5 -16.5t39.5 16.5t16.5 39.5q0 4 -0.5 8.5t-2 8t-3 7.5t-4.5 7l-4 6l-6 6t-6.5 5t-7.5 3v1l-30 52l61 279
q3 4 3 9l-1 3l31 141h82q7 0 11.5 4.5t4.5 11.5t-4.5 11.5t-11.5 4.5zM272 8q-10 0 -17 7t-7 17t7 17t17 7t17 -7t7 -17t-7 -17t-17 -7zM672 56q10 0 17 -7t7 -17t-7 -17t-17 -7t-17 7t-7 17t7 17t17 7zM634 152h-354q-1 0 -4 -1l-72 257h486z" />
    <glyph glyph-name="uniE621" unicode="&#xe621;" 
d="M536 600q-124 0 -215 -83t-103 -205h-34l48 -96l48 96h-30q12 109 93.5 182.5t192.5 73.5q119 0 203.5 -84.5t84.5 -203.5t-84.5 -203.5t-203.5 -84.5q-68 0 -127.5 30t-99.5 81l-25 -19q44 -58 110 -91t142 -33q65 0 124.5 25.5t102 68t68 102t25.5 124.5
q0 133 -93.5 226.5t-226.5 93.5zM536 504q-7 0 -11.5 -4.5t-4.5 -11.5v-208v-1q0 -11 8 -16l144 -77q3 -1 6 -1.5t6 0t5.5 3t4.5 5.5q3 6 1.5 13t-7.5 11l-136 72v199q0 7 -4.5 11.5t-11.5 4.5z" />
    <glyph glyph-name="uniE622" unicode="&#xe622;" 
d="M792 504h-64v144h-448h-4h-4q-37 0 -63 -26t-26 -63q0 -6 1 -14v0v-537q0 -40 28 -68t68 -28h512q26 0 48 13t35 35t13 48v400q0 40 -28 68t-68 28zM274 616h6h416v-112h-416v1l-6 -1q-15 0 -28 7.5t-20.5 20.5t-7.5 28q0 23 16.5 39.5t39.5 16.5zM856 8q0 -13 -5 -25
t-14 -20.5t-20.5 -13.5t-24.5 -5h-512q-17 0 -32 8.5t-23.5 23.5t-8.5 32v482q25 -20 56 -20q8 0 15 1t14 4v-3h491q26 0 45 -18.5t19 -45.5v-400zM711 136q-13 0 -24 -6.5t-17.5 -17.5t-6.5 -24q0 -10 4 -19t10.5 -15t15 -10t18.5 -4q20 0 34 14t14 34t-14 34t-34 14z" />
    <glyph glyph-name="uniE623" unicode="&#xe623;" 
d="M536 56q-106 0 -181 75t-75 181v14v2h59l-91 101v-101h1q-1 -4 -1 -8v-8q0 -119 84.5 -203.5t203.5 -84.5q98 0 177 61l-30 17q-67 -46 -147 -46zM824 312q0 119 -84.5 203.5t-203.5 84.5q-46 0 -88.5 -14t-77.5 -39t-61 -59l27 -16q36 45 88 70.5t112 25.5
q52 0 99.5 -20t82 -54.5t54.5 -82t20 -99.5q0 -14 -2 -31h-56l45 -49q0 -1 -1 -4t-2 -5l22 -13l26 -28v99h-2q2 17 2 31z" />
    <glyph glyph-name="uniE624" unicode="&#xe624;" 
d="M360 472q-20 0 -34 -14t-14 -34q0 -13 6.5 -24t17.5 -17.5t24 -6.5q20 0 34 14t14 34q0 8 -2.5 15t-7 13t-10.5 10.5t-13 7t-15 2.5zM872 158v362q0 40 -28 68t-68 28h-544q-40 0 -68 -28t-28 -68v-480q0 -26 13 -48t35 -35t48 -13h544q40 0 68 28t28 68v118v0zM840 40
q0 -26 -19 -45t-45 -19h-544q-24 0 -41.5 15.5t-21.5 37.5l5 -5l166 166l109 -109l222 234l169 -170v-105zM840 190l-170 170l-222 -233l-108 108l-172 -172v457q0 13 5 25t13.5 20.5t20.5 13.5t25 5h544q13 0 25 -5t20.5 -13.5t13.5 -20.5t5 -25v-330z" />
    <glyph glyph-name="uniE625" unicode="&#xe625;" 
d="M776 552h-242q-5 28 -27 46t-51 18h-224q-33 0 -56.5 -23.5t-23.5 -56.5v-496q0 -33 23.5 -56.5t56.5 -23.5h544q33 0 56.5 23.5t23.5 56.5v432q0 33 -23.5 56.5t-56.5 23.5zM184 536q0 20 14 34t34 14h224q20 0 34 -14t14 -34v-16h272q20 0 34 -14t14 -34v-32h-640v96z
M776 -8h-544q-20 0 -34 14t-14 34v368h640v-368q0 -20 -14 -34t-34 -14z" />
    <glyph glyph-name="uniE626" unicode="&#xe626;" 
d="M903 365l-15 131q-6 61 -35 98.5t-69 37.5h-561q-40 0 -68.5 -37.5t-35.5 -98.5l-15 -131q-3 -29 16 -50q17 -19 43 -19h21v-315v-37h640v352h20q27 0 44 19q19 21 15 50zM632 -24h-96v160q0 16 16 16h64q16 0 16 -16v-160zM792 -24h-128v176q0 9 -4 16.5t-11 11t-17 3.5
h-96q-6 0 -11 -1.5t-8.5 -4t-6.5 -6.5t-4 -9t-1 -10v-176h-289v320h576v-320zM864 336q-3 -3 -8 -5.5t-12 -2.5h-681q-7 0 -11.5 2.5t-7.5 5.5q-9 10 -8 26l15 131q6 47 26 77t46 30h561q24 0 45.5 -28.5t26.5 -78.5l15 -131q1 -7 -1 -14t-6 -12zM584 56q-16 0 -16 -16
t16 -16q8 0 12 4.5t4 11.5q0 16 -16 16z" />
    <glyph glyph-name="uniE627" unicode="&#xe627;" 
d="M663 536l-27 -19q57 -40 90.5 -102.5t33.5 -134.5t-33.5 -134.5t-90.5 -102.5l27 -19q60 44 94.5 111.5t34.5 144.5t-34.5 144.5t-94.5 111.5zM431 367l-28 -20q37 -24 37 -67t-37 -67l28 -20q41 34 41 87t-41 87zM544 450l-28 -20q26 -16 44.5 -38.5t29 -51.5t10.5 -60
q0 -47 -22.5 -86.5t-61.5 -62.5l28 -21q41 29 64.5 73.5t23.5 96.5t-23.5 96.5t-64.5 73.5zM504 -136q113 0 208.5 56t151.5 151.5t56 208.5t-56 209t-151.5 151.5t-208.5 55.5q-38 0 -75 -6.5t-70.5 -19.5t-64.5 -31t-58 -41t-50 -50t-41 -58t-31 -64.5t-19.5 -70.5
t-6.5 -75q0 -113 55.5 -208.5t151.5 -151.5t209 -56zM504 664q104 0 192.5 -51.5t140 -139.5t51.5 -192.5t-51.5 -193t-140 -140t-192.5 -51.5t-192.5 51.5t-140 140t-51.5 193t51.5 192.5t140 139.5t192.5 51.5z" />
    <glyph glyph-name="uniE628" unicode="&#xe628;" 
d="M675 364l-11 9q-11 11 -22 0l-127 -130l-134 130q-11 11 -22 0l-11 -9q-11 -11 0 -22l157 -155q4 -5 9 -3q4 1 9 6l152 151q12 11 0 23z" />
    <glyph glyph-name="uniE629" unicode="&#xe629;" 
d="M168 648h672q7 0 11.5 4.5t4.5 11.5q0 3 -1 6t-3.5 5t-5 3.5t-6.5 1.5h-672q-7 0 -11.5 -4.5t-4.5 -11.5t4.5 -11.5t11.5 -4.5zM835 315l-282 268q-49 53 -101 1l-284 -268q-8 -5 -12.5 -13t-4.5 -18q0 -15 10.5 -26t25.5 -11h157v-275q0 -11 1 -20t3 -18t5.5 -16
t9 -12.5t13 -8t17.5 -2.5h215q29 0 42 17.5t13 49.5v285h158q9 1 16.5 6t12 12.5t4.5 17.5q0 21 -19 31zM632 280v-321q0 -8 -1.5 -14t-4 -9t-6.5 -5t-7.5 -2.5t-8.5 -0.5h-206q-13 0 -17.5 12.5t-4.5 27.5v312h-191l17 23l275 256q6 5 12.5 7.5t14.5 2.5q15 0 26 -10
l291 -277l1 -2h-190z" />
    <glyph glyph-name="uniE62A" unicode="&#xe62a;" 
d="M808 40q0 -33 -23.5 -56.5t-56.5 -23.5h-512q-33 0 -56.5 23.5t-23.5 56.5v416q0 22 10.5 40.5t29 29t40.5 10.5h96v32h-112q-40 0 -68 -28t-28 -68v-448q0 -40 28 -68t68 -28h544q40 0 68 28t28 68v160h-32v-144zM920 548l-8 4l-22 14l-1 -1l-173 94l-17 -32l145 -78
q-82 -9 -153 -43t-123 -86.5t-82 -126t-30 -157.5q0 -9 2 -32h30q-1 0 0 16v16q0 105 50.5 189.5t135 134t187.5 59.5l-92 -150l30 -19l103 168l1 -1l13 23z" />
    <glyph glyph-name="uniE62B" unicode="&#xe62b;" 
d="M744 264q-7 0 -11.5 -4.5t-4.5 -11.5v-240h-128v176q0 7 -4.5 11.5t-11.5 4.5h-160q-7 0 -11.5 -4.5t-4.5 -11.5v-176h-128v240q0 7 -4.5 11.5t-11.5 4.5t-11.5 -4.5t-4.5 -11.5v-256q0 -7 4.5 -11.5t11.5 -4.5h160q7 0 11.5 4.5t4.5 11.5v176h128v-176q0 -7 4.5 -11.5
t11.5 -4.5h160q7 0 11.5 4.5t4.5 11.5v256q0 7 -4.5 11.5t-11.5 4.5zM822 291l-307 307q-11 11 -22 0l-307 -307q-11 -11 0 -22q5 -5 11.5 -5t11.5 5l295 295l295 -295q11 -12 23 0q1 2 2.5 4t1.5 5v4q0 3 -1.5 5t-2.5 4zM648 504h48v-48q0 -7 4.5 -11.5t11.5 -4.5t11.5 4.5
t4.5 11.5v64q0 7 -4.5 11.5t-11.5 4.5h-64q-7 0 -11.5 -4.5t-4.5 -11.5t4.5 -11.5t11.5 -4.5z" />
    <glyph glyph-name="uniE62C" unicode="&#xe62c;" 
d="M665 353q-1 63 -45.5 107.5t-107.5 44.5t-108 -45t-45 -108q0 -39 19 -73q6 -13 12.5 -26.5t10.5 -20.5l4 -7l105 -174l105 174q17 25 31 53q4 8 8 18q11 27 11 42v15zM512 280q-30 0 -51 21t-21 51t21 51.5t51 21.5t51.5 -21.5t21.5 -51.5t-21.5 -51t-51.5 -21z" />
    <glyph glyph-name="uniE62D" unicode="&#xe62d;" 
d="M305 328h146l60 160l64 -160h144l-104 -88l52 -174l-155 88l-155 -88l52 174z" />
    <glyph glyph-name="uniE62E" unicode="&#xe62e;" 
d="M715 521q-6 13 -20 16q-1 1 -2 0t-2 0h-2q-3 0 -6 -0.5t-5.5 -2t-5 -3.5t-4 -4t-3 -5t-2 -5.5t-0.5 -5.5q0 -6 2 -10q1 -1 2.5 -4t2.5 -4q2 -2 7 -6q25 -21 43 -48t28 -59.5t10 -67.5q0 -51 -21 -96t-58 -77q-7 -3 -11 -9l-1 -1v-1q-3 -6 -3 -13t3.5 -13t9.5 -9.5
t13 -3.5h1h1l3 2q3 -2 4 0q3 1 5.5 2.5t4 3.5t3.5 4q45 39 70.5 94t25.5 117q0 61 -24.5 115.5t-68.5 93.5zM983 341q-6 102 -55.5 190.5t-129.5 147.5q-8 9 -19 9q-10 0 -17.5 -7.5t-7.5 -17.5q0 -18 17 -24q76 -57 120.5 -142.5t44.5 -184.5q0 -97 -43 -182t-118 -142
q-8 -2 -13 -10h-1h1q-4 -6 -4 -13q0 -11 7 -18t18 -7q8 0 15 5h1q80 59 129 147.5t55 190.5q1 16 1 29t-1 29zM535 673v-1v-1v-1v-1v-1v-1v-1v-1v-1v-1v-1v-1v-1v-1v-1v-1v-1v-1v-1v-1v-1v-1v-1v-1v-1v-1v-1v-1v-1v-1v-1v-1v-1v-1v-1v-1v-1v-1v-1v-1v-1v-1v-1v-1v-1v-1v-1
v-1v-1v-1v-1v-1v-1v-1v-1v-1v-1v-1v-1v-1v-1v-1v-1v-1v-1v-1v-1v-1v-1v-1v-1v-1v-1v-1v-1v-1v-1v-1v-1v-1v-1v-1v-1v-1v-1v-2v-1v-1v-1v-1v-1v-1v-1v-2v-1v-1v-1v-1v-1v-1v-2v-1v-1v-1v-1v-1v-2v-1v-1v-1v-1v-2v-1v-1v-1v-1v-2v-1v-1v-1v-2v-1v-1v-1v-2v-1v-1v-2v-1v-1v-1
v-2v-1v-1v-2v-1v-1v-2v-1v-1v-1v-2v-1v-1v-2v-1v-2v-1v-1v-2v-1v-1v-2v-1v-1v-2v-1v-2v-1v-1v-2v-1v-2v-1v-2v-1v-1v-2v-1v-2v-1v-2v-1v-2v-1v-1v-2v-1v-2v-1v-2v-1v-2v-1v-2v-1v-2v-1v-2v-1v-2v-1v-2v-1v-2v-2v-1v-2v-1v-2v-1v-2v-1v-2v-2v-1v-2v-1v-2v-2v-1v-2v-1v-2v-2
v-1v-2v-1v-2v-2v-1v-2v-2v-1v-2v-2v-1v-2v-2v-1v-2v-2v-1v-2v-2v-1v-2v-2v-1v-2v-2v-2v-1v-2v-2v-2v-1v-2v-2v-1v-2v-2v-2v-2v-1v-2v-2v-2v-1v-2v-2v-2v-2v-1v-2v-2v-2v-2v-2v-1v-2v-2v-2v-2v-2v-1v-2v-2v-2v-2v-2v-2v-2v-1v-2v-2v-2v-2v-2v-2v-2v-2v-2v-2v-2v-2v-2v-1v-2
v-2v-2v-2v-2v-2v-2v-2v-2v-2v-2v-2v-2v-2v-2v-2v-3v-2v-2v-2v-2v-2v-2v-2v-2v-2v-2v-2v-2v-3v-2v-2v-2v-2v-2v-2v-3v-2v-2v-2v-2v-3v-2v-2v-2v-2v-3v-2v-2v-2v-3v-2v-2v-2v-3v-2v-2v-3v-2v-2v-3v-2v-2v-3v-2v-3v-2v-2v-3v-2v-3v-2v-3v-2v-3v-2v-3v-2v-3v-2v-3v-3v-2v-3v-3
v-2v-3v-3v-2v-3v-3v-3v-3v-2v-3v-3v-3v-3v-3v-3v-3v-4v-3v-3v-3v-4v-3v-4v-4v-3v-4v-4v-5v-5v-5v-6v-8v-3q0 -7 -0.5 -11.5t-2 -8t-5.5 -5.5t-9 -2q-4 0 -11 2.5t-14 7.5q-193 129 -223 150h-150q-40 0 -68 28t-28 68v256q0 40 28 68t68 28h150q39 25 220 148q44 25 45 -12
v0zM487 626l-199 -137h-171q-20 0 -33 -16.5t-13 -32.5v-255q0 -15 13 -31.5t35 -16.5h23h29h31h31h27h18h7l202 -137v626z" />
    <glyph glyph-name="uniE62F" unicode="&#xe62f;" 
d="M504 480l67 -132l133 -21l-93 -88l27 -159l-134 61l-133 -61l26 159l-93 88l132 22z" />
    <glyph glyph-name="uniE630" unicode="&#xe630;" 
d="M516 692q-166 0 -283 -117t-117 -283t117 -283t283 -117t283 117t117 283t-117 283t-283 117zM412 112v360l312 -180zM428 444v-304l264 152z" />
    <glyph glyph-name="uniE631" unicode="&#xe631;" 
d="M516 692q-166 0 -283 -117t-117 -283t117 -283t283 -117t283 117t117 283t-117 283t-283 117zM444 132h-24v320h24v-320zM612 132h-24v320h24v-320z" />
    <glyph glyph-name="uniE632" unicode="&#xe632;" 
d="M412 472v-360l312 180zM428 444l264 -152l-264 -152v304zM516 676q159 0 271.5 -112.5t112.5 -271.5t-112.5 -271.5t-271.5 -112.5t-271.5 112.5t-112.5 271.5t112.5 271.5t271.5 112.5zM516 692q-166 0 -283 -117t-117 -283t117 -283t283 -117t283 117t117 283t-117 283
t-283 117z" />
    <glyph glyph-name="uniE633" unicode="&#xe633;" 
d="M588 452h24v-320h-24v320zM420 452h24v-320h-24v320zM516 676q159 0 271.5 -112.5t112.5 -271.5t-112.5 -271.5t-271.5 -112.5t-271.5 112.5t-112.5 271.5t112.5 271.5t271.5 112.5zM516 692q-166 0 -283 -117t-117 -283t117 -283t283 -117t283 117t117 283t-117 283
t-283 117z" />
    <glyph glyph-name="uniE634" unicode="&#xe634;" 
d="M557 663l24 -88q39 -11 73 -30.5t62 -46.5l87 22l57 -98l-63 -64q5 -19 7.5 -38.5t2.5 -38.5q0 -39 -10 -79l3 -2l60 -63l-57 -99l-85 21l-4 2q-28 -26 -61.5 -45t-71.5 -29v-5l-24 -84h-115l-24 84v7q-74 21 -128 75l-9 -5l-85 -21l-58 99l61 63l10 5q-10 39 -10 76
q0 18 2 36.5t7 36.5l-5 3l-64 65l57 98l88 -22l4 -2q55 55 130 77v2l24 88h115zM581 695h-163l-6 -24l-20 -73q-31 -11 -59.5 -27.5t-52.5 -38.5l-100 26l-69 -120l-12 -22l74 -74q-1 -3 -1.5 -6t-1 -6.5t-1 -6.5t-0.5 -6t-1 -6v-6q-1 -3 -1 -6v-6v-6v-6q0 -31 6 -62
l-74 -77l81 -141l103 25q48 -41 107 -62l28 -98h163l6 23l22 73q62 20 112 63l98 -24l81 141l-68 70q7 35 7 69q0 16 -1.5 33t-5.5 34l68 68l-81 142l-94 -25q-17 15 -36 27.5t-39.5 22.5t-42.5 17zM504 425q29 0 55.5 -11.5t46 -31t31 -46t11.5 -56.5q0 -23 -7.5 -45
t-20.5 -40t-31 -31t-40 -20.5t-45 -7.5q-60 0 -102.5 42.5t-42.5 101.5q0 39 19.5 72.5t53 53t72.5 19.5zM504 457q-73 0 -125 -52t-52 -125t52 -124.5t125 -51.5q48 0 88.5 23.5t64 64t23.5 88.5q0 29 -9 56t-25 48.5t-38 38t-49 25.5t-55 9z" />
    <glyph glyph-name="uniE635" unicode="&#xe635;" 
d="M824 72h-112v-112q0 -7 -4.5 -11.5t-11.5 -4.5t-11.5 4.5t-4.5 11.5v112h-112q-7 0 -11.5 4.5t-4.5 11.5t4.5 11.5t11.5 4.5h112v112q0 7 4.5 11.5t11.5 4.5t11.5 -4.5t4.5 -11.5v-112h112q7 0 11.5 -4.5t4.5 -11.5q0 -4 -2 -8t-6 -6t-8 -2zM750 215q26 53 26 113
q0 107 -74.5 181.5t-181.5 74.5h-64q-107 0 -181.5 -74.5t-74.5 -181.5q0 -163 167 -244q-1 0 -2 -1.5t-4.5 -6t-7 -10t-8 -14t-7.5 -17.5q87 37 182 37v-32q-32 0 -61.5 -3.5t-51.5 -9t-41 -12.5t-31.5 -14t-21.5 -12.5t-13 -8.5l-4 -4q1 4 0 14t6 35t22 48
q-47 24 -82 62.5t-54.5 88t-19.5 103.5q0 121 83.5 205t204.5 84h64q12 0 31.5 -2t69 -17.5t87.5 -43t69 -86.5t31 -140q0 -35 -8 -69t-24 -64z" />
    <glyph glyph-name="uniE636" unicode="&#xe636;" 
d="M824 104h-112v112q0 4 -2 8t-6 6t-8 2q-7 0 -11.5 -4.5t-4.5 -11.5v-112h-112q-7 0 -11.5 -4.5t-4.5 -11.5q0 -3 1.5 -6t3.5 -5t5 -3.5t6 -1.5h112v-112q0 -7 4.5 -11.5t11.5 -4.5t11.5 4.5t4.5 11.5v112h112q4 0 8 2t6 6t2 8t-2 8t-6 6t-8 2zM357 97q32 6 52 20.5
t26.5 29.5t7.5 33t-0.5 25t-2.5 11q-2 0 -5 1.5t-13 8t-19 16t-21 29t-21 44.5q-35 -1 -43 31q-8 29 11 44q7 4 15 5q-6 32 -5 55t7.5 38t14 23.5t13.5 11.5l6 3l-6 35q18 2 32.5 6.5t22.5 8t21.5 6t31.5 2.5q36 0 67 -25t46 -69.5t6 -96.5q28 -3 25 -33q-4 -29 -27 -41
q-8 -4 -16 -3q-9 -26 -21 -45.5t-22 -29.5t-19 -16t-14 -7l-6 -2q-1 -5 -2.5 -14t3 -31.5t17.5 -38.5l20 27q-3 6 -4.5 11.5t-2 10t-0.5 8.5v6v3q27 13 44 34.5t32 54.5q25 3 40.5 29.5t11 55t-28.5 38.5q5 20 3 43.5t-8.5 46t-20.5 43.5t-31 37.5t-41 26t-50 9.5
q-25 0 -46 -3.5t-33.5 -8t-24 -8t-23 -3t-24.5 5.5l17 -56q-2 -2 -5.5 -5t-12.5 -14t-13 -25t-8.5 -37.5t2.5 -51.5q-23 -9 -29 -37t8.5 -55t43.5 -30q31 -68 75 -91q0 -2 0.5 -6.5t-1 -15t-6 -19t-15 -16.5t-25.5 -10q-3 -1 -10 -2l-41 -6q-13 -2 -36 -8t-35.5 -12
t-28.5 -17.5t-24 -26t-14 -35.5t-6 -47h464v32h-432q4 16 11 28.5t19 21t22.5 14.5t30 11t33.5 7.5t41 6.5z" />
    <glyph glyph-name="uniE637" unicode="&#xe637;" 
d="M728 552h-448q-33 0 -56.5 -23.5t-23.5 -56.5v-288q0 -33 23.5 -56.5t56.5 -23.5h208v-64h-176q-7 0 -11.5 -4.5t-4.5 -11.5t4.5 -11.5t11.5 -4.5h384q7 0 11.5 4.5t4.5 11.5t-4.5 11.5t-11.5 4.5h-176v64h208q33 0 56.5 23.5t23.5 56.5v288q0 33 -23.5 56.5t-56.5 23.5z
M776 184q0 -20 -14 -34t-34 -14h-448q-20 0 -34 14t-14 34v288q0 20 14 34t34 14h448q20 0 34 -14t14 -34v-288z" />
    <glyph glyph-name="uniE638" unicode="&#xe638;" 
d="M712 -8h-416q-33 0 -56.5 23.5t-23.5 56.5v80h32v-80q0 -20 14 -34t34 -14h416q20 0 34 14t14 34v80h32v-80q0 -33 -23.5 -56.5t-56.5 -23.5zM776 296q7 0 11.5 -4.5t4.5 -11.5t-4.5 -11.5t-11.5 -4.5h-544q-7 0 -11.5 4.5t-4.5 11.5t4.5 11.5t11.5 4.5h544zM760 488
q0 20 -14 34t-34 14h-416q-20 0 -34 -14t-14 -34v-80h-32v80q0 33 23.5 56.5t56.5 23.5h416q33 0 56.5 -23.5t23.5 -56.5v-80h-32v80z" />
    <glyph glyph-name="uniE639" unicode="&#xe639;" 
d="M696 464q0 10 -7 17.5t-17 7.5q-3 0 -5 -1h-130q-8 1 -13 -4q-11 -12 0 -23q5 -5 13 -4v-1h104l-68 -68q-31 25 -70 33t-77 -3.5t-67 -40.5q-47 -47 -47 -113t47 -113t113 -47t113 47q44 44 47 105.5t-36 108.5l68 68v-104q0 -7 5 -12q11 -11 22 0q5 5 5 12v134v1z
M563 174q-38 -38 -91 -38t-90 38q-25 24 -34 57t0 66t33.5 57.5t57.5 33.5t66 0t57 -33l1 -1q24 -24 33 -57t0 -66t-33 -57z" />
    <glyph glyph-name="uniE63A" unicode="&#xe63a;" 
d="M649 426q-47 47 -113 47t-113 -47q-22 -22 -34 -50t-13 -56t8 -56.5t28 -52.5l-23 -23l-57 57q-11 11 -22 0q-10 -12 0 -23l56 -57l-34 -33q-11 -12 0.5 -23t22.5 0l34 34l56 -57q12 -11 23 0q10 12 0 23l-56 56l23 24q47 -39 108.5 -36t105.5 46q47 47 47 113.5
t-47 113.5zM626 222q-37 -37 -90 -37t-90.5 37.5t-37.5 90.5t37.5 90.5t90.5 37.5t90 -38q25 -25 34 -57.5t0 -65.5t-34 -58z" />
    <glyph glyph-name="uniE63B" unicode="&#xe63b;" 
d="M696 696h-400q-26 0 -48 -13t-35 -35t-13 -48v-288v-2v-1v-423l298 133l294 -133v714q0 26 -13 48t-35 35t-48 13zM760 -58l-262 118l-266 -113v379v274q0 27 18.5 45.5t45.5 18.5h400q17 0 31.5 -8.5t23.5 -23.5t9 -32v-208v-450zM536 403l-50 101l-46 -102l-112 -16
l83 -75l-19 -111l98 56l100 -53l-23 110l81 78z" />
    <glyph glyph-name="uniE63C" unicode="&#xe63c;" 
d="M744 584h-480q-27 0 -45.5 -18.5t-18.5 -45.5v-368q0 -27 18.5 -45.5t45.5 -18.5h131l86 -86q10 -10 23 -10t23 10l86 86h131q27 0 45.5 18.5t18.5 45.5v368q0 27 -18.5 45.5t-45.5 18.5zM360 312q-9 0 -16 4.5t-11.5 11.5t-4.5 16q0 4 1 8.5t3 8t5 6.5t6.5 5t8 3t8.5 1
q7 0 12.5 -2.5t10 -7t7 -10t2.5 -12.5q0 -13 -9.5 -22.5t-22.5 -9.5zM504 312q-9 0 -16 4.5t-11.5 11.5t-4.5 16q0 4 1 8.5t3 8t5 6.5t6.5 5t8 3t8.5 1t8.5 -1t8 -3t6.5 -5t5 -6.5t3 -8t1 -8.5q0 -13 -9.5 -22.5t-22.5 -9.5zM648 312q-9 0 -16 4.5t-11.5 11.5t-4.5 16
q0 13 9.5 22.5t22.5 9.5q4 0 8.5 -1t8 -3t6.5 -5t5 -6.5t3 -8t1 -8.5q0 -13 -9.5 -22.5t-22.5 -9.5z" />
    <glyph glyph-name="uniE63D" unicode="&#xe63d;" 
d="M742 376q-36 -1 -131 -1q13 30 15 63.5t-5 61t-19.5 51t-29.5 36.5t-34 13q-14 0 -29.5 -7.5t-26.5 -21t-11 -28.5q0 -16 0.5 -38.5t0.5 -32t-1.5 -22t-5.5 -22.5q-1 -2 -2 -6q-6 -16 -11 -25.5t-17 -23.5t-32 -21.5t-48 -7.5h-111q-22 0 -34 -17t-10 -37
q0 -1 11.5 -123.5t13.5 -140.5q1 -15 7 -26t16.5 -17.5t25.5 -6.5h2h2h6h6h6h8h6h6h5q4 0 6 2t3 4.5t3 5t8.5 4t17.5 1.5q13 0 21.5 -2.5t10.5 -5.5t5 -6t7 -3h259q70 0 97 82q12 39 29.5 112t24.5 114q2 14 1 28t-7 25.5t-15 20t-22 13.5t-28 5zM310 8h-7l-43 1l-30 303
h114v-289q-19 -2 -34 -15zM780 289q-5 -37 -23.5 -109.5t-31.5 -109.5q-21 -62 -53 -62h-258q-1 1 -3.5 3t-3.5 2.5t-3.5 2.5t-4 2.5t-4 1.5t-5 1.5t-6.5 1t-8 0.5v290q29 3 50.5 12.5t34 25.5t17.5 26t11 26q15 50 15 128q0 8 2 14.5t5 10.5t6.5 6.5t7 4t6.5 1.5h4
q13 0 25 -12.5t19.5 -33t12 -44t3 -46.5t-8.5 -39l-26 -49h182q19 0 30 -19.5t8 -35.5z" />
    <glyph glyph-name="uniE63E" unicode="&#xe63e;" 
d="M757 376h-170q19 51 9 100.5t-36 86.5t-50 37q-21 0 -29.5 -12.5t-8.5 -37.5q0 -14 0.5 -38.5t0 -34.5t-2 -23.5t-5.5 -23.5q-1 -2 -3 -8.5t-3.5 -10t-4.5 -10t-5.5 -10.5t-7 -10t-8.5 -10t-10 -8.5t-13 -8t-15.5 -6t-18.5 -3.5v-347q6 -1 10.5 -3t7.5 -4.5t5.5 -5
t4 -4.5t2.5 -3.5t3 -1.5h256q70 0 97 83q14 43 34 125.5t24 119.5q2 15 1 26.5t-5.5 20t-12 14.5t-19 8.5t-27.5 2.5zM200 289q0 -5 12 -125t13 -138q2 -23 15 -36.5t35 -13.5h37q2 0 10 9.5t22 12.5v346h-99q-22 0 -34.5 -17.5t-10.5 -37.5z" />
    <glyph glyph-name="uniE63F" unicode="&#xe63f;" 
d="M504 376q-7 0 -12.5 -2.5t-10 -7t-7 -10t-2.5 -12.5q0 -13 9.5 -22.5t22.5 -9.5q4 0 8.5 1t8 3t6.5 5t5 6.5t3 8t1 8.5q0 13 -9.5 22.5t-22.5 9.5zM744 584h-480q-27 0 -45.5 -18.5t-18.5 -45.5v-368q0 -27 18.5 -45.5t45.5 -18.5h131l86 -86q10 -10 23 -10t23 10l86 86
h131q27 0 45.5 18.5t18.5 45.5v368q0 27 -18.5 45.5t-45.5 18.5zM776 152q0 -13 -9.5 -22.5t-22.5 -9.5h-145l-84 -84q-11 -11 -22 0l-84 84h-145q-13 0 -22.5 9.5t-9.5 22.5v368q0 13 9.5 22.5t22.5 9.5h480q13 0 22.5 -9.5t9.5 -22.5v-368zM648 376q-9 0 -16 -4.5
t-11.5 -11.5t-4.5 -16q0 -13 9.5 -22.5t22.5 -9.5q4 0 8.5 1t8 3t6.5 5t5 6.5t3 8t1 8.5q0 13 -9.5 22.5t-22.5 9.5zM360 376q-7 0 -12.5 -2.5t-10 -7t-7 -10t-2.5 -12.5q0 -13 9.5 -22.5t22.5 -9.5q4 0 8.5 1t8 3t6.5 5t5 6.5t3 8t1 8.5q0 13 -9.5 22.5t-22.5 9.5z" />
    <glyph glyph-name="uniE640" unicode="&#xe640;" 
d="M696 696h-400q-26 0 -48 -13t-35 -35t-13 -48v-288v-2v-1v-423l298 133l294 -133v714q0 26 -13 48t-35 35t-48 13zM590 203l-100 53l-98 -56l19 111l-83 75l112 16l46 102l50 -101l112 -12l-81 -78z" />
  </font>
</defs>
</svg>
